<svg xmlns="http://www.w3.org/2000/svg" xmlns:xlink="http://www.w3.org/1999/xlink" width="500" zoomAndPan="magnify" viewBox="0 0 375 374.999991" height="500" preserveAspectRatio="xMidYMid meet" version="1.0"><defs><clipPath id="9d0e0f1605"><path d="M 1 0 L 375 0 L 375 344 L 1 344 Z M 1 0 " clip-rule="nonzero"/></clipPath><clipPath id="9b1131a41f"><path d="M 352.148438 -45.277344 L 462.785156 257.652344 L 73.910156 399.675781 L -36.726562 96.75 Z M 352.148438 -45.277344 " clip-rule="nonzero"/></clipPath><clipPath id="646fadabe1"><path d="M 352.148438 -45.277344 L 462.785156 257.652344 L 73.910156 399.675781 L -36.726562 96.75 Z M 352.148438 -45.277344 " clip-rule="nonzero"/></clipPath></defs><g clip-path="url(#9d0e0f1605)"><g clip-path="url(#9b1131a41f)"><g clip-path="url(#646fadabe1)"><path fill="#f2543b" d="M 299.3125 269.660156 C 306.765625 253.296875 307.6875 235.0625 306.945312 217.351562 C 306.9375 216.996094 306.925781 216.640625 306.914062 216.28125 C 306.234375 196.847656 316.632812 178.949219 333.5 169.273438 C 348.996094 160.386719 361.640625 146.6875 369.738281 130.527344 C 396.726562 76.824219 350.261719 18.964844 298.886719 3.4375 C 269.230469 -5.152344 232.75 -1.496094 208.167969 18.082031 C 190.394531 33.886719 181.164062 56.253906 166.949219 74.847656 C 136.5 110.296875 82.757812 99.574219 45.207031 123.308594 C 14.566406 139.058594 -6.167969 174.488281 4.601562 208.796875 C 5.570312 212.011719 6.632812 215.199219 7.785156 218.355469 C 35.070312 293.0625 113.636719 349.632812 194.105469 342.613281 C 239.300781 339.523438 284.46875 314.414062 299.3125 269.664062 Z M 299.3125 269.660156 " fill-opacity="1" fill-rule="nonzero"/></g></g></g></svg>