<svg xmlns="http://www.w3.org/2000/svg" xmlns:xlink="http://www.w3.org/1999/xlink" width="500" zoomAndPan="magnify" viewBox="0 0 375 374.999991" height="500" preserveAspectRatio="xMidYMid meet" version="1.0"><defs><clipPath id="5acc5c0978"><path d="M 0 133 L 256 133 L 256 373 L 0 373 Z M 0 133 " clip-rule="nonzero"/></clipPath><clipPath id="d156a15199"><path d="M -42.359375 179.710938 L 140.421875 48.503906 L 308.804688 283.074219 L 126.019531 414.28125 Z M -42.359375 179.710938 " clip-rule="nonzero"/></clipPath><clipPath id="ff8676fa61"><path d="M -42.359375 179.710938 L 140.421875 48.503906 L 308.804688 283.074219 L 126.019531 414.28125 Z M -42.359375 179.710938 " clip-rule="nonzero"/></clipPath></defs><g clip-path="url(#5acc5c0978)"><g clip-path="url(#d156a15199)"><g clip-path="url(#ff8676fa61)"><path fill="#e4cab8" d="M 179.21875 156.089844 C 166.824219 154.152344 154.394531 156.957031 142.632812 160.78125 C 142.394531 160.855469 142.15625 160.929688 141.917969 161.003906 C 128.984375 165.109375 115.003906 161.480469 105.332031 151.960938 C 96.453125 143.214844 84.871094 137.289062 72.488281 134.882812 C 31.328125 126.828125 1.167969 168.917969 0.378906 206.359375 C 0.175781 227.90625 9.480469 251.734375 27.253906 264.578125 C 41.214844 273.554688 57.976562 275.5625 73.144531 281.625 C 102.683594 295.433594 105.566406 333.5625 128.570312 354.34375 C 144.90625 371.980469 172.609375 379.261719 193.648438 365.582031 C 195.628906 364.332031 197.570312 363.015625 199.476562 361.648438 C 244.558594 329.285156 267.828125 265.863281 248 213.097656 C 237.4375 183.304688 212.085938 157.664062 179.222656 156.089844 Z M 179.21875 156.089844 " fill-opacity="1" fill-rule="nonzero"/></g></g></g></svg>