<svg xmlns="http://www.w3.org/2000/svg" xmlns:xlink="http://www.w3.org/1999/xlink" width="1080" zoomAndPan="magnify" viewBox="0 0 810 809.999993" height="1080" preserveAspectRatio="xMidYMid meet" version="1.0"><defs><clipPath id="c9ba6d2415"><path d="M 11.800781 12.347656 L 798.550781 12.347656 L 798.550781 799 L 11.800781 799 Z M 11.800781 12.347656 " clip-rule="nonzero"/></clipPath></defs><g clip-path="url(#c9ba6d2415)"><path fill="#f25339" d="M 798.234375 405.566406 C 798.234375 506.160156 760.484375 597.90625 698.324219 667.441406 C 626.332031 748.050781 521.609375 798.777344 405.023438 798.777344 C 288.433594 798.777344 183.675781 748.050781 111.71875 667.441406 C 49.558594 597.90625 11.8125 506.160156 11.8125 405.566406 C 11.8125 188.410156 187.835938 12.355469 405.023438 12.355469 C 622.171875 12.355469 798.234375 188.410156 798.234375 405.566406 " fill-opacity="1" fill-rule="nonzero"/></g><path fill="#e4c9b7" d="M 405.023438 477.996094 C 476.285156 477.996094 541.199219 397.367188 541.199219 308.832031 C 541.199219 225.183594 525.023438 142.464844 405.023438 142.464844 C 285.007812 142.464844 268.824219 225.183594 268.824219 308.832031 C 268.824219 397.367188 333.742188 477.996094 405.023438 477.996094 " fill-opacity="1" fill-rule="nonzero"/><path fill="#e4c9b7" d="M 698.324219 667.441406 C 626.332031 748.050781 521.609375 798.777344 405.023438 798.777344 C 288.433594 798.777344 183.675781 748.050781 111.71875 667.441406 C 110.476562 618.878906 142.816406 506.359375 307.765625 471.722656 C 335.980469 500.523438 370.714844 516.808594 405.023438 516.808594 C 439.328125 516.808594 474.03125 500.523438 502.242188 471.722656 C 667.230469 506.359375 699.539062 618.878906 698.324219 667.441406 " fill-opacity="1" fill-rule="nonzero"/></svg>