<svg xmlns="http://www.w3.org/2000/svg" xmlns:xlink="http://www.w3.org/1999/xlink" width="500" zoomAndPan="magnify" viewBox="0 0 375 374.999991" height="500" preserveAspectRatio="xMidYMid meet" version="1.0"><defs><g/><clipPath id="95ba311c49"><path d="M 1 0 L 375 0 L 375 344 L 1 344 Z M 1 0 " clip-rule="nonzero"/></clipPath><clipPath id="ba6af672a4"><path d="M 352.148438 -45.277344 L 462.785156 257.652344 L 73.910156 399.675781 L -36.726562 96.75 Z M 352.148438 -45.277344 " clip-rule="nonzero"/></clipPath><clipPath id="14c90ef2c2"><path d="M 352.148438 -45.277344 L 462.785156 257.652344 L 73.910156 399.675781 L -36.726562 96.75 Z M 352.148438 -45.277344 " clip-rule="nonzero"/></clipPath><clipPath id="e9fa15d4b2"><path d="M 277.945312 246.09375 L 288.953125 246.09375 L 288.953125 257.101562 L 277.945312 257.101562 Z M 277.945312 246.09375 " clip-rule="nonzero"/></clipPath><clipPath id="7f821d1917"><path d="M 283.449219 246.09375 C 280.410156 246.09375 277.945312 248.558594 277.945312 251.597656 C 277.945312 254.636719 280.410156 257.101562 283.449219 257.101562 C 286.488281 257.101562 288.953125 254.636719 288.953125 251.597656 C 288.953125 248.558594 286.488281 246.09375 283.449219 246.09375 Z M 283.449219 246.09375 " clip-rule="nonzero"/></clipPath></defs><rect x="-37.5" width="450" fill="#ffffff" y="-37.499999" height="449.999989" fill-opacity="1"/><rect x="-37.5" width="450" fill="#e4cab8" y="-37.499999" height="449.999989" fill-opacity="1"/><g clip-path="url(#95ba311c49)"><g clip-path="url(#ba6af672a4)"><g clip-path="url(#14c90ef2c2)"><path fill="#000000" d="M 299.3125 269.660156 C 306.765625 253.296875 307.6875 235.0625 306.945312 217.351562 C 306.9375 216.996094 306.925781 216.640625 306.914062 216.28125 C 306.234375 196.847656 316.632812 178.949219 333.5 169.273438 C 348.996094 160.386719 361.640625 146.6875 369.738281 130.527344 C 396.726562 76.824219 350.261719 18.964844 298.886719 3.4375 C 269.230469 -5.152344 232.75 -1.496094 208.167969 18.082031 C 190.394531 33.886719 181.164062 56.253906 166.949219 74.847656 C 136.5 110.296875 82.757812 99.574219 45.207031 123.308594 C 14.566406 139.058594 -6.167969 174.488281 4.601562 208.796875 C 5.570312 212.011719 6.632812 215.199219 7.785156 218.355469 C 35.070312 293.0625 113.636719 349.632812 194.105469 342.613281 C 239.300781 339.523438 284.46875 314.414062 299.3125 269.664062 Z M 299.3125 269.660156 " fill-opacity="1" fill-rule="nonzero"/></g></g></g><g fill="#e4cab8" fill-opacity="1"><g transform="translate(87.545946, 182.100866)"><g><path d="M 14.546875 0 L 14.546875 -66.65625 L 29.03125 -66.65625 C 37.015625 -66.65625 40.203125 -61.78125 40.203125 -55.421875 C 40.203125 -37.6875 19.765625 -36.875 19.765625 -30.3125 C 19.765625 -25.984375 28.421875 -12.59375 34.109375 -5.140625 C 37.625 -0.546875 37.828125 0 41.828125 0 L 52.984375 0 L 52.984375 -0.40625 C 48.109375 -0.40625 27.609375 -30.25 27.609375 -34.921875 C 27.609375 -39.046875 50.015625 -39.71875 50.015625 -56.03125 C 50.015625 -61.578125 46.421875 -67.671875 39.046875 -67.671875 L 4.734375 -67.671875 L 4.734375 0 Z M 14.546875 0 "/></g></g></g><g fill="#e4cab8" fill-opacity="1"><g transform="translate(140.526926, 182.100866)"><g><path d="M 2.703125 -22.734375 C 2.703125 -5.484375 17.734375 0.671875 34.03125 0.671875 C 38.640625 0.671875 42.09375 0 45.671875 -1.6875 L 49.734375 -13.46875 C 45.140625 -9.609375 39.453125 -9.140625 33.765625 -9.140625 C 18.609375 -9.140625 3.921875 -12.25 3.921875 -22.203125 C 3.921875 -25.71875 6.5625 -27.8125 12.65625 -27.8125 C 21.515625 -27.8125 28.359375 -21.3125 38.375 -21.65625 C 43.109375 -21.796875 47.375 -24.96875 47.375 -30.046875 C 47.375 -43.515625 11.984375 -38.84375 11.984375 -51.703125 C 11.984375 -56.4375 16.171875 -58.8125 26.046875 -58.8125 C 34.71875 -58.8125 43.71875 -56.5 47.640625 -53.65625 L 50.421875 -63.8125 C 46.21875 -67.203125 34.578125 -68.34375 27.609375 -68.34375 C 8.125 -68.34375 4.328125 -59.140625 4.328125 -55.015625 C 4.328125 -45 14.078125 -43.171875 23.625 -40.875 C 30.859375 -39.109375 42.4375 -37.015625 42.4375 -33.03125 C 42.4375 -31.46875 41.015625 -30.859375 39.453125 -30.859375 C 33.15625 -30.859375 28.015625 -35.59375 19.015625 -35.59375 C 9.8125 -35.59375 2.703125 -31.328125 2.703125 -22.734375 Z M 2.703125 -22.734375 "/></g></g></g><g fill="#e4cab8" fill-opacity="1"><g transform="translate(192.425273, 182.100866)"><g><path d="M 3.390625 -32.484375 L 3.390625 -30.453125 L 32.484375 -30.453125 L 32.484375 -32.484375 Z M 3.390625 -32.484375 "/></g></g></g><g fill="#e4cab8" fill-opacity="1"><g transform="translate(87.545946, 256.350862)"><g><path d="M 3.890625 0 L 11.96875 0 L 11.96875 -27.78125 L 18.875 -27.78125 C 25.4375 -27.78125 30.28125 -26.171875 31.84375 -22.65625 L 31.84375 -33.734375 C 30.28125 -30.234375 25.4375 -28.609375 18.875 -28.609375 L 11.96875 -28.609375 L 11.96875 -54.84375 L 16.25 -54.84375 C 29.0625 -54.84375 35.625 -50.5 39.46875 -46.546875 L 39.46875 -55.671875 L 3.890625 -55.671875 Z M 3.890625 0 "/></g></g></g><g fill="#e4cab8" fill-opacity="1"><g transform="translate(128.125045, 256.350862)"><g><path d="M 24.21875 0.5625 C 37.40625 0.5625 46.203125 -10.796875 46.203125 -27.84375 C 46.203125 -44.875 37.40625 -56.234375 24.21875 -56.234375 C 10.96875 -56.234375 2.234375 -44.875 2.234375 -27.84375 C 2.234375 -10.796875 10.96875 0.5625 24.21875 0.5625 Z M 10.90625 -27.890625 C 10.90625 -44.421875 16.203125 -55.453125 24.15625 -55.453125 C 32.171875 -55.453125 37.515625 -44.421875 37.515625 -27.890625 C 37.515625 -11.296875 32.171875 -0.28125 24.15625 -0.28125 C 16.203125 -0.28125 10.90625 -11.296875 10.90625 -27.890625 Z M 10.90625 -27.890625 "/></g></g></g><g fill="#e4cab8" fill-opacity="1"><g transform="translate(176.552777, 256.350862)"><g><path d="M 11.96875 0 L 11.96875 -54.84375 L 23.890625 -54.84375 C 30.453125 -54.84375 33.0625 -50.828125 33.0625 -45.59375 C 33.0625 -31.015625 16.25 -30.34375 16.25 -24.9375 C 16.25 -21.375 23.375 -10.359375 28.0625 -4.234375 C 30.953125 -0.453125 31.125 0 34.40625 0 L 43.59375 0 L 43.59375 -0.328125 C 39.578125 -0.328125 22.71875 -24.890625 22.71875 -28.734375 C 22.71875 -32.125 41.140625 -32.671875 41.140625 -46.09375 C 41.140625 -50.65625 38.1875 -55.671875 32.125 -55.671875 L 3.890625 -55.671875 L 3.890625 0 Z M 11.96875 0 "/></g></g></g><g fill="#e4cab8" fill-opacity="1"><g transform="translate(220.137734, 256.350862)"><g><path d="M 18.484375 0 L 18.484375 -0.28125 C 6.125 -4.78125 8.125 -27.84375 9.515625 -37.796875 C 10.640625 -45.765625 10.640625 -45.703125 11.75 -53.4375 C 13.75 -51.828125 14.078125 -49.109375 14.703125 -44.65625 C 15.3125 -39.1875 15.75 -35.6875 16.640625 -29.453125 C 17.703125 -23.21875 18.703125 -0.78125 31.015625 -0.78125 C 36.75 -0.78125 37.359375 -4.953125 37.359375 -7.453125 C 37.359375 -15.53125 32.0625 -34.453125 32.0625 -42.984375 C 32.0625 -46.984375 32.734375 -52.671875 36.859375 -52.671875 C 40.703125 -52.671875 40.640625 -46.546875 41.3125 -41.640625 C 43.484375 -25.78125 44.8125 -16.25 47.046875 0 L 55.390625 0 C 53.171875 -16.25 52 -25.71875 49.65625 -41.703125 C 48.65625 -48.609375 48.375 -56.234375 40.96875 -56.234375 C 34.578125 -56.234375 30.734375 -51.328125 31.0625 -42.921875 C 31.40625 -34.96875 33.796875 -25 34.625 -19.765625 C 35.90625 -11.578125 37.6875 -4.671875 33.234375 -4.671875 C 29.84375 -4.671875 27.5 -12.6875 26.609375 -18.421875 C 24.828125 -30.0625 23.9375 -37.296875 22.109375 -50.21875 C 21.59375 -53.71875 19.765625 -55.671875 17.140625 -55.671875 L 5.125 -55.671875 L 5.125 -55.390625 C 6.234375 -55.28125 7.1875 -55.171875 8.015625 -55 C 11.90625 -53.609375 10.359375 -49.65625 9.796875 -46.3125 L 1.109375 0 Z M 18.484375 0 "/></g></g></g><g clip-path="url(#e9fa15d4b2)"><g clip-path="url(#7f821d1917)"><path fill="#e4cab8" d="M 277.945312 246.09375 L 288.953125 246.09375 L 288.953125 257.101562 L 277.945312 257.101562 Z M 277.945312 246.09375 " fill-opacity="1" fill-rule="nonzero"/></g></g><g fill="#e4cab8" fill-opacity="1"><g transform="translate(92.677834, 270.573054)"><g><path d="M 2.4375 -4.5625 C 2.75 -4.5625 3.023438 -4.5 3.265625 -4.375 C 3.515625 -4.257812 3.722656 -4.097656 3.890625 -3.890625 C 4.054688 -3.679688 4.179688 -3.4375 4.265625 -3.15625 C 4.347656 -2.882812 4.390625 -2.59375 4.390625 -2.28125 C 4.390625 -1.863281 4.3125 -1.476562 4.15625 -1.125 C 4.007812 -0.78125 3.789062 -0.503906 3.5 -0.296875 C 3.21875 -0.0976562 2.863281 0 2.4375 0 L 0.890625 0 C 0.773438 0 0.675781 -0.0351562 0.59375 -0.109375 C 0.519531 -0.191406 0.484375 -0.285156 0.484375 -0.390625 L 0.484375 -4.15625 C 0.484375 -4.269531 0.519531 -4.363281 0.59375 -4.4375 C 0.675781 -4.519531 0.773438 -4.5625 0.890625 -4.5625 Z M 2.375 -0.75 C 2.644531 -0.75 2.867188 -0.816406 3.046875 -0.953125 C 3.222656 -1.097656 3.347656 -1.285156 3.421875 -1.515625 C 3.503906 -1.753906 3.546875 -2.007812 3.546875 -2.28125 C 3.546875 -2.488281 3.523438 -2.679688 3.484375 -2.859375 C 3.441406 -3.046875 3.367188 -3.207031 3.265625 -3.34375 C 3.171875 -3.488281 3.050781 -3.601562 2.90625 -3.6875 C 2.757812 -3.769531 2.582031 -3.8125 2.375 -3.8125 L 1.234375 -3.8125 L 1.296875 -3.875 L 1.296875 -0.671875 L 1.265625 -0.75 Z M 2.375 -0.75 "/></g></g></g><g fill="#e4cab8" fill-opacity="1"><g transform="translate(97.092934, 270.573054)"><g><path d="M 0.890625 -4.5625 L 3.0625 -4.5625 C 3.175781 -4.5625 3.269531 -4.523438 3.34375 -4.453125 C 3.425781 -4.378906 3.46875 -4.285156 3.46875 -4.171875 C 3.46875 -4.066406 3.425781 -3.976562 3.34375 -3.90625 C 3.269531 -3.84375 3.175781 -3.8125 3.0625 -3.8125 L 1.25 -3.8125 L 1.296875 -3.921875 L 1.296875 -2.65625 L 1.25 -2.703125 L 2.78125 -2.703125 C 2.882812 -2.703125 2.972656 -2.664062 3.046875 -2.59375 C 3.128906 -2.519531 3.171875 -2.425781 3.171875 -2.3125 C 3.171875 -2.207031 3.128906 -2.117188 3.046875 -2.046875 C 2.972656 -1.984375 2.882812 -1.953125 2.78125 -1.953125 L 1.265625 -1.953125 L 1.296875 -2 L 1.296875 -0.6875 L 1.25 -0.75 L 3.0625 -0.75 C 3.175781 -0.75 3.269531 -0.707031 3.34375 -0.625 C 3.425781 -0.550781 3.46875 -0.46875 3.46875 -0.375 C 3.46875 -0.257812 3.425781 -0.164062 3.34375 -0.09375 C 3.269531 -0.03125 3.175781 0 3.0625 0 L 0.890625 0 C 0.773438 0 0.675781 -0.0351562 0.59375 -0.109375 C 0.519531 -0.191406 0.484375 -0.285156 0.484375 -0.390625 L 0.484375 -4.15625 C 0.484375 -4.269531 0.519531 -4.363281 0.59375 -4.4375 C 0.675781 -4.519531 0.773438 -4.5625 0.890625 -4.5625 Z M 0.890625 -4.5625 "/></g></g></g><g fill="#e4cab8" fill-opacity="1"><g transform="translate(100.575447, 270.573054)"><g><path d="M 1.953125 0.0625 C 1.648438 0.0625 1.375 0.0234375 1.125 -0.046875 C 0.882812 -0.117188 0.65625 -0.253906 0.4375 -0.453125 C 0.382812 -0.492188 0.34375 -0.546875 0.3125 -0.609375 C 0.28125 -0.671875 0.265625 -0.734375 0.265625 -0.796875 C 0.265625 -0.890625 0.296875 -0.972656 0.359375 -1.046875 C 0.429688 -1.128906 0.523438 -1.171875 0.640625 -1.171875 C 0.722656 -1.171875 0.796875 -1.144531 0.859375 -1.09375 C 1.023438 -0.957031 1.1875 -0.851562 1.34375 -0.78125 C 1.507812 -0.71875 1.710938 -0.6875 1.953125 -0.6875 C 2.117188 -0.6875 2.265625 -0.707031 2.390625 -0.75 C 2.523438 -0.800781 2.632812 -0.867188 2.71875 -0.953125 C 2.800781 -1.046875 2.84375 -1.144531 2.84375 -1.25 C 2.84375 -1.382812 2.800781 -1.492188 2.71875 -1.578125 C 2.644531 -1.671875 2.523438 -1.75 2.359375 -1.8125 C 2.203125 -1.875 2.003906 -1.925781 1.765625 -1.96875 C 1.523438 -2 1.316406 -2.050781 1.140625 -2.125 C 0.960938 -2.195312 0.8125 -2.285156 0.6875 -2.390625 C 0.570312 -2.503906 0.484375 -2.632812 0.421875 -2.78125 C 0.359375 -2.9375 0.328125 -3.109375 0.328125 -3.296875 C 0.328125 -3.578125 0.398438 -3.816406 0.546875 -4.015625 C 0.691406 -4.210938 0.890625 -4.363281 1.140625 -4.46875 C 1.390625 -4.570312 1.664062 -4.625 1.96875 -4.625 C 2.25 -4.625 2.507812 -4.582031 2.75 -4.5 C 2.988281 -4.414062 3.1875 -4.304688 3.34375 -4.171875 C 3.46875 -4.078125 3.53125 -3.960938 3.53125 -3.828125 C 3.53125 -3.734375 3.488281 -3.644531 3.40625 -3.5625 C 3.332031 -3.488281 3.25 -3.453125 3.15625 -3.453125 C 3.09375 -3.453125 3.035156 -3.472656 2.984375 -3.515625 C 2.910156 -3.578125 2.8125 -3.632812 2.6875 -3.6875 C 2.570312 -3.738281 2.445312 -3.78125 2.3125 -3.8125 C 2.1875 -3.851562 2.070312 -3.875 1.96875 -3.875 C 1.78125 -3.875 1.617188 -3.847656 1.484375 -3.796875 C 1.359375 -3.753906 1.257812 -3.691406 1.1875 -3.609375 C 1.125 -3.523438 1.09375 -3.429688 1.09375 -3.328125 C 1.09375 -3.191406 1.128906 -3.082031 1.203125 -3 C 1.285156 -2.914062 1.398438 -2.847656 1.546875 -2.796875 C 1.691406 -2.742188 1.863281 -2.703125 2.0625 -2.671875 C 2.320312 -2.617188 2.550781 -2.554688 2.75 -2.484375 C 2.945312 -2.421875 3.109375 -2.335938 3.234375 -2.234375 C 3.367188 -2.140625 3.46875 -2.015625 3.53125 -1.859375 C 3.59375 -1.703125 3.625 -1.515625 3.625 -1.296875 C 3.625 -1.015625 3.546875 -0.769531 3.390625 -0.5625 C 3.234375 -0.363281 3.023438 -0.207031 2.765625 -0.09375 C 2.515625 0.0078125 2.242188 0.0625 1.953125 0.0625 Z M 1.953125 0.0625 "/></g></g></g><g fill="#e4cab8" fill-opacity="1"><g transform="translate(104.220999, 270.573054)"><g><path d="M 1.296875 -0.390625 C 1.296875 -0.285156 1.253906 -0.191406 1.171875 -0.109375 C 1.097656 -0.0351562 1.003906 0 0.890625 0 C 0.765625 0 0.664062 -0.0351562 0.59375 -0.109375 C 0.519531 -0.191406 0.484375 -0.285156 0.484375 -0.390625 L 0.484375 -4.15625 C 0.484375 -4.269531 0.519531 -4.363281 0.59375 -4.4375 C 0.675781 -4.519531 0.78125 -4.5625 0.90625 -4.5625 C 1.007812 -4.5625 1.097656 -4.519531 1.171875 -4.4375 C 1.253906 -4.363281 1.296875 -4.269531 1.296875 -4.15625 Z M 1.296875 -0.390625 "/></g></g></g><g fill="#e4cab8" fill-opacity="1"><g transform="translate(105.766609, 270.573054)"><g><path d="M 2.640625 0.0625 C 2.304688 0.0625 1.992188 0.00390625 1.703125 -0.109375 C 1.421875 -0.234375 1.171875 -0.398438 0.953125 -0.609375 C 0.734375 -0.828125 0.5625 -1.078125 0.4375 -1.359375 C 0.320312 -1.648438 0.265625 -1.957031 0.265625 -2.28125 C 0.265625 -2.601562 0.320312 -2.90625 0.4375 -3.1875 C 0.5625 -3.46875 0.734375 -3.71875 0.953125 -3.9375 C 1.171875 -4.15625 1.421875 -4.320312 1.703125 -4.4375 C 1.992188 -4.5625 2.304688 -4.625 2.640625 -4.625 C 2.835938 -4.625 3.03125 -4.601562 3.21875 -4.5625 C 3.414062 -4.519531 3.597656 -4.453125 3.765625 -4.359375 C 3.828125 -4.328125 3.875 -4.28125 3.90625 -4.21875 C 3.9375 -4.164062 3.953125 -4.109375 3.953125 -4.046875 C 3.953125 -3.941406 3.914062 -3.847656 3.84375 -3.765625 C 3.78125 -3.679688 3.691406 -3.640625 3.578125 -3.640625 C 3.546875 -3.640625 3.507812 -3.644531 3.46875 -3.65625 C 3.4375 -3.664062 3.40625 -3.675781 3.375 -3.6875 C 3.257812 -3.738281 3.140625 -3.773438 3.015625 -3.796875 C 2.898438 -3.828125 2.773438 -3.84375 2.640625 -3.84375 C 2.359375 -3.84375 2.097656 -3.769531 1.859375 -3.625 C 1.628906 -3.488281 1.445312 -3.300781 1.3125 -3.0625 C 1.175781 -2.820312 1.109375 -2.5625 1.109375 -2.28125 C 1.109375 -2 1.175781 -1.738281 1.3125 -1.5 C 1.445312 -1.257812 1.628906 -1.066406 1.859375 -0.921875 C 2.097656 -0.785156 2.359375 -0.71875 2.640625 -0.71875 C 2.765625 -0.71875 2.90625 -0.726562 3.0625 -0.75 C 3.21875 -0.78125 3.347656 -0.816406 3.453125 -0.859375 L 3.390625 -0.671875 L 3.390625 -1.78125 L 3.5 -1.6875 L 2.78125 -1.6875 C 2.664062 -1.6875 2.570312 -1.722656 2.5 -1.796875 C 2.425781 -1.867188 2.390625 -1.960938 2.390625 -2.078125 C 2.390625 -2.179688 2.425781 -2.269531 2.5 -2.34375 C 2.570312 -2.425781 2.664062 -2.46875 2.78125 -2.46875 L 3.84375 -2.46875 C 3.957031 -2.46875 4.050781 -2.425781 4.125 -2.34375 C 4.195312 -2.269531 4.234375 -2.175781 4.234375 -2.0625 L 4.234375 -0.6875 C 4.234375 -0.59375 4.210938 -0.519531 4.171875 -0.46875 C 4.140625 -0.414062 4.097656 -0.367188 4.046875 -0.328125 C 3.835938 -0.210938 3.613281 -0.117188 3.375 -0.046875 C 3.144531 0.0234375 2.898438 0.0625 2.640625 0.0625 Z M 2.640625 0.0625 "/></g></g></g><g fill="#e4cab8" fill-opacity="1"><g transform="translate(110.057802, 270.573054)"><g><path d="M 3.953125 -4.5625 C 4.054688 -4.5625 4.140625 -4.523438 4.203125 -4.453125 C 4.265625 -4.390625 4.296875 -4.304688 4.296875 -4.203125 L 4.296875 -0.390625 C 4.296875 -0.285156 4.257812 -0.191406 4.1875 -0.109375 C 4.113281 -0.0351562 4.019531 0 3.90625 0 C 3.84375 0 3.78125 -0.0078125 3.71875 -0.03125 C 3.664062 -0.0507812 3.625 -0.078125 3.59375 -0.109375 L 1.03125 -3.359375 L 1.203125 -3.46875 L 1.203125 -0.359375 C 1.203125 -0.253906 1.164062 -0.164062 1.09375 -0.09375 C 1.03125 -0.03125 0.945312 0 0.84375 0 C 0.738281 0 0.648438 -0.03125 0.578125 -0.09375 C 0.515625 -0.164062 0.484375 -0.253906 0.484375 -0.359375 L 0.484375 -4.15625 C 0.484375 -4.269531 0.519531 -4.363281 0.59375 -4.4375 C 0.675781 -4.519531 0.773438 -4.5625 0.890625 -4.5625 C 0.953125 -4.5625 1.015625 -4.546875 1.078125 -4.515625 C 1.140625 -4.492188 1.1875 -4.460938 1.21875 -4.421875 L 3.703125 -1.25 L 3.59375 -1.171875 L 3.59375 -4.203125 C 3.59375 -4.304688 3.625 -4.390625 3.6875 -4.453125 C 3.75 -4.523438 3.835938 -4.5625 3.953125 -4.5625 Z M 3.953125 -4.5625 "/></g></g></g><g fill="#e4cab8" fill-opacity="1"><g transform="translate(114.611523, 270.573054)"><g/></g></g><g fill="#e4cab8" fill-opacity="1"><g transform="translate(92.677834, 276.551109)"><g><path d="M 1.953125 0.0625 C 1.648438 0.0625 1.375 0.0234375 1.125 -0.046875 C 0.882812 -0.117188 0.65625 -0.253906 0.4375 -0.453125 C 0.382812 -0.492188 0.34375 -0.546875 0.3125 -0.609375 C 0.28125 -0.671875 0.265625 -0.734375 0.265625 -0.796875 C 0.265625 -0.890625 0.296875 -0.972656 0.359375 -1.046875 C 0.429688 -1.128906 0.523438 -1.171875 0.640625 -1.171875 C 0.722656 -1.171875 0.796875 -1.144531 0.859375 -1.09375 C 1.023438 -0.957031 1.1875 -0.851562 1.34375 -0.78125 C 1.507812 -0.71875 1.710938 -0.6875 1.953125 -0.6875 C 2.117188 -0.6875 2.265625 -0.707031 2.390625 -0.75 C 2.523438 -0.800781 2.632812 -0.867188 2.71875 -0.953125 C 2.800781 -1.046875 2.84375 -1.144531 2.84375 -1.25 C 2.84375 -1.382812 2.800781 -1.492188 2.71875 -1.578125 C 2.644531 -1.671875 2.523438 -1.75 2.359375 -1.8125 C 2.203125 -1.875 2.003906 -1.925781 1.765625 -1.96875 C 1.523438 -2 1.316406 -2.050781 1.140625 -2.125 C 0.960938 -2.195312 0.8125 -2.285156 0.6875 -2.390625 C 0.570312 -2.503906 0.484375 -2.632812 0.421875 -2.78125 C 0.359375 -2.9375 0.328125 -3.109375 0.328125 -3.296875 C 0.328125 -3.578125 0.398438 -3.816406 0.546875 -4.015625 C 0.691406 -4.210938 0.890625 -4.363281 1.140625 -4.46875 C 1.390625 -4.570312 1.664062 -4.625 1.96875 -4.625 C 2.25 -4.625 2.507812 -4.582031 2.75 -4.5 C 2.988281 -4.414062 3.1875 -4.304688 3.34375 -4.171875 C 3.46875 -4.078125 3.53125 -3.960938 3.53125 -3.828125 C 3.53125 -3.734375 3.488281 -3.644531 3.40625 -3.5625 C 3.332031 -3.488281 3.25 -3.453125 3.15625 -3.453125 C 3.09375 -3.453125 3.035156 -3.472656 2.984375 -3.515625 C 2.910156 -3.578125 2.8125 -3.632812 2.6875 -3.6875 C 2.570312 -3.738281 2.445312 -3.78125 2.3125 -3.8125 C 2.1875 -3.851562 2.070312 -3.875 1.96875 -3.875 C 1.78125 -3.875 1.617188 -3.847656 1.484375 -3.796875 C 1.359375 -3.753906 1.257812 -3.691406 1.1875 -3.609375 C 1.125 -3.523438 1.09375 -3.429688 1.09375 -3.328125 C 1.09375 -3.191406 1.128906 -3.082031 1.203125 -3 C 1.285156 -2.914062 1.398438 -2.847656 1.546875 -2.796875 C 1.691406 -2.742188 1.863281 -2.703125 2.0625 -2.671875 C 2.320312 -2.617188 2.550781 -2.554688 2.75 -2.484375 C 2.945312 -2.421875 3.109375 -2.335938 3.234375 -2.234375 C 3.367188 -2.140625 3.46875 -2.015625 3.53125 -1.859375 C 3.59375 -1.703125 3.625 -1.515625 3.625 -1.296875 C 3.625 -1.015625 3.546875 -0.769531 3.390625 -0.5625 C 3.234375 -0.363281 3.023438 -0.207031 2.765625 -0.09375 C 2.515625 0.0078125 2.242188 0.0625 1.953125 0.0625 Z M 1.953125 0.0625 "/></g></g></g><g fill="#e4cab8" fill-opacity="1"><g transform="translate(96.323387, 276.551109)"><g><path d="M 2.03125 0 C 1.90625 0 1.800781 -0.0351562 1.71875 -0.109375 C 1.644531 -0.191406 1.609375 -0.285156 1.609375 -0.390625 L 1.609375 -4.171875 L 2.46875 -4.171875 L 2.46875 -0.390625 C 2.46875 -0.285156 2.425781 -0.191406 2.34375 -0.109375 C 2.257812 -0.0351562 2.15625 0 2.03125 0 Z M 0.59375 -3.8125 C 0.476562 -3.8125 0.382812 -3.84375 0.3125 -3.90625 C 0.238281 -3.976562 0.203125 -4.070312 0.203125 -4.1875 C 0.203125 -4.300781 0.238281 -4.390625 0.3125 -4.453125 C 0.382812 -4.523438 0.476562 -4.5625 0.59375 -4.5625 L 3.484375 -4.5625 C 3.597656 -4.5625 3.691406 -4.523438 3.765625 -4.453125 C 3.847656 -4.390625 3.890625 -4.300781 3.890625 -4.1875 C 3.890625 -4.070312 3.847656 -3.976562 3.765625 -3.90625 C 3.691406 -3.84375 3.597656 -3.8125 3.484375 -3.8125 Z M 0.59375 -3.8125 "/></g></g></g><g fill="#e4cab8" fill-opacity="1"><g transform="translate(100.158067, 276.551109)"><g><path d="M 3.734375 -4.5625 C 3.835938 -4.5625 3.925781 -4.523438 4 -4.453125 C 4.070312 -4.378906 4.109375 -4.285156 4.109375 -4.171875 L 4.109375 -1.8125 C 4.109375 -1.445312 4.03125 -1.125 3.875 -0.84375 C 3.71875 -0.570312 3.503906 -0.359375 3.234375 -0.203125 C 2.960938 -0.046875 2.648438 0.03125 2.296875 0.03125 C 1.941406 0.03125 1.628906 -0.046875 1.359375 -0.203125 C 1.085938 -0.359375 0.875 -0.570312 0.71875 -0.84375 C 0.5625 -1.125 0.484375 -1.445312 0.484375 -1.8125 L 0.484375 -4.171875 C 0.484375 -4.285156 0.519531 -4.378906 0.59375 -4.453125 C 0.675781 -4.523438 0.78125 -4.5625 0.90625 -4.5625 C 1.007812 -4.5625 1.097656 -4.523438 1.171875 -4.453125 C 1.253906 -4.378906 1.296875 -4.285156 1.296875 -4.171875 L 1.296875 -1.8125 C 1.296875 -1.59375 1.34375 -1.40625 1.4375 -1.25 C 1.53125 -1.09375 1.65625 -0.96875 1.8125 -0.875 C 1.96875 -0.789062 2.128906 -0.75 2.296875 -0.75 C 2.484375 -0.75 2.65625 -0.789062 2.8125 -0.875 C 2.976562 -0.96875 3.109375 -1.09375 3.203125 -1.25 C 3.304688 -1.40625 3.359375 -1.59375 3.359375 -1.8125 L 3.359375 -4.171875 C 3.359375 -4.285156 3.390625 -4.378906 3.453125 -4.453125 C 3.523438 -4.523438 3.617188 -4.5625 3.734375 -4.5625 Z M 3.734375 -4.5625 "/></g></g></g><g fill="#e4cab8" fill-opacity="1"><g transform="translate(104.507946, 276.551109)"><g><path d="M 2.4375 -4.5625 C 2.75 -4.5625 3.023438 -4.5 3.265625 -4.375 C 3.515625 -4.257812 3.722656 -4.097656 3.890625 -3.890625 C 4.054688 -3.679688 4.179688 -3.4375 4.265625 -3.15625 C 4.347656 -2.882812 4.390625 -2.59375 4.390625 -2.28125 C 4.390625 -1.863281 4.3125 -1.476562 4.15625 -1.125 C 4.007812 -0.78125 3.789062 -0.503906 3.5 -0.296875 C 3.21875 -0.0976562 2.863281 0 2.4375 0 L 0.890625 0 C 0.773438 0 0.675781 -0.0351562 0.59375 -0.109375 C 0.519531 -0.191406 0.484375 -0.285156 0.484375 -0.390625 L 0.484375 -4.15625 C 0.484375 -4.269531 0.519531 -4.363281 0.59375 -4.4375 C 0.675781 -4.519531 0.773438 -4.5625 0.890625 -4.5625 Z M 2.375 -0.75 C 2.644531 -0.75 2.867188 -0.816406 3.046875 -0.953125 C 3.222656 -1.097656 3.347656 -1.285156 3.421875 -1.515625 C 3.503906 -1.753906 3.546875 -2.007812 3.546875 -2.28125 C 3.546875 -2.488281 3.523438 -2.679688 3.484375 -2.859375 C 3.441406 -3.046875 3.367188 -3.207031 3.265625 -3.34375 C 3.171875 -3.488281 3.050781 -3.601562 2.90625 -3.6875 C 2.757812 -3.769531 2.582031 -3.8125 2.375 -3.8125 L 1.234375 -3.8125 L 1.296875 -3.875 L 1.296875 -0.671875 L 1.265625 -0.75 Z M 2.375 -0.75 "/></g></g></g><g fill="#e4cab8" fill-opacity="1"><g transform="translate(108.923045, 276.551109)"><g><path d="M 1.296875 -0.390625 C 1.296875 -0.285156 1.253906 -0.191406 1.171875 -0.109375 C 1.097656 -0.0351562 1.003906 0 0.890625 0 C 0.765625 0 0.664062 -0.0351562 0.59375 -0.109375 C 0.519531 -0.191406 0.484375 -0.285156 0.484375 -0.390625 L 0.484375 -4.15625 C 0.484375 -4.269531 0.519531 -4.363281 0.59375 -4.4375 C 0.675781 -4.519531 0.78125 -4.5625 0.90625 -4.5625 C 1.007812 -4.5625 1.097656 -4.519531 1.171875 -4.4375 C 1.253906 -4.363281 1.296875 -4.269531 1.296875 -4.15625 Z M 1.296875 -0.390625 "/></g></g></g><g fill="#e4cab8" fill-opacity="1"><g transform="translate(110.468653, 276.551109)"><g><path d="M 4.6875 -2.28125 C 4.6875 -1.957031 4.628906 -1.648438 4.515625 -1.359375 C 4.410156 -1.078125 4.257812 -0.828125 4.0625 -0.609375 C 3.863281 -0.398438 3.628906 -0.234375 3.359375 -0.109375 C 3.085938 0.00390625 2.789062 0.0625 2.46875 0.0625 C 2.144531 0.0625 1.847656 0.00390625 1.578125 -0.109375 C 1.304688 -0.234375 1.070312 -0.398438 0.875 -0.609375 C 0.6875 -0.828125 0.535156 -1.078125 0.421875 -1.359375 C 0.316406 -1.648438 0.265625 -1.957031 0.265625 -2.28125 C 0.265625 -2.601562 0.316406 -2.90625 0.421875 -3.1875 C 0.535156 -3.46875 0.6875 -3.71875 0.875 -3.9375 C 1.070312 -4.15625 1.304688 -4.320312 1.578125 -4.4375 C 1.847656 -4.5625 2.144531 -4.625 2.46875 -4.625 C 2.789062 -4.625 3.085938 -4.5625 3.359375 -4.4375 C 3.628906 -4.320312 3.863281 -4.15625 4.0625 -3.9375 C 4.257812 -3.71875 4.410156 -3.46875 4.515625 -3.1875 C 4.628906 -2.90625 4.6875 -2.601562 4.6875 -2.28125 Z M 3.84375 -2.28125 C 3.84375 -2.570312 3.78125 -2.832031 3.65625 -3.0625 C 3.539062 -3.300781 3.378906 -3.488281 3.171875 -3.625 C 2.972656 -3.769531 2.738281 -3.84375 2.46875 -3.84375 C 2.195312 -3.84375 1.957031 -3.769531 1.75 -3.625 C 1.550781 -3.488281 1.394531 -3.300781 1.28125 -3.0625 C 1.164062 -2.832031 1.109375 -2.570312 1.109375 -2.28125 C 1.109375 -1.988281 1.164062 -1.722656 1.28125 -1.484375 C 1.394531 -1.253906 1.550781 -1.066406 1.75 -0.921875 C 1.957031 -0.785156 2.195312 -0.71875 2.46875 -0.71875 C 2.738281 -0.71875 2.972656 -0.785156 3.171875 -0.921875 C 3.378906 -1.066406 3.539062 -1.253906 3.65625 -1.484375 C 3.78125 -1.722656 3.84375 -1.988281 3.84375 -2.28125 Z M 3.84375 -2.28125 "/></g></g></g><g fill="#e4cab8" fill-opacity="1"><g transform="translate(258.483618, 270.573054)"><g><path d="M 0.890625 -4.5625 L 3.0625 -4.5625 C 3.175781 -4.5625 3.269531 -4.523438 3.34375 -4.453125 C 3.425781 -4.378906 3.46875 -4.285156 3.46875 -4.171875 C 3.46875 -4.066406 3.425781 -3.976562 3.34375 -3.90625 C 3.269531 -3.84375 3.175781 -3.8125 3.0625 -3.8125 L 1.25 -3.8125 L 1.296875 -3.921875 L 1.296875 -2.65625 L 1.25 -2.703125 L 2.78125 -2.703125 C 2.882812 -2.703125 2.972656 -2.664062 3.046875 -2.59375 C 3.128906 -2.519531 3.171875 -2.425781 3.171875 -2.3125 C 3.171875 -2.207031 3.128906 -2.117188 3.046875 -2.046875 C 2.972656 -1.984375 2.882812 -1.953125 2.78125 -1.953125 L 1.265625 -1.953125 L 1.296875 -2 L 1.296875 -0.6875 L 1.25 -0.75 L 3.0625 -0.75 C 3.175781 -0.75 3.269531 -0.707031 3.34375 -0.625 C 3.425781 -0.550781 3.46875 -0.46875 3.46875 -0.375 C 3.46875 -0.257812 3.425781 -0.164062 3.34375 -0.09375 C 3.269531 -0.03125 3.175781 0 3.0625 0 L 0.890625 0 C 0.773438 0 0.675781 -0.0351562 0.59375 -0.109375 C 0.519531 -0.191406 0.484375 -0.285156 0.484375 -0.390625 L 0.484375 -4.15625 C 0.484375 -4.269531 0.519531 -4.363281 0.59375 -4.4375 C 0.675781 -4.519531 0.773438 -4.5625 0.890625 -4.5625 Z M 0.890625 -4.5625 "/></g></g></g><g fill="#e4cab8" fill-opacity="1"><g transform="translate(261.966131, 270.573054)"><g><path d="M 1.953125 0.0625 C 1.648438 0.0625 1.375 0.0234375 1.125 -0.046875 C 0.882812 -0.117188 0.65625 -0.253906 0.4375 -0.453125 C 0.382812 -0.492188 0.34375 -0.546875 0.3125 -0.609375 C 0.28125 -0.671875 0.265625 -0.734375 0.265625 -0.796875 C 0.265625 -0.890625 0.296875 -0.972656 0.359375 -1.046875 C 0.429688 -1.128906 0.523438 -1.171875 0.640625 -1.171875 C 0.722656 -1.171875 0.796875 -1.144531 0.859375 -1.09375 C 1.023438 -0.957031 1.1875 -0.851562 1.34375 -0.78125 C 1.507812 -0.71875 1.710938 -0.6875 1.953125 -0.6875 C 2.117188 -0.6875 2.265625 -0.707031 2.390625 -0.75 C 2.523438 -0.800781 2.632812 -0.867188 2.71875 -0.953125 C 2.800781 -1.046875 2.84375 -1.144531 2.84375 -1.25 C 2.84375 -1.382812 2.800781 -1.492188 2.71875 -1.578125 C 2.644531 -1.671875 2.523438 -1.75 2.359375 -1.8125 C 2.203125 -1.875 2.003906 -1.925781 1.765625 -1.96875 C 1.523438 -2 1.316406 -2.050781 1.140625 -2.125 C 0.960938 -2.195312 0.8125 -2.285156 0.6875 -2.390625 C 0.570312 -2.503906 0.484375 -2.632812 0.421875 -2.78125 C 0.359375 -2.9375 0.328125 -3.109375 0.328125 -3.296875 C 0.328125 -3.578125 0.398438 -3.816406 0.546875 -4.015625 C 0.691406 -4.210938 0.890625 -4.363281 1.140625 -4.46875 C 1.390625 -4.570312 1.664062 -4.625 1.96875 -4.625 C 2.25 -4.625 2.507812 -4.582031 2.75 -4.5 C 2.988281 -4.414062 3.1875 -4.304688 3.34375 -4.171875 C 3.46875 -4.078125 3.53125 -3.960938 3.53125 -3.828125 C 3.53125 -3.734375 3.488281 -3.644531 3.40625 -3.5625 C 3.332031 -3.488281 3.25 -3.453125 3.15625 -3.453125 C 3.09375 -3.453125 3.035156 -3.472656 2.984375 -3.515625 C 2.910156 -3.578125 2.8125 -3.632812 2.6875 -3.6875 C 2.570312 -3.738281 2.445312 -3.78125 2.3125 -3.8125 C 2.1875 -3.851562 2.070312 -3.875 1.96875 -3.875 C 1.78125 -3.875 1.617188 -3.847656 1.484375 -3.796875 C 1.359375 -3.753906 1.257812 -3.691406 1.1875 -3.609375 C 1.125 -3.523438 1.09375 -3.429688 1.09375 -3.328125 C 1.09375 -3.191406 1.128906 -3.082031 1.203125 -3 C 1.285156 -2.914062 1.398438 -2.847656 1.546875 -2.796875 C 1.691406 -2.742188 1.863281 -2.703125 2.0625 -2.671875 C 2.320312 -2.617188 2.550781 -2.554688 2.75 -2.484375 C 2.945312 -2.421875 3.109375 -2.335938 3.234375 -2.234375 C 3.367188 -2.140625 3.46875 -2.015625 3.53125 -1.859375 C 3.59375 -1.703125 3.625 -1.515625 3.625 -1.296875 C 3.625 -1.015625 3.546875 -0.769531 3.390625 -0.5625 C 3.234375 -0.363281 3.023438 -0.207031 2.765625 -0.09375 C 2.515625 0.0078125 2.242188 0.0625 1.953125 0.0625 Z M 1.953125 0.0625 "/></g></g></g><g fill="#e4cab8" fill-opacity="1"><g transform="translate(265.611683, 270.573054)"><g><path d="M 2.03125 0 C 1.90625 0 1.800781 -0.0351562 1.71875 -0.109375 C 1.644531 -0.191406 1.609375 -0.285156 1.609375 -0.390625 L 1.609375 -4.171875 L 2.46875 -4.171875 L 2.46875 -0.390625 C 2.46875 -0.285156 2.425781 -0.191406 2.34375 -0.109375 C 2.257812 -0.0351562 2.15625 0 2.03125 0 Z M 0.59375 -3.8125 C 0.476562 -3.8125 0.382812 -3.84375 0.3125 -3.90625 C 0.238281 -3.976562 0.203125 -4.070312 0.203125 -4.1875 C 0.203125 -4.300781 0.238281 -4.390625 0.3125 -4.453125 C 0.382812 -4.523438 0.476562 -4.5625 0.59375 -4.5625 L 3.484375 -4.5625 C 3.597656 -4.5625 3.691406 -4.523438 3.765625 -4.453125 C 3.847656 -4.390625 3.890625 -4.300781 3.890625 -4.1875 C 3.890625 -4.070312 3.847656 -3.976562 3.765625 -3.90625 C 3.691406 -3.84375 3.597656 -3.8125 3.484375 -3.8125 Z M 0.59375 -3.8125 "/></g></g></g><g fill="#e4cab8" fill-opacity="1"><g transform="translate(269.446363, 270.573054)"><g><path d="M 2.4375 -4.5625 C 2.75 -4.5625 3.023438 -4.5 3.265625 -4.375 C 3.515625 -4.257812 3.722656 -4.097656 3.890625 -3.890625 C 4.054688 -3.679688 4.179688 -3.4375 4.265625 -3.15625 C 4.347656 -2.882812 4.390625 -2.59375 4.390625 -2.28125 C 4.390625 -1.863281 4.3125 -1.476562 4.15625 -1.125 C 4.007812 -0.78125 3.789062 -0.503906 3.5 -0.296875 C 3.21875 -0.0976562 2.863281 0 2.4375 0 L 0.890625 0 C 0.773438 0 0.675781 -0.0351562 0.59375 -0.109375 C 0.519531 -0.191406 0.484375 -0.285156 0.484375 -0.390625 L 0.484375 -4.15625 C 0.484375 -4.269531 0.519531 -4.363281 0.59375 -4.4375 C 0.675781 -4.519531 0.773438 -4.5625 0.890625 -4.5625 Z M 2.375 -0.75 C 2.644531 -0.75 2.867188 -0.816406 3.046875 -0.953125 C 3.222656 -1.097656 3.347656 -1.285156 3.421875 -1.515625 C 3.503906 -1.753906 3.546875 -2.007812 3.546875 -2.28125 C 3.546875 -2.488281 3.523438 -2.679688 3.484375 -2.859375 C 3.441406 -3.046875 3.367188 -3.207031 3.265625 -3.34375 C 3.171875 -3.488281 3.050781 -3.601562 2.90625 -3.6875 C 2.757812 -3.769531 2.582031 -3.8125 2.375 -3.8125 L 1.234375 -3.8125 L 1.296875 -3.875 L 1.296875 -0.671875 L 1.265625 -0.75 Z M 2.375 -0.75 "/></g></g></g><g fill="#e4cab8" fill-opacity="1"><g transform="translate(259.918691, 276.551109)"><g><path d="M 2.984375 -0.71875 C 3.085938 -0.71875 3.171875 -0.679688 3.234375 -0.609375 C 3.304688 -0.546875 3.34375 -0.460938 3.34375 -0.359375 C 3.34375 -0.253906 3.304688 -0.164062 3.234375 -0.09375 C 3.171875 -0.03125 3.085938 0 2.984375 0 L 0.765625 0 C 0.648438 0 0.5625 -0.03125 0.5 -0.09375 C 0.4375 -0.164062 0.40625 -0.257812 0.40625 -0.375 C 0.40625 -0.476562 0.441406 -0.570312 0.515625 -0.65625 L 1.9375 -2.171875 C 2.101562 -2.347656 2.234375 -2.523438 2.328125 -2.703125 C 2.421875 -2.890625 2.46875 -3.050781 2.46875 -3.1875 C 2.46875 -3.40625 2.398438 -3.578125 2.265625 -3.703125 C 2.140625 -3.835938 1.972656 -3.90625 1.765625 -3.90625 C 1.691406 -3.90625 1.609375 -3.882812 1.515625 -3.84375 C 1.429688 -3.8125 1.347656 -3.757812 1.265625 -3.6875 C 1.179688 -3.613281 1.109375 -3.535156 1.046875 -3.453125 C 0.992188 -3.378906 0.941406 -3.332031 0.890625 -3.3125 C 0.835938 -3.300781 0.789062 -3.296875 0.75 -3.296875 C 0.644531 -3.296875 0.550781 -3.328125 0.46875 -3.390625 C 0.394531 -3.460938 0.359375 -3.550781 0.359375 -3.65625 C 0.359375 -3.726562 0.382812 -3.796875 0.4375 -3.859375 C 0.488281 -3.929688 0.550781 -4.003906 0.625 -4.078125 C 0.726562 -4.179688 0.847656 -4.273438 0.984375 -4.359375 C 1.117188 -4.441406 1.253906 -4.503906 1.390625 -4.546875 C 1.535156 -4.597656 1.675781 -4.625 1.8125 -4.625 C 2.101562 -4.625 2.359375 -4.566406 2.578125 -4.453125 C 2.796875 -4.335938 2.960938 -4.175781 3.078125 -3.96875 C 3.191406 -3.757812 3.25 -3.507812 3.25 -3.21875 C 3.25 -2.976562 3.175781 -2.710938 3.03125 -2.421875 C 2.894531 -2.128906 2.707031 -1.851562 2.46875 -1.59375 L 1.59375 -0.65625 L 1.515625 -0.71875 Z M 2.984375 -0.71875 "/></g></g></g><g fill="#e4cab8" fill-opacity="1"><g transform="translate(263.381642, 276.551109)"><g><path d="M 2 0.0625 C 1.625 0.0625 1.304688 -0.0351562 1.046875 -0.234375 C 0.796875 -0.429688 0.601562 -0.707031 0.46875 -1.0625 C 0.332031 -1.414062 0.265625 -1.820312 0.265625 -2.28125 C 0.265625 -2.75 0.332031 -3.15625 0.46875 -3.5 C 0.601562 -3.851562 0.796875 -4.128906 1.046875 -4.328125 C 1.304688 -4.523438 1.625 -4.625 2 -4.625 C 2.375 -4.625 2.691406 -4.523438 2.953125 -4.328125 C 3.210938 -4.128906 3.40625 -3.851562 3.53125 -3.5 C 3.664062 -3.15625 3.734375 -2.75 3.734375 -2.28125 C 3.734375 -1.820312 3.664062 -1.414062 3.53125 -1.0625 C 3.40625 -0.707031 3.210938 -0.429688 2.953125 -0.234375 C 2.691406 -0.0351562 2.375 0.0625 2 0.0625 Z M 2 -0.71875 C 2.1875 -0.71875 2.34375 -0.773438 2.46875 -0.890625 C 2.601562 -1.003906 2.707031 -1.175781 2.78125 -1.40625 C 2.851562 -1.644531 2.890625 -1.9375 2.890625 -2.28125 C 2.890625 -2.632812 2.851562 -2.925781 2.78125 -3.15625 C 2.707031 -3.382812 2.601562 -3.554688 2.46875 -3.671875 C 2.34375 -3.785156 2.1875 -3.84375 2 -3.84375 C 1.820312 -3.84375 1.664062 -3.785156 1.53125 -3.671875 C 1.394531 -3.554688 1.289062 -3.382812 1.21875 -3.15625 C 1.144531 -2.925781 1.109375 -2.632812 1.109375 -2.28125 C 1.109375 -1.9375 1.144531 -1.644531 1.21875 -1.40625 C 1.289062 -1.175781 1.394531 -1.003906 1.53125 -0.890625 C 1.664062 -0.773438 1.820312 -0.71875 2 -0.71875 Z M 2 -0.71875 "/></g></g></g><g fill="#e4cab8" fill-opacity="1"><g transform="translate(267.138065, 276.551109)"><g><path d="M 2.984375 -0.71875 C 3.085938 -0.71875 3.171875 -0.679688 3.234375 -0.609375 C 3.304688 -0.546875 3.34375 -0.460938 3.34375 -0.359375 C 3.34375 -0.253906 3.304688 -0.164062 3.234375 -0.09375 C 3.171875 -0.03125 3.085938 0 2.984375 0 L 0.765625 0 C 0.648438 0 0.5625 -0.03125 0.5 -0.09375 C 0.4375 -0.164062 0.40625 -0.257812 0.40625 -0.375 C 0.40625 -0.476562 0.441406 -0.570312 0.515625 -0.65625 L 1.9375 -2.171875 C 2.101562 -2.347656 2.234375 -2.523438 2.328125 -2.703125 C 2.421875 -2.890625 2.46875 -3.050781 2.46875 -3.1875 C 2.46875 -3.40625 2.398438 -3.578125 2.265625 -3.703125 C 2.140625 -3.835938 1.972656 -3.90625 1.765625 -3.90625 C 1.691406 -3.90625 1.609375 -3.882812 1.515625 -3.84375 C 1.429688 -3.8125 1.347656 -3.757812 1.265625 -3.6875 C 1.179688 -3.613281 1.109375 -3.535156 1.046875 -3.453125 C 0.992188 -3.378906 0.941406 -3.332031 0.890625 -3.3125 C 0.835938 -3.300781 0.789062 -3.296875 0.75 -3.296875 C 0.644531 -3.296875 0.550781 -3.328125 0.46875 -3.390625 C 0.394531 -3.460938 0.359375 -3.550781 0.359375 -3.65625 C 0.359375 -3.726562 0.382812 -3.796875 0.4375 -3.859375 C 0.488281 -3.929688 0.550781 -4.003906 0.625 -4.078125 C 0.726562 -4.179688 0.847656 -4.273438 0.984375 -4.359375 C 1.117188 -4.441406 1.253906 -4.503906 1.390625 -4.546875 C 1.535156 -4.597656 1.675781 -4.625 1.8125 -4.625 C 2.101562 -4.625 2.359375 -4.566406 2.578125 -4.453125 C 2.796875 -4.335938 2.960938 -4.175781 3.078125 -3.96875 C 3.191406 -3.757812 3.25 -3.507812 3.25 -3.21875 C 3.25 -2.976562 3.175781 -2.710938 3.03125 -2.421875 C 2.894531 -2.128906 2.707031 -1.851562 2.46875 -1.59375 L 1.59375 -0.65625 L 1.515625 -0.71875 Z M 2.984375 -0.71875 "/></g></g></g><g fill="#e4cab8" fill-opacity="1"><g transform="translate(270.601016, 276.551109)"><g><path d="M 0.734375 -0.921875 C 0.765625 -0.921875 0.800781 -0.910156 0.84375 -0.890625 C 0.894531 -0.878906 0.953125 -0.859375 1.015625 -0.828125 C 1.085938 -0.765625 1.171875 -0.710938 1.265625 -0.671875 C 1.367188 -0.628906 1.488281 -0.609375 1.625 -0.609375 C 1.757812 -0.609375 1.882812 -0.640625 2 -0.703125 C 2.125 -0.773438 2.222656 -0.867188 2.296875 -0.984375 C 2.378906 -1.109375 2.421875 -1.257812 2.421875 -1.4375 C 2.421875 -1.601562 2.382812 -1.738281 2.3125 -1.84375 C 2.25 -1.957031 2.160156 -2.039062 2.046875 -2.09375 C 1.941406 -2.15625 1.828125 -2.1875 1.703125 -2.1875 C 1.609375 -2.1875 1.53125 -2.175781 1.46875 -2.15625 C 1.40625 -2.132812 1.34375 -2.113281 1.28125 -2.09375 C 1.21875 -2.082031 1.148438 -2.078125 1.078125 -2.078125 C 0.972656 -2.078125 0.894531 -2.109375 0.84375 -2.171875 C 0.789062 -2.242188 0.765625 -2.328125 0.765625 -2.421875 C 0.765625 -2.484375 0.773438 -2.535156 0.796875 -2.578125 C 0.816406 -2.628906 0.851562 -2.6875 0.90625 -2.75 L 2.046875 -3.96875 L 2.234375 -3.8125 L 0.625 -3.8125 C 0.519531 -3.8125 0.429688 -3.84375 0.359375 -3.90625 C 0.296875 -3.976562 0.265625 -4.066406 0.265625 -4.171875 C 0.265625 -4.273438 0.296875 -4.359375 0.359375 -4.421875 C 0.429688 -4.492188 0.519531 -4.53125 0.625 -4.53125 L 2.625 -4.53125 C 2.757812 -4.53125 2.859375 -4.492188 2.921875 -4.421875 C 2.984375 -4.347656 3.015625 -4.253906 3.015625 -4.140625 C 3.015625 -4.078125 3 -4.019531 2.96875 -3.96875 C 2.945312 -3.914062 2.910156 -3.867188 2.859375 -3.828125 L 1.71875 -2.59375 L 1.53125 -2.8125 C 1.582031 -2.832031 1.648438 -2.847656 1.734375 -2.859375 C 1.816406 -2.878906 1.890625 -2.890625 1.953125 -2.890625 C 2.203125 -2.890625 2.421875 -2.820312 2.609375 -2.6875 C 2.804688 -2.5625 2.953125 -2.390625 3.046875 -2.171875 C 3.148438 -1.960938 3.203125 -1.738281 3.203125 -1.5 C 3.203125 -1.175781 3.128906 -0.894531 2.984375 -0.65625 C 2.847656 -0.425781 2.648438 -0.25 2.390625 -0.125 C 2.128906 0 1.820312 0.0625 1.46875 0.0625 C 1.3125 0.0625 1.15625 0.0390625 1 0 C 0.84375 -0.03125 0.707031 -0.0820312 0.59375 -0.15625 C 0.5 -0.207031 0.4375 -0.265625 0.40625 -0.328125 C 0.375 -0.390625 0.359375 -0.445312 0.359375 -0.5 C 0.359375 -0.601562 0.390625 -0.695312 0.453125 -0.78125 C 0.523438 -0.875 0.617188 -0.921875 0.734375 -0.921875 Z M 0.734375 -0.921875 "/></g></g></g></svg>