<svg xmlns="http://www.w3.org/2000/svg" xmlns:xlink="http://www.w3.org/1999/xlink" width="1080" zoomAndPan="magnify" viewBox="0 0 810 809.999993" height="1080" preserveAspectRatio="xMidYMid meet" version="1.0"><defs><g/><clipPath id="a905729598"><path d="M 287.8125 755.425781 L 522.304688 755.425781 L 522.304688 789.945312 L 287.8125 789.945312 Z M 287.8125 755.425781 " clip-rule="nonzero"/></clipPath><clipPath id="5df3b1260d"><path d="M 305.070312 755.425781 L 504.929688 755.425781 C 509.507812 755.425781 513.898438 757.242188 517.132812 760.480469 C 520.371094 763.714844 522.1875 768.105469 522.1875 772.683594 C 522.1875 777.261719 520.371094 781.652344 517.132812 784.890625 C 513.898438 788.125 509.507812 789.945312 504.929688 789.945312 L 305.070312 789.945312 C 300.492188 789.945312 296.101562 788.125 292.867188 784.890625 C 289.628906 781.652344 287.8125 777.261719 287.8125 772.683594 C 287.8125 768.105469 289.628906 763.714844 292.867188 760.480469 C 296.101562 757.242188 300.492188 755.425781 305.070312 755.425781 Z M 305.070312 755.425781 " clip-rule="nonzero"/></clipPath><clipPath id="060496c720"><path d="M 287.835938 755.425781 L 522.5625 755.425781 L 522.5625 789.925781 L 287.835938 789.925781 Z M 287.835938 755.425781 " clip-rule="nonzero"/></clipPath><clipPath id="8801bfa789"><path d="M 305.09375 755.425781 L 504.90625 755.425781 C 509.480469 755.425781 513.871094 757.242188 517.105469 760.480469 C 520.34375 763.714844 522.160156 768.105469 522.160156 772.679688 C 522.160156 777.257812 520.34375 781.644531 517.105469 784.882812 C 513.871094 788.117188 509.480469 789.9375 504.90625 789.9375 L 305.09375 789.9375 C 300.515625 789.9375 296.128906 788.117188 292.890625 784.882812 C 289.65625 781.644531 287.835938 777.257812 287.835938 772.679688 C 287.835938 768.105469 289.65625 763.714844 292.890625 760.480469 C 296.128906 757.242188 300.515625 755.425781 305.09375 755.425781 Z M 305.09375 755.425781 " clip-rule="nonzero"/></clipPath></defs><path stroke-linecap="butt" transform="matrix(0.75, -0.000628151, 0.000628151, 0.75, -14.12238, 771.184445)" fill="none" stroke-linejoin="miter" d="M 0.000877922 0.998866 L 1117.657615 0.997442 " stroke="#646262" stroke-width="2" stroke-opacity="1" stroke-miterlimit="4"/><g fill="#382a20" fill-opacity="1"><g transform="translate(150.470532, 174.269574)"><g><path d="M 41.15625 0 L 9.171875 0 L 9.171875 -131.0625 L 41.15625 -131.0625 C 50.769531 -131.0625 59.046875 -129.816406 65.984375 -127.328125 C 72.929688 -124.835938 78.765625 -121.425781 83.484375 -117.09375 C 88.203125 -112.769531 91.976562 -107.8125 94.8125 -102.21875 C 97.65625 -96.632812 99.6875 -90.71875 100.90625 -84.46875 C 102.132812 -78.21875 102.75 -71.90625 102.75 -65.53125 C 102.75 -59.15625 102.132812 -52.84375 100.90625 -46.59375 C 99.6875 -40.34375 97.65625 -34.421875 94.8125 -28.828125 C 91.976562 -23.242188 88.203125 -18.285156 83.484375 -13.953125 C 78.765625 -9.628906 72.929688 -6.222656 65.984375 -3.734375 C 59.046875 -1.242188 50.769531 0 41.15625 0 Z M 37.09375 -129.09375 L 28.171875 -129.09375 L 28.171875 -1.96875 L 37.09375 -1.96875 C 45.039062 -1.96875 51.765625 -3.320312 57.265625 -6.03125 C 62.773438 -8.738281 67.273438 -12.34375 70.765625 -16.84375 C 74.265625 -21.34375 76.953125 -26.390625 78.828125 -31.984375 C 80.710938 -37.578125 82.003906 -43.273438 82.703125 -49.078125 C 83.398438 -54.890625 83.75 -60.375 83.75 -65.53125 C 83.75 -70.6875 83.398438 -76.164062 82.703125 -81.96875 C 82.003906 -87.78125 80.710938 -93.484375 78.828125 -99.078125 C 76.953125 -104.671875 74.265625 -109.71875 70.765625 -114.21875 C 67.273438 -118.71875 62.773438 -122.320312 57.265625 -125.03125 C 51.765625 -127.738281 45.039062 -129.09375 37.09375 -129.09375 Z M 37.09375 -129.09375 "/></g></g></g><g fill="#382a20" fill-opacity="1"><g transform="translate(258.466087, 174.269574)"><g><path d="M 28.171875 0 L 9.171875 0 L 9.171875 -131.0625 L 75.625 -131.0625 C 80.425781 -131.0625 84.378906 -129.925781 87.484375 -127.65625 C 90.585938 -125.382812 92.925781 -122.519531 94.5 -119.0625 C 96.070312 -115.613281 96.859375 -112.097656 96.859375 -108.515625 C 96.859375 -103.273438 95.804688 -98.796875 93.703125 -95.078125 C 91.609375 -91.367188 88.921875 -88.222656 85.640625 -85.640625 C 82.367188 -83.066406 78.875 -80.925781 75.15625 -79.21875 C 71.445312 -77.519531 67.953125 -76.035156 64.671875 -74.765625 C 61.398438 -73.503906 58.710938 -72.328125 56.609375 -71.234375 C 54.515625 -70.140625 53.46875 -68.9375 53.46875 -67.625 C 53.46875 -66.3125 54.1875 -64.148438 55.625 -61.140625 C 57.070312 -58.128906 59.039062 -54.566406 61.53125 -50.453125 C 64.019531 -46.347656 66.789062 -42.046875 69.84375 -37.546875 C 72.90625 -33.046875 76.070312 -28.609375 79.34375 -24.234375 C 82.625 -19.867188 85.769531 -15.914062 88.78125 -12.375 C 91.800781 -8.84375 94.535156 -6.023438 96.984375 -3.921875 C 99.429688 -1.828125 101.3125 -0.78125 102.625 -0.78125 L 102.625 0 L 81 0 C 78.46875 0 76.523438 -0.21875 75.171875 -0.65625 C 73.816406 -1.09375 72.523438 -2.007812 71.296875 -3.40625 C 70.078125 -4.800781 68.332031 -6.984375 66.0625 -9.953125 C 63.875 -12.835938 61.507812 -16.09375 58.96875 -19.71875 C 56.4375 -23.34375 53.945312 -27.078125 51.5 -30.921875 C 49.0625 -34.773438 46.835938 -38.488281 44.828125 -42.0625 C 42.816406 -45.644531 41.21875 -48.898438 40.03125 -51.828125 C 38.851562 -54.753906 38.265625 -57.050781 38.265625 -58.71875 C 38.265625 -60.8125 39.222656 -62.6875 41.140625 -64.34375 C 43.066406 -66.007812 45.515625 -67.671875 48.484375 -69.328125 C 51.460938 -70.992188 54.65625 -72.851562 58.0625 -74.90625 C 61.46875 -76.957031 64.65625 -79.398438 67.625 -82.234375 C 70.59375 -85.078125 73.035156 -88.550781 74.953125 -92.65625 C 76.878906 -96.769531 77.84375 -101.664062 77.84375 -107.34375 C 77.84375 -111.445312 77.125 -115.132812 75.6875 -118.40625 C 74.25 -121.6875 71.929688 -124.285156 68.734375 -126.203125 C 65.546875 -128.128906 61.375 -129.09375 56.21875 -129.09375 L 28.171875 -129.09375 Z M 28.171875 0 "/></g></g></g><g fill="#382a20" fill-opacity="1"><g transform="translate(361.088068, 174.269574)"><g><path d="M 5.25 -44.03125 C 5.25 -49.625 6.644531 -54.253906 9.4375 -57.921875 C 12.226562 -61.597656 16.003906 -64.351562 20.765625 -66.1875 C 25.535156 -68.019531 30.890625 -68.9375 36.828125 -68.9375 C 41.191406 -68.9375 45.144531 -68.476562 48.6875 -67.5625 C 52.226562 -66.644531 55.523438 -65.570312 58.578125 -64.34375 C 61.640625 -63.125 64.613281 -62.054688 67.5 -61.140625 C 70.382812 -60.222656 73.351562 -59.765625 76.40625 -59.765625 C 77.894531 -59.765625 79.226562 -60.09375 80.40625 -60.75 C 81.582031 -61.40625 82.171875 -62.472656 82.171875 -63.953125 C 82.171875 -65.878906 80.945312 -67.601562 78.5 -69.125 C 76.0625 -70.65625 72.960938 -72.007812 69.203125 -73.1875 C 65.441406 -74.375 61.460938 -75.445312 57.265625 -76.40625 C 53.078125 -77.363281 49.234375 -78.28125 45.734375 -79.15625 C 41.109375 -80.289062 36.585938 -81.445312 32.171875 -82.625 C 27.765625 -83.8125 23.769531 -85.34375 20.1875 -87.21875 C 16.601562 -89.101562 13.738281 -91.59375 11.59375 -94.6875 C 9.457031 -97.789062 8.390625 -101.742188 8.390625 -106.546875 C 8.390625 -108.117188 8.757812 -110.019531 9.5 -112.25 C 10.238281 -114.476562 11.546875 -116.75 13.421875 -119.0625 C 15.304688 -121.382812 17.929688 -123.550781 21.296875 -125.5625 C 24.660156 -127.570312 28.984375 -129.207031 34.265625 -130.46875 C 39.554688 -131.738281 45.957031 -132.375 53.46875 -132.375 C 56.875 -132.375 60.675781 -132.21875 64.875 -131.90625 C 69.070312 -131.601562 73.3125 -131.101562 77.59375 -130.40625 C 81.875 -129.707031 85.78125 -128.8125 89.3125 -127.71875 C 92.851562 -126.625 95.628906 -125.25 97.640625 -123.59375 L 92.265625 -103.9375 C 89.734375 -105.769531 86.257812 -107.425781 81.84375 -108.90625 C 77.4375 -110.394531 72.5 -111.597656 67.03125 -112.515625 C 61.570312 -113.429688 56.046875 -113.890625 50.453125 -113.890625 C 40.929688 -113.890625 34.007812 -112.753906 29.6875 -110.484375 C 25.363281 -108.210938 23.203125 -104.757812 23.203125 -100.125 C 23.203125 -96.550781 24.445312 -93.601562 26.9375 -91.28125 C 29.425781 -88.96875 32.703125 -87.023438 36.765625 -85.453125 C 40.828125 -83.878906 45.300781 -82.503906 50.1875 -81.328125 C 55.082031 -80.148438 59.953125 -78.96875 64.796875 -77.78125 C 69.648438 -76.601562 74.109375 -75.207031 78.171875 -73.59375 C 82.234375 -71.976562 85.507812 -69.945312 88 -67.5 C 90.5 -65.050781 91.75 -61.945312 91.75 -58.1875 C 91.75 -54.957031 90.9375 -52.140625 89.3125 -49.734375 C 87.695312 -47.335938 85.554688 -45.460938 82.890625 -44.109375 C 80.234375 -42.753906 77.375 -42.03125 74.3125 -41.9375 C 69.507812 -41.757812 64.988281 -42.257812 60.75 -43.4375 C 56.507812 -44.625 52.441406 -46.023438 48.546875 -47.640625 C 44.660156 -49.253906 40.753906 -50.691406 36.828125 -51.953125 C 32.898438 -53.222656 28.796875 -53.859375 24.515625 -53.859375 C 18.660156 -53.859375 14.378906 -52.894531 11.671875 -50.96875 C 8.960938 -49.050781 7.609375 -46.390625 7.609375 -42.984375 C 7.609375 -38.179688 9.222656 -34.140625 12.453125 -30.859375 C 15.679688 -27.585938 20.023438 -24.988281 25.484375 -23.0625 C 30.953125 -21.144531 37.132812 -19.769531 44.03125 -18.9375 C 50.9375 -18.101562 58.0625 -17.6875 65.40625 -17.6875 C 70.90625 -17.6875 76.316406 -18.144531 81.640625 -19.0625 C 86.972656 -19.988281 91.867188 -22.328125 96.328125 -26.078125 L 88.46875 -3.28125 C 84.96875 -1.613281 81.445312 -0.429688 77.90625 0.265625 C 74.375 0.960938 70.378906 1.3125 65.921875 1.3125 C 58.054688 1.3125 50.472656 0.503906 43.171875 -1.109375 C 35.878906 -2.722656 29.394531 -5.300781 23.71875 -8.84375 C 18.039062 -12.382812 13.539062 -17.035156 10.21875 -22.796875 C 6.90625 -28.566406 5.25 -35.644531 5.25 -44.03125 Z M 5.25 -44.03125 "/></g></g></g><g fill="#382a20" fill-opacity="1"><g transform="translate(461.613056, 174.269574)"><g><path d="M 45.609375 1.3125 C 39.671875 1.3125 33.90625 0.59375 28.3125 -0.84375 C 22.71875 -2.289062 17.671875 -4.171875 13.171875 -6.484375 C 8.671875 -8.796875 5.15625 -11.222656 2.625 -13.765625 L 10.484375 -31.984375 C 15.203125 -29.097656 19.789062 -26.492188 24.25 -24.171875 C 28.707031 -21.859375 33.445312 -20.046875 38.46875 -18.734375 C 43.488281 -17.429688 49.101562 -16.78125 55.3125 -16.78125 C 58.195312 -16.78125 61.34375 -16.929688 64.75 -17.234375 C 68.15625 -17.535156 71.582031 -18.078125 75.03125 -18.859375 C 78.476562 -19.648438 81.625 -20.789062 84.46875 -22.28125 C 87.3125 -23.769531 89.582031 -25.648438 91.28125 -27.921875 C 92.988281 -30.191406 93.84375 -32.984375 93.84375 -36.296875 C 93.84375 -39.441406 92.925781 -42.019531 91.09375 -44.03125 C 89.257812 -46.039062 86.789062 -47.679688 83.6875 -48.953125 C 80.582031 -50.222656 77.109375 -51.25 73.265625 -52.03125 C 69.421875 -52.820312 65.441406 -53.5 61.328125 -54.0625 C 57.222656 -54.632812 53.25 -55.222656 49.40625 -55.828125 C 38.394531 -57.753906 29.675781 -60.421875 23.25 -63.828125 C 16.832031 -67.234375 12.25 -71.535156 9.5 -76.734375 C 6.75 -81.929688 5.375 -88.113281 5.375 -95.28125 C 5.375 -99.300781 6.203125 -103.472656 7.859375 -107.796875 C 9.523438 -112.117188 12.253906 -116.132812 16.046875 -119.84375 C 19.847656 -123.5625 24.9375 -126.578125 31.3125 -128.890625 C 37.695312 -131.210938 45.609375 -132.375 55.046875 -132.375 C 59.585938 -132.375 64.367188 -132.085938 69.390625 -131.515625 C 74.421875 -130.953125 79.140625 -130.035156 83.546875 -128.765625 C 87.960938 -127.503906 91.523438 -125.78125 94.234375 -123.59375 L 88.859375 -103.671875 C 86.328125 -105.503906 82.851562 -107.160156 78.4375 -108.640625 C 74.03125 -110.128906 69.09375 -111.332031 63.625 -112.25 C 58.164062 -113.164062 52.640625 -113.625 47.046875 -113.625 C 42.242188 -113.625 37.503906 -113.253906 32.828125 -112.515625 C 28.148438 -111.773438 23.910156 -110.617188 20.109375 -109.046875 C 16.316406 -107.472656 13.285156 -105.414062 11.015625 -102.875 C 8.742188 -100.34375 7.609375 -97.285156 7.609375 -93.703125 C 7.609375 -90.734375 8.457031 -88.332031 10.15625 -86.5 C 11.863281 -84.664062 14.132812 -83.265625 16.96875 -82.296875 C 19.8125 -81.335938 22.957031 -80.660156 26.40625 -80.265625 C 29.863281 -79.878906 33.335938 -79.617188 36.828125 -79.484375 C 40.328125 -79.359375 43.5625 -79.207031 46.53125 -79.03125 C 56.40625 -78.332031 65.078125 -76.472656 72.546875 -73.453125 C 80.015625 -70.441406 85.84375 -66.160156 90.03125 -60.609375 C 94.226562 -55.066406 96.328125 -48.1875 96.328125 -39.96875 C 96.328125 -33.59375 94.925781 -27.847656 92.125 -22.734375 C 89.332031 -17.628906 85.554688 -13.285156 80.796875 -9.703125 C 76.035156 -6.117188 70.617188 -3.382812 64.546875 -1.5 C 58.472656 0.375 52.160156 1.3125 45.609375 1.3125 Z M 45.609375 1.3125 "/></g></g></g><g fill="#382a20" fill-opacity="1"><g transform="translate(560.565284, 174.269574)"><g><path d="M 45.609375 1.3125 C 39.671875 1.3125 33.90625 0.59375 28.3125 -0.84375 C 22.71875 -2.289062 17.671875 -4.171875 13.171875 -6.484375 C 8.671875 -8.796875 5.15625 -11.222656 2.625 -13.765625 L 10.484375 -31.984375 C 15.203125 -29.097656 19.789062 -26.492188 24.25 -24.171875 C 28.707031 -21.859375 33.445312 -20.046875 38.46875 -18.734375 C 43.488281 -17.429688 49.101562 -16.78125 55.3125 -16.78125 C 58.195312 -16.78125 61.34375 -16.929688 64.75 -17.234375 C 68.15625 -17.535156 71.582031 -18.078125 75.03125 -18.859375 C 78.476562 -19.648438 81.625 -20.789062 84.46875 -22.28125 C 87.3125 -23.769531 89.582031 -25.648438 91.28125 -27.921875 C 92.988281 -30.191406 93.84375 -32.984375 93.84375 -36.296875 C 93.84375 -39.441406 92.925781 -42.019531 91.09375 -44.03125 C 89.257812 -46.039062 86.789062 -47.679688 83.6875 -48.953125 C 80.582031 -50.222656 77.109375 -51.25 73.265625 -52.03125 C 69.421875 -52.820312 65.441406 -53.5 61.328125 -54.0625 C 57.222656 -54.632812 53.25 -55.222656 49.40625 -55.828125 C 38.394531 -57.753906 29.675781 -60.421875 23.25 -63.828125 C 16.832031 -67.234375 12.25 -71.535156 9.5 -76.734375 C 6.75 -81.929688 5.375 -88.113281 5.375 -95.28125 C 5.375 -99.300781 6.203125 -103.472656 7.859375 -107.796875 C 9.523438 -112.117188 12.253906 -116.132812 16.046875 -119.84375 C 19.847656 -123.5625 24.9375 -126.578125 31.3125 -128.890625 C 37.695312 -131.210938 45.609375 -132.375 55.046875 -132.375 C 59.585938 -132.375 64.367188 -132.085938 69.390625 -131.515625 C 74.421875 -130.953125 79.140625 -130.035156 83.546875 -128.765625 C 87.960938 -127.503906 91.523438 -125.78125 94.234375 -123.59375 L 88.859375 -103.671875 C 86.328125 -105.503906 82.851562 -107.160156 78.4375 -108.640625 C 74.03125 -110.128906 69.09375 -111.332031 63.625 -112.25 C 58.164062 -113.164062 52.640625 -113.625 47.046875 -113.625 C 42.242188 -113.625 37.503906 -113.253906 32.828125 -112.515625 C 28.148438 -111.773438 23.910156 -110.617188 20.109375 -109.046875 C 16.316406 -107.472656 13.285156 -105.414062 11.015625 -102.875 C 8.742188 -100.34375 7.609375 -97.285156 7.609375 -93.703125 C 7.609375 -90.734375 8.457031 -88.332031 10.15625 -86.5 C 11.863281 -84.664062 14.132812 -83.265625 16.96875 -82.296875 C 19.8125 -81.335938 22.957031 -80.660156 26.40625 -80.265625 C 29.863281 -79.878906 33.335938 -79.617188 36.828125 -79.484375 C 40.328125 -79.359375 43.5625 -79.207031 46.53125 -79.03125 C 56.40625 -78.332031 65.078125 -76.472656 72.546875 -73.453125 C 80.015625 -70.441406 85.84375 -66.160156 90.03125 -60.609375 C 94.226562 -55.066406 96.328125 -48.1875 96.328125 -39.96875 C 96.328125 -33.59375 94.925781 -27.847656 92.125 -22.734375 C 89.332031 -17.628906 85.554688 -13.285156 80.796875 -9.703125 C 76.035156 -6.117188 70.617188 -3.382812 64.546875 -1.5 C 58.472656 0.375 52.160156 1.3125 45.609375 1.3125 Z M 45.609375 1.3125 "/></g></g></g><g fill="#382a20" fill-opacity="1"><g transform="translate(126.292966, 368.932559)"><g><path d="M 61.34375 1.3125 C 51.988281 1.3125 43.796875 -0.539062 36.765625 -4.25 C 29.734375 -7.96875 23.878906 -13.0625 19.203125 -19.53125 C 14.523438 -26 11.03125 -33.359375 8.71875 -41.609375 C 6.40625 -49.867188 5.25 -58.539062 5.25 -67.625 C 5.25 -77.0625 6.578125 -85.710938 9.234375 -93.578125 C 11.898438 -101.441406 15.789062 -108.28125 20.90625 -114.09375 C 26.019531 -119.90625 32.242188 -124.40625 39.578125 -127.59375 C 46.921875 -130.78125 55.222656 -132.375 64.484375 -132.375 C 69.023438 -132.375 73.457031 -131.78125 77.78125 -130.59375 C 82.101562 -129.414062 85.96875 -127.84375 89.375 -125.875 C 92.789062 -123.914062 95.285156 -121.671875 96.859375 -119.140625 L 84.015625 -103.796875 C 78.859375 -109.910156 72.738281 -114.847656 65.65625 -118.609375 C 58.582031 -122.367188 51.332031 -124.25 43.90625 -124.25 C 37.96875 -124.25 33.316406 -122.628906 29.953125 -119.390625 C 26.585938 -116.160156 24.226562 -111.53125 22.875 -105.5 C 21.519531 -99.476562 20.84375 -92.269531 20.84375 -83.875 C 20.84375 -76.28125 21.847656 -68.570312 23.859375 -60.75 C 25.867188 -52.925781 28.578125 -45.453125 31.984375 -38.328125 C 35.390625 -31.210938 39.253906 -24.859375 43.578125 -19.265625 C 47.898438 -13.671875 52.375 -9.253906 57 -6.015625 C 61.632812 -2.785156 66.179688 -1.171875 70.640625 -1.171875 C 72.304688 -1.171875 74.097656 -1.519531 76.015625 -2.21875 C 77.941406 -2.925781 78.90625 -3.9375 78.90625 -5.25 L 78.90625 -70.375 L 98.171875 -70.375 L 98.171875 -9.828125 C 95.460938 -7.378906 92.578125 -5.320312 89.515625 -3.65625 C 86.453125 -2 82.710938 -0.757812 78.296875 0.0625 C 73.890625 0.894531 68.238281 1.3125 61.34375 1.3125 Z M 61.34375 1.3125 "/></g></g></g><g fill="#382a20" fill-opacity="1"><g transform="translate(233.633209, 368.932559)"><g><path d="M 28.171875 0 L 9.171875 0 L 9.171875 -131.0625 L 75.625 -131.0625 C 80.425781 -131.0625 84.378906 -129.925781 87.484375 -127.65625 C 90.585938 -125.382812 92.925781 -122.519531 94.5 -119.0625 C 96.070312 -115.613281 96.859375 -112.097656 96.859375 -108.515625 C 96.859375 -103.273438 95.804688 -98.796875 93.703125 -95.078125 C 91.609375 -91.367188 88.921875 -88.222656 85.640625 -85.640625 C 82.367188 -83.066406 78.875 -80.925781 75.15625 -79.21875 C 71.445312 -77.519531 67.953125 -76.035156 64.671875 -74.765625 C 61.398438 -73.503906 58.710938 -72.328125 56.609375 -71.234375 C 54.515625 -70.140625 53.46875 -68.9375 53.46875 -67.625 C 53.46875 -66.3125 54.1875 -64.148438 55.625 -61.140625 C 57.070312 -58.128906 59.039062 -54.566406 61.53125 -50.453125 C 64.019531 -46.347656 66.789062 -42.046875 69.84375 -37.546875 C 72.90625 -33.046875 76.070312 -28.609375 79.34375 -24.234375 C 82.625 -19.867188 85.769531 -15.914062 88.78125 -12.375 C 91.800781 -8.84375 94.535156 -6.023438 96.984375 -3.921875 C 99.429688 -1.828125 101.3125 -0.78125 102.625 -0.78125 L 102.625 0 L 81 0 C 78.46875 0 76.523438 -0.21875 75.171875 -0.65625 C 73.816406 -1.09375 72.523438 -2.007812 71.296875 -3.40625 C 70.078125 -4.800781 68.332031 -6.984375 66.0625 -9.953125 C 63.875 -12.835938 61.507812 -16.09375 58.96875 -19.71875 C 56.4375 -23.34375 53.945312 -27.078125 51.5 -30.921875 C 49.0625 -34.773438 46.835938 -38.488281 44.828125 -42.0625 C 42.816406 -45.644531 41.21875 -48.898438 40.03125 -51.828125 C 38.851562 -54.753906 38.265625 -57.050781 38.265625 -58.71875 C 38.265625 -60.8125 39.222656 -62.6875 41.140625 -64.34375 C 43.066406 -66.007812 45.515625 -67.671875 48.484375 -69.328125 C 51.460938 -70.992188 54.65625 -72.851562 58.0625 -74.90625 C 61.46875 -76.957031 64.65625 -79.398438 67.625 -82.234375 C 70.59375 -85.078125 73.035156 -88.550781 74.953125 -92.65625 C 76.878906 -96.769531 77.84375 -101.664062 77.84375 -107.34375 C 77.84375 -111.445312 77.125 -115.132812 75.6875 -118.40625 C 74.25 -121.6875 71.929688 -124.285156 68.734375 -126.203125 C 65.546875 -128.128906 61.375 -129.09375 56.21875 -129.09375 L 28.171875 -129.09375 Z M 28.171875 0 "/></g></g></g><g fill="#382a20" fill-opacity="1"><g transform="translate(336.25519, 368.932559)"><g><path d="M 5.25 -44.03125 C 5.25 -49.625 6.644531 -54.253906 9.4375 -57.921875 C 12.226562 -61.597656 16.003906 -64.351562 20.765625 -66.1875 C 25.535156 -68.019531 30.890625 -68.9375 36.828125 -68.9375 C 41.191406 -68.9375 45.144531 -68.476562 48.6875 -67.5625 C 52.226562 -66.644531 55.523438 -65.570312 58.578125 -64.34375 C 61.640625 -63.125 64.613281 -62.054688 67.5 -61.140625 C 70.382812 -60.222656 73.351562 -59.765625 76.40625 -59.765625 C 77.894531 -59.765625 79.226562 -60.09375 80.40625 -60.75 C 81.582031 -61.40625 82.171875 -62.472656 82.171875 -63.953125 C 82.171875 -65.878906 80.945312 -67.601562 78.5 -69.125 C 76.0625 -70.65625 72.960938 -72.007812 69.203125 -73.1875 C 65.441406 -74.375 61.460938 -75.445312 57.265625 -76.40625 C 53.078125 -77.363281 49.234375 -78.28125 45.734375 -79.15625 C 41.109375 -80.289062 36.585938 -81.445312 32.171875 -82.625 C 27.765625 -83.8125 23.769531 -85.34375 20.1875 -87.21875 C 16.601562 -89.101562 13.738281 -91.59375 11.59375 -94.6875 C 9.457031 -97.789062 8.390625 -101.742188 8.390625 -106.546875 C 8.390625 -108.117188 8.757812 -110.019531 9.5 -112.25 C 10.238281 -114.476562 11.546875 -116.75 13.421875 -119.0625 C 15.304688 -121.382812 17.929688 -123.550781 21.296875 -125.5625 C 24.660156 -127.570312 28.984375 -129.207031 34.265625 -130.46875 C 39.554688 -131.738281 45.957031 -132.375 53.46875 -132.375 C 56.875 -132.375 60.675781 -132.21875 64.875 -131.90625 C 69.070312 -131.601562 73.3125 -131.101562 77.59375 -130.40625 C 81.875 -129.707031 85.78125 -128.8125 89.3125 -127.71875 C 92.851562 -126.625 95.628906 -125.25 97.640625 -123.59375 L 92.265625 -103.9375 C 89.734375 -105.769531 86.257812 -107.425781 81.84375 -108.90625 C 77.4375 -110.394531 72.5 -111.597656 67.03125 -112.515625 C 61.570312 -113.429688 56.046875 -113.890625 50.453125 -113.890625 C 40.929688 -113.890625 34.007812 -112.753906 29.6875 -110.484375 C 25.363281 -108.210938 23.203125 -104.757812 23.203125 -100.125 C 23.203125 -96.550781 24.445312 -93.601562 26.9375 -91.28125 C 29.425781 -88.96875 32.703125 -87.023438 36.765625 -85.453125 C 40.828125 -83.878906 45.300781 -82.503906 50.1875 -81.328125 C 55.082031 -80.148438 59.953125 -78.96875 64.796875 -77.78125 C 69.648438 -76.601562 74.109375 -75.207031 78.171875 -73.59375 C 82.234375 -71.976562 85.507812 -69.945312 88 -67.5 C 90.5 -65.050781 91.75 -61.945312 91.75 -58.1875 C 91.75 -54.957031 90.9375 -52.140625 89.3125 -49.734375 C 87.695312 -47.335938 85.554688 -45.460938 82.890625 -44.109375 C 80.234375 -42.753906 77.375 -42.03125 74.3125 -41.9375 C 69.507812 -41.757812 64.988281 -42.257812 60.75 -43.4375 C 56.507812 -44.625 52.441406 -46.023438 48.546875 -47.640625 C 44.660156 -49.253906 40.753906 -50.691406 36.828125 -51.953125 C 32.898438 -53.222656 28.796875 -53.859375 24.515625 -53.859375 C 18.660156 -53.859375 14.378906 -52.894531 11.671875 -50.96875 C 8.960938 -49.050781 7.609375 -46.390625 7.609375 -42.984375 C 7.609375 -38.179688 9.222656 -34.140625 12.453125 -30.859375 C 15.679688 -27.585938 20.023438 -24.988281 25.484375 -23.0625 C 30.953125 -21.144531 37.132812 -19.769531 44.03125 -18.9375 C 50.9375 -18.101562 58.0625 -17.6875 65.40625 -17.6875 C 70.90625 -17.6875 76.316406 -18.144531 81.640625 -19.0625 C 86.972656 -19.988281 91.867188 -22.328125 96.328125 -26.078125 L 88.46875 -3.28125 C 84.96875 -1.613281 81.445312 -0.429688 77.90625 0.265625 C 74.375 0.960938 70.378906 1.3125 65.921875 1.3125 C 58.054688 1.3125 50.472656 0.503906 43.171875 -1.109375 C 35.878906 -2.722656 29.394531 -5.300781 23.71875 -8.84375 C 18.039062 -12.382812 13.539062 -17.035156 10.21875 -22.796875 C 6.90625 -28.566406 5.25 -35.644531 5.25 -44.03125 Z M 5.25 -44.03125 "/></g></g></g><g fill="#382a20" fill-opacity="1"><g transform="translate(436.780179, 368.932559)"><g><path d="M 5.25 -44.03125 C 5.25 -49.625 6.644531 -54.253906 9.4375 -57.921875 C 12.226562 -61.597656 16.003906 -64.351562 20.765625 -66.1875 C 25.535156 -68.019531 30.890625 -68.9375 36.828125 -68.9375 C 41.191406 -68.9375 45.144531 -68.476562 48.6875 -67.5625 C 52.226562 -66.644531 55.523438 -65.570312 58.578125 -64.34375 C 61.640625 -63.125 64.613281 -62.054688 67.5 -61.140625 C 70.382812 -60.222656 73.351562 -59.765625 76.40625 -59.765625 C 77.894531 -59.765625 79.226562 -60.09375 80.40625 -60.75 C 81.582031 -61.40625 82.171875 -62.472656 82.171875 -63.953125 C 82.171875 -65.878906 80.945312 -67.601562 78.5 -69.125 C 76.0625 -70.65625 72.960938 -72.007812 69.203125 -73.1875 C 65.441406 -74.375 61.460938 -75.445312 57.265625 -76.40625 C 53.078125 -77.363281 49.234375 -78.28125 45.734375 -79.15625 C 41.109375 -80.289062 36.585938 -81.445312 32.171875 -82.625 C 27.765625 -83.8125 23.769531 -85.34375 20.1875 -87.21875 C 16.601562 -89.101562 13.738281 -91.59375 11.59375 -94.6875 C 9.457031 -97.789062 8.390625 -101.742188 8.390625 -106.546875 C 8.390625 -108.117188 8.757812 -110.019531 9.5 -112.25 C 10.238281 -114.476562 11.546875 -116.75 13.421875 -119.0625 C 15.304688 -121.382812 17.929688 -123.550781 21.296875 -125.5625 C 24.660156 -127.570312 28.984375 -129.207031 34.265625 -130.46875 C 39.554688 -131.738281 45.957031 -132.375 53.46875 -132.375 C 56.875 -132.375 60.675781 -132.21875 64.875 -131.90625 C 69.070312 -131.601562 73.3125 -131.101562 77.59375 -130.40625 C 81.875 -129.707031 85.78125 -128.8125 89.3125 -127.71875 C 92.851562 -126.625 95.628906 -125.25 97.640625 -123.59375 L 92.265625 -103.9375 C 89.734375 -105.769531 86.257812 -107.425781 81.84375 -108.90625 C 77.4375 -110.394531 72.5 -111.597656 67.03125 -112.515625 C 61.570312 -113.429688 56.046875 -113.890625 50.453125 -113.890625 C 40.929688 -113.890625 34.007812 -112.753906 29.6875 -110.484375 C 25.363281 -108.210938 23.203125 -104.757812 23.203125 -100.125 C 23.203125 -96.550781 24.445312 -93.601562 26.9375 -91.28125 C 29.425781 -88.96875 32.703125 -87.023438 36.765625 -85.453125 C 40.828125 -83.878906 45.300781 -82.503906 50.1875 -81.328125 C 55.082031 -80.148438 59.953125 -78.96875 64.796875 -77.78125 C 69.648438 -76.601562 74.109375 -75.207031 78.171875 -73.59375 C 82.234375 -71.976562 85.507812 -69.945312 88 -67.5 C 90.5 -65.050781 91.75 -61.945312 91.75 -58.1875 C 91.75 -54.957031 90.9375 -52.140625 89.3125 -49.734375 C 87.695312 -47.335938 85.554688 -45.460938 82.890625 -44.109375 C 80.234375 -42.753906 77.375 -42.03125 74.3125 -41.9375 C 69.507812 -41.757812 64.988281 -42.257812 60.75 -43.4375 C 56.507812 -44.625 52.441406 -46.023438 48.546875 -47.640625 C 44.660156 -49.253906 40.753906 -50.691406 36.828125 -51.953125 C 32.898438 -53.222656 28.796875 -53.859375 24.515625 -53.859375 C 18.660156 -53.859375 14.378906 -52.894531 11.671875 -50.96875 C 8.960938 -49.050781 7.609375 -46.390625 7.609375 -42.984375 C 7.609375 -38.179688 9.222656 -34.140625 12.453125 -30.859375 C 15.679688 -27.585938 20.023438 -24.988281 25.484375 -23.0625 C 30.953125 -21.144531 37.132812 -19.769531 44.03125 -18.9375 C 50.9375 -18.101562 58.0625 -17.6875 65.40625 -17.6875 C 70.90625 -17.6875 76.316406 -18.144531 81.640625 -19.0625 C 86.972656 -19.988281 91.867188 -22.328125 96.328125 -26.078125 L 88.46875 -3.28125 C 84.96875 -1.613281 81.445312 -0.429688 77.90625 0.265625 C 74.375 0.960938 70.378906 1.3125 65.921875 1.3125 C 58.054688 1.3125 50.472656 0.503906 43.171875 -1.109375 C 35.878906 -2.722656 29.394531 -5.300781 23.71875 -8.84375 C 18.039062 -12.382812 13.539062 -17.035156 10.21875 -22.796875 C 6.90625 -28.566406 5.25 -35.644531 5.25 -44.03125 Z M 5.25 -44.03125 "/></g></g></g><g fill="#382a20" fill-opacity="1"><g transform="translate(537.305167, 368.932559)"><g><path d="M 9.171875 0 L 9.171875 -131.0625 C 9.867188 -131.5 10.804688 -131.828125 11.984375 -132.046875 C 13.171875 -132.265625 14.203125 -132.375 15.078125 -132.375 C 19.003906 -132.375 22.382812 -131.519531 25.21875 -129.8125 C 28.0625 -128.113281 30.6875 -125.515625 33.09375 -122.015625 C 35.5 -118.523438 38.03125 -114.113281 40.6875 -108.78125 C 43.351562 -103.445312 46.410156 -97.175781 49.859375 -89.96875 C 53.316406 -82.757812 57.492188 -74.613281 62.390625 -65.53125 C 68.941406 -53.382812 74.441406 -43.925781 78.890625 -37.15625 C 83.347656 -30.382812 86.976562 -25.46875 89.78125 -22.40625 C 92.132812 -19.875 93.988281 -18.300781 95.34375 -17.6875 C 96.695312 -17.082031 97.679688 -16.910156 98.296875 -17.171875 C 98.910156 -17.429688 99.21875 -17.5625 99.21875 -17.5625 C 99.21875 -33.90625 98.296875 -48.78125 96.453125 -62.1875 C 94.617188 -75.601562 91.867188 -87.945312 88.203125 -99.21875 C 84.535156 -110.488281 79.90625 -121.101562 74.3125 -131.0625 L 101.578125 -131.0625 L 101.578125 0 C 100.878906 0.351562 99.960938 0.660156 98.828125 0.921875 C 97.691406 1.179688 96.640625 1.3125 95.671875 1.3125 C 91.648438 1.3125 87.566406 -0.210938 83.421875 -3.265625 C 79.273438 -6.328125 75.082031 -10.523438 70.84375 -15.859375 C 66.601562 -21.191406 62.40625 -27.285156 58.25 -34.140625 C 54.101562 -41.003906 50.019531 -48.28125 46 -55.96875 C 39.707031 -67.9375 34.640625 -77.828125 30.796875 -85.640625 C 26.953125 -93.460938 24.070312 -99.210938 22.15625 -102.890625 C 20.3125 -106.378906 18.710938 -108.972656 17.359375 -110.671875 C 16.003906 -112.378906 14.910156 -113.492188 14.078125 -114.015625 C 13.253906 -114.546875 12.625 -114.765625 12.1875 -114.671875 C 11.75 -114.585938 11.53125 -114.546875 11.53125 -114.546875 C 11.53125 -97.859375 12.445312 -82.742188 14.28125 -69.203125 C 16.113281 -55.660156 18.882812 -43.226562 22.59375 -31.90625 C 26.3125 -20.59375 30.925781 -9.957031 36.4375 0 Z M 9.171875 0 "/></g></g></g><g fill="#382a20" fill-opacity="1"><g transform="translate(648.053025, 368.932559)"><g><path d="M 17.953125 1.3125 C 14.804688 1.3125 12.117188 0.195312 9.890625 -2.03125 C 7.660156 -4.257812 6.546875 -6.945312 6.546875 -10.09375 C 6.546875 -13.144531 7.660156 -15.785156 9.890625 -18.015625 C 12.117188 -20.242188 14.804688 -21.359375 17.953125 -21.359375 C 21.796875 -21.359375 24.613281 -20.003906 26.40625 -17.296875 C 28.195312 -14.585938 29.09375 -11.488281 29.09375 -8 C 29.09375 -4.414062 28.476562 -1.507812 27.25 0.71875 C 26.03125 2.945312 24.523438 4.691406 22.734375 5.953125 C 20.941406 7.222656 19.148438 8.117188 17.359375 8.640625 C 15.566406 9.171875 14.0625 9.5 12.84375 9.625 C 11.625 9.757812 11.015625 9.828125 11.015625 9.828125 L 11.015625 8.78125 C 13.546875 8.78125 15.597656 8.164062 17.171875 6.9375 C 18.742188 5.71875 19.53125 4.453125 19.53125 3.140625 C 19.53125 1.921875 19.003906 1.3125 17.953125 1.3125 Z M 17.953125 1.3125 "/></g></g></g><g fill="#382a20" fill-opacity="1"><g transform="translate(182.110527, 548.00332)"><g/></g></g><g fill="#382a20" fill-opacity="1"><g transform="translate(234.540212, 548.00332)"><g><path d="M 9.171875 0 L 9.171875 -131.0625 L 28.171875 -131.0625 L 28.171875 -1.96875 C 33.941406 -1.96875 39.84375 -2.554688 45.875 -3.734375 C 51.90625 -4.910156 57.691406 -6.4375 63.234375 -8.3125 C 68.785156 -10.195312 73.722656 -12.296875 78.046875 -14.609375 C 82.367188 -16.929688 85.625 -19.226562 87.8125 -21.5 L 87.8125 0 Z M 9.171875 0 "/></g></g></g><g fill="#382a20" fill-opacity="1"><g transform="translate(327.463566, 548.00332)"><g><path d="M 9.171875 0 L 9.171875 -131.0625 L 28.171875 -131.0625 L 28.171875 0 Z M 9.171875 0 "/></g></g></g><g fill="#382a20" fill-opacity="1"><g transform="translate(364.816393, 548.00332)"><g><path d="M 2.625 -131.0625 L 31.1875 -131.0625 C 30.75 -129.132812 30.398438 -125.988281 30.140625 -121.625 C 29.878906 -117.257812 29.726562 -112.039062 29.6875 -105.96875 C 29.644531 -99.894531 29.734375 -93.40625 29.953125 -86.5 C 30.171875 -79.59375 30.5625 -72.601562 31.125 -65.53125 C 31.695312 -58.457031 32.414062 -51.6875 33.28125 -45.21875 C 34.15625 -38.75 35.226562 -32.976562 36.5 -27.90625 C 37.769531 -22.84375 39.253906 -18.828125 40.953125 -15.859375 C 42.660156 -12.890625 44.609375 -11.40625 46.796875 -11.40625 C 48.273438 -11.40625 49.453125 -11.753906 50.328125 -12.453125 C 51.203125 -13.148438 51.945312 -14.414062 52.5625 -16.25 C 55.351562 -24.988281 57.90625 -33.132812 60.21875 -40.6875 C 62.539062 -48.25 64.769531 -55.546875 66.90625 -62.578125 C 69.050781 -69.617188 71.171875 -76.695312 73.265625 -83.8125 C 75.359375 -90.9375 77.5625 -98.363281 79.875 -106.09375 C 82.195312 -113.820312 84.710938 -122.144531 87.421875 -131.0625 L 107.46875 -131.0625 C 104.757812 -122.144531 102.25 -113.820312 99.9375 -106.09375 C 97.625 -98.363281 95.375 -90.957031 93.1875 -83.875 C 91 -76.800781 88.832031 -69.722656 86.6875 -62.640625 C 84.550781 -55.566406 82.328125 -48.25 80.015625 -40.6875 C 77.703125 -33.132812 75.234375 -24.988281 72.609375 -16.25 C 71.734375 -13.28125 70.53125 -10.441406 69 -7.734375 C 67.46875 -5.023438 65.566406 -2.835938 63.296875 -1.171875 C 61.023438 0.484375 58.273438 1.3125 55.046875 1.3125 C 51.898438 1.3125 49.164062 0.484375 46.84375 -1.171875 C 44.53125 -2.835938 42.628906 -5.023438 41.140625 -7.734375 C 39.660156 -10.441406 38.441406 -13.28125 37.484375 -16.25 C 34.773438 -24.988281 32.285156 -33.132812 30.015625 -40.6875 C 27.742188 -48.25 25.535156 -55.566406 23.390625 -62.640625 C 21.253906 -69.722656 19.113281 -76.800781 16.96875 -83.875 C 14.832031 -90.957031 12.582031 -98.363281 10.21875 -106.09375 C 7.863281 -113.820312 5.332031 -122.144531 2.625 -131.0625 Z M 2.625 -131.0625 "/></g></g></g><g fill="#382a20" fill-opacity="1"><g transform="translate(474.908928, 548.00332)"><g><path d="M 5.25 -44.03125 C 5.25 -49.625 6.644531 -54.253906 9.4375 -57.921875 C 12.226562 -61.597656 16.003906 -64.351562 20.765625 -66.1875 C 25.535156 -68.019531 30.890625 -68.9375 36.828125 -68.9375 C 41.191406 -68.9375 45.144531 -68.476562 48.6875 -67.5625 C 52.226562 -66.644531 55.523438 -65.570312 58.578125 -64.34375 C 61.640625 -63.125 64.613281 -62.054688 67.5 -61.140625 C 70.382812 -60.222656 73.351562 -59.765625 76.40625 -59.765625 C 77.894531 -59.765625 79.226562 -60.09375 80.40625 -60.75 C 81.582031 -61.40625 82.171875 -62.472656 82.171875 -63.953125 C 82.171875 -65.878906 80.945312 -67.601562 78.5 -69.125 C 76.0625 -70.65625 72.960938 -72.007812 69.203125 -73.1875 C 65.441406 -74.375 61.460938 -75.445312 57.265625 -76.40625 C 53.078125 -77.363281 49.234375 -78.28125 45.734375 -79.15625 C 41.109375 -80.289062 36.585938 -81.445312 32.171875 -82.625 C 27.765625 -83.8125 23.769531 -85.34375 20.1875 -87.21875 C 16.601562 -89.101562 13.738281 -91.59375 11.59375 -94.6875 C 9.457031 -97.789062 8.390625 -101.742188 8.390625 -106.546875 C 8.390625 -108.117188 8.757812 -110.019531 9.5 -112.25 C 10.238281 -114.476562 11.546875 -116.75 13.421875 -119.0625 C 15.304688 -121.382812 17.929688 -123.550781 21.296875 -125.5625 C 24.660156 -127.570312 28.984375 -129.207031 34.265625 -130.46875 C 39.554688 -131.738281 45.957031 -132.375 53.46875 -132.375 C 56.875 -132.375 60.675781 -132.21875 64.875 -131.90625 C 69.070312 -131.601562 73.3125 -131.101562 77.59375 -130.40625 C 81.875 -129.707031 85.78125 -128.8125 89.3125 -127.71875 C 92.851562 -126.625 95.628906 -125.25 97.640625 -123.59375 L 92.265625 -103.9375 C 89.734375 -105.769531 86.257812 -107.425781 81.84375 -108.90625 C 77.4375 -110.394531 72.5 -111.597656 67.03125 -112.515625 C 61.570312 -113.429688 56.046875 -113.890625 50.453125 -113.890625 C 40.929688 -113.890625 34.007812 -112.753906 29.6875 -110.484375 C 25.363281 -108.210938 23.203125 -104.757812 23.203125 -100.125 C 23.203125 -96.550781 24.445312 -93.601562 26.9375 -91.28125 C 29.425781 -88.96875 32.703125 -87.023438 36.765625 -85.453125 C 40.828125 -83.878906 45.300781 -82.503906 50.1875 -81.328125 C 55.082031 -80.148438 59.953125 -78.96875 64.796875 -77.78125 C 69.648438 -76.601562 74.109375 -75.207031 78.171875 -73.59375 C 82.234375 -71.976562 85.507812 -69.945312 88 -67.5 C 90.5 -65.050781 91.75 -61.945312 91.75 -58.1875 C 91.75 -54.957031 90.9375 -52.140625 89.3125 -49.734375 C 87.695312 -47.335938 85.554688 -45.460938 82.890625 -44.109375 C 80.234375 -42.753906 77.375 -42.03125 74.3125 -41.9375 C 69.507812 -41.757812 64.988281 -42.257812 60.75 -43.4375 C 56.507812 -44.625 52.441406 -46.023438 48.546875 -47.640625 C 44.660156 -49.253906 40.753906 -50.691406 36.828125 -51.953125 C 32.898438 -53.222656 28.796875 -53.859375 24.515625 -53.859375 C 18.660156 -53.859375 14.378906 -52.894531 11.671875 -50.96875 C 8.960938 -49.050781 7.609375 -46.390625 7.609375 -42.984375 C 7.609375 -38.179688 9.222656 -34.140625 12.453125 -30.859375 C 15.679688 -27.585938 20.023438 -24.988281 25.484375 -23.0625 C 30.953125 -21.144531 37.132812 -19.769531 44.03125 -18.9375 C 50.9375 -18.101562 58.0625 -17.6875 65.40625 -17.6875 C 70.90625 -17.6875 76.316406 -18.144531 81.640625 -19.0625 C 86.972656 -19.988281 91.867188 -22.328125 96.328125 -26.078125 L 88.46875 -3.28125 C 84.96875 -1.613281 81.445312 -0.429688 77.90625 0.265625 C 74.375 0.960938 70.378906 1.3125 65.921875 1.3125 C 58.054688 1.3125 50.472656 0.503906 43.171875 -1.109375 C 35.878906 -2.722656 29.394531 -5.300781 23.71875 -8.84375 C 18.039062 -12.382812 13.539062 -17.035156 10.21875 -22.796875 C 6.90625 -28.566406 5.25 -35.644531 5.25 -44.03125 Z M 5.25 -44.03125 "/></g></g></g><g fill="#382a20" fill-opacity="1"><g transform="translate(575.438636, 548.00332)"><g/></g></g><g fill="#382a20" fill-opacity="1"><g transform="translate(146.542965, 727.429783)"><g><path d="M 60.421875 1.3125 C 51.335938 1.3125 43.34375 -0.539062 36.4375 -4.25 C 29.53125 -7.96875 23.757812 -13.035156 19.125 -19.453125 C 14.5 -25.878906 11.03125 -33.195312 8.71875 -41.40625 C 6.40625 -49.625 5.25 -58.234375 5.25 -67.234375 C 5.25 -76.585938 6.601562 -85.21875 9.3125 -93.125 C 12.019531 -101.03125 15.972656 -107.929688 21.171875 -113.828125 C 26.367188 -119.722656 32.65625 -124.285156 40.03125 -127.515625 C 47.414062 -130.753906 55.738281 -132.375 65 -132.375 C 69.550781 -132.375 73.941406 -131.71875 78.171875 -130.40625 C 82.410156 -129.09375 86.191406 -127.390625 89.515625 -125.296875 C 92.835938 -123.203125 95.285156 -120.929688 96.859375 -118.484375 L 84.015625 -103.140625 C 78.859375 -109.265625 72.738281 -114.179688 65.65625 -117.890625 C 58.582031 -121.597656 51.332031 -123.453125 43.90625 -123.453125 C 37.96875 -123.453125 32.878906 -121.617188 28.640625 -117.953125 C 24.398438 -114.285156 21.164062 -109.238281 18.9375 -102.8125 C 16.707031 -96.394531 15.59375 -88.992188 15.59375 -80.609375 C 15.59375 -72.304688 16.578125 -64.394531 18.546875 -56.875 C 20.515625 -49.363281 23.460938 -42.703125 27.390625 -36.890625 C 31.328125 -31.078125 36.15625 -26.488281 41.875 -23.125 C 47.59375 -19.769531 54.164062 -18.09375 61.59375 -18.09375 C 67.101562 -18.09375 71.710938 -18.769531 75.421875 -20.125 C 79.140625 -21.476562 82.066406 -23.003906 84.203125 -24.703125 C 86.347656 -26.410156 87.878906 -27.941406 88.796875 -29.296875 C 89.710938 -30.648438 90.171875 -31.328125 90.171875 -31.328125 L 100.65625 -14.546875 C 100.65625 -14.546875 99.847656 -13.738281 98.234375 -12.125 C 96.617188 -10.507812 94.148438 -8.671875 90.828125 -6.609375 C 87.503906 -4.554688 83.304688 -2.722656 78.234375 -1.109375 C 73.171875 0.503906 67.234375 1.3125 60.421875 1.3125 Z M 60.421875 1.3125 "/></g></g></g><g fill="#382a20" fill-opacity="1"><g transform="translate(249.164946, 727.429783)"><g><path d="M 9.171875 0 L 9.171875 -131.0625 L 28.171875 -131.0625 L 28.171875 -1.96875 C 33.941406 -1.96875 39.84375 -2.554688 45.875 -3.734375 C 51.90625 -4.910156 57.691406 -6.4375 63.234375 -8.3125 C 68.785156 -10.195312 73.722656 -12.296875 78.046875 -14.609375 C 82.367188 -16.929688 85.625 -19.226562 87.8125 -21.5 L 87.8125 0 Z M 9.171875 0 "/></g></g></g><g fill="#382a20" fill-opacity="1"><g transform="translate(342.088289, 727.429783)"><g><path d="M 5.25 -44.03125 C 5.25 -49.625 6.644531 -54.253906 9.4375 -57.921875 C 12.226562 -61.597656 16.003906 -64.351562 20.765625 -66.1875 C 25.535156 -68.019531 30.890625 -68.9375 36.828125 -68.9375 C 41.191406 -68.9375 45.144531 -68.476562 48.6875 -67.5625 C 52.226562 -66.644531 55.523438 -65.570312 58.578125 -64.34375 C 61.640625 -63.125 64.613281 -62.054688 67.5 -61.140625 C 70.382812 -60.222656 73.351562 -59.765625 76.40625 -59.765625 C 77.894531 -59.765625 79.226562 -60.09375 80.40625 -60.75 C 81.582031 -61.40625 82.171875 -62.472656 82.171875 -63.953125 C 82.171875 -65.878906 80.945312 -67.601562 78.5 -69.125 C 76.0625 -70.65625 72.960938 -72.007812 69.203125 -73.1875 C 65.441406 -74.375 61.460938 -75.445312 57.265625 -76.40625 C 53.078125 -77.363281 49.234375 -78.28125 45.734375 -79.15625 C 41.109375 -80.289062 36.585938 -81.445312 32.171875 -82.625 C 27.765625 -83.8125 23.769531 -85.34375 20.1875 -87.21875 C 16.601562 -89.101562 13.738281 -91.59375 11.59375 -94.6875 C 9.457031 -97.789062 8.390625 -101.742188 8.390625 -106.546875 C 8.390625 -108.117188 8.757812 -110.019531 9.5 -112.25 C 10.238281 -114.476562 11.546875 -116.75 13.421875 -119.0625 C 15.304688 -121.382812 17.929688 -123.550781 21.296875 -125.5625 C 24.660156 -127.570312 28.984375 -129.207031 34.265625 -130.46875 C 39.554688 -131.738281 45.957031 -132.375 53.46875 -132.375 C 56.875 -132.375 60.675781 -132.21875 64.875 -131.90625 C 69.070312 -131.601562 73.3125 -131.101562 77.59375 -130.40625 C 81.875 -129.707031 85.78125 -128.8125 89.3125 -127.71875 C 92.851562 -126.625 95.628906 -125.25 97.640625 -123.59375 L 92.265625 -103.9375 C 89.734375 -105.769531 86.257812 -107.425781 81.84375 -108.90625 C 77.4375 -110.394531 72.5 -111.597656 67.03125 -112.515625 C 61.570312 -113.429688 56.046875 -113.890625 50.453125 -113.890625 C 40.929688 -113.890625 34.007812 -112.753906 29.6875 -110.484375 C 25.363281 -108.210938 23.203125 -104.757812 23.203125 -100.125 C 23.203125 -96.550781 24.445312 -93.601562 26.9375 -91.28125 C 29.425781 -88.96875 32.703125 -87.023438 36.765625 -85.453125 C 40.828125 -83.878906 45.300781 -82.503906 50.1875 -81.328125 C 55.082031 -80.148438 59.953125 -78.96875 64.796875 -77.78125 C 69.648438 -76.601562 74.109375 -75.207031 78.171875 -73.59375 C 82.234375 -71.976562 85.507812 -69.945312 88 -67.5 C 90.5 -65.050781 91.75 -61.945312 91.75 -58.1875 C 91.75 -54.957031 90.9375 -52.140625 89.3125 -49.734375 C 87.695312 -47.335938 85.554688 -45.460938 82.890625 -44.109375 C 80.234375 -42.753906 77.375 -42.03125 74.3125 -41.9375 C 69.507812 -41.757812 64.988281 -42.257812 60.75 -43.4375 C 56.507812 -44.625 52.441406 -46.023438 48.546875 -47.640625 C 44.660156 -49.253906 40.753906 -50.691406 36.828125 -51.953125 C 32.898438 -53.222656 28.796875 -53.859375 24.515625 -53.859375 C 18.660156 -53.859375 14.378906 -52.894531 11.671875 -50.96875 C 8.960938 -49.050781 7.609375 -46.390625 7.609375 -42.984375 C 7.609375 -38.179688 9.222656 -34.140625 12.453125 -30.859375 C 15.679688 -27.585938 20.023438 -24.988281 25.484375 -23.0625 C 30.953125 -21.144531 37.132812 -19.769531 44.03125 -18.9375 C 50.9375 -18.101562 58.0625 -17.6875 65.40625 -17.6875 C 70.90625 -17.6875 76.316406 -18.144531 81.640625 -19.0625 C 86.972656 -19.988281 91.867188 -22.328125 96.328125 -26.078125 L 88.46875 -3.28125 C 84.96875 -1.613281 81.445312 -0.429688 77.90625 0.265625 C 74.375 0.960938 70.378906 1.3125 65.921875 1.3125 C 58.054688 1.3125 50.472656 0.503906 43.171875 -1.109375 C 35.878906 -2.722656 29.394531 -5.300781 23.71875 -8.84375 C 18.039062 -12.382812 13.539062 -17.035156 10.21875 -22.796875 C 6.90625 -28.566406 5.25 -35.644531 5.25 -44.03125 Z M 5.25 -44.03125 "/></g></g></g><g fill="#382a20" fill-opacity="1"><g transform="translate(442.613278, 727.429783)"><g><path d="M 31.1875 0 L 2.625 0 C 5.332031 -8.914062 7.863281 -17.238281 10.21875 -24.96875 C 12.582031 -32.695312 14.832031 -40.097656 16.96875 -47.171875 C 19.113281 -54.253906 21.253906 -61.332031 23.390625 -68.40625 C 25.535156 -75.488281 27.765625 -82.804688 30.078125 -90.359375 C 32.390625 -97.921875 34.859375 -106.070312 37.484375 -114.8125 C 38.441406 -117.863281 39.660156 -120.722656 41.140625 -123.390625 C 42.628906 -126.054688 44.53125 -128.21875 46.84375 -129.875 C 49.164062 -131.539062 51.898438 -132.375 55.046875 -132.375 C 58.273438 -132.375 61.023438 -131.539062 63.296875 -129.875 C 65.566406 -128.21875 67.46875 -126.054688 69 -123.390625 C 70.53125 -120.722656 71.734375 -117.863281 72.609375 -114.8125 C 75.234375 -106.070312 77.703125 -97.921875 80.015625 -90.359375 C 82.328125 -82.804688 84.550781 -75.488281 86.6875 -68.40625 C 88.832031 -61.332031 91 -54.253906 93.1875 -47.171875 C 95.375 -40.097656 97.625 -32.695312 99.9375 -24.96875 C 102.25 -17.238281 104.757812 -8.914062 107.46875 0 L 87.421875 0 C 84.710938 -9.082031 82.195312 -17.488281 79.875 -25.21875 C 77.5625 -32.957031 75.359375 -40.410156 73.265625 -47.578125 L 29.484375 -47.578125 C 29.316406 -40.328125 29.273438 -33.46875 29.359375 -27 C 29.441406 -20.53125 29.65625 -14.914062 30 -10.15625 C 30.351562 -5.394531 30.75 -2.007812 31.1875 0 Z M 29.625 -49.546875 L 72.609375 -49.546875 C 70.597656 -56.441406 68.539062 -63.273438 66.4375 -70.046875 C 64.34375 -76.816406 62.179688 -83.875 59.953125 -91.21875 C 57.734375 -98.5625 55.269531 -106.425781 52.5625 -114.8125 C 52.125 -116.289062 51.507812 -117.46875 50.71875 -118.34375 C 49.9375 -119.21875 48.800781 -119.65625 47.3125 -119.65625 C 44.957031 -119.65625 42.859375 -118.300781 41.015625 -115.59375 C 39.179688 -112.882812 37.609375 -109.191406 36.296875 -104.515625 C 34.992188 -99.847656 33.882812 -94.519531 32.96875 -88.53125 C 32.050781 -82.550781 31.328125 -76.21875 30.796875 -69.53125 C 30.273438 -62.84375 29.882812 -56.179688 29.625 -49.546875 Z M 29.625 -49.546875 "/></g></g></g><g fill="#382a20" fill-opacity="1"><g transform="translate(552.705847, 727.429783)"><g><path d="M 9.171875 0 L 9.171875 -131.0625 C 9.867188 -131.5 10.804688 -131.828125 11.984375 -132.046875 C 13.171875 -132.265625 14.203125 -132.375 15.078125 -132.375 C 19.003906 -132.375 22.382812 -131.519531 25.21875 -129.8125 C 28.0625 -128.113281 30.6875 -125.515625 33.09375 -122.015625 C 35.5 -118.523438 38.03125 -114.113281 40.6875 -108.78125 C 43.351562 -103.445312 46.410156 -97.175781 49.859375 -89.96875 C 53.316406 -82.757812 57.492188 -74.613281 62.390625 -65.53125 C 68.941406 -53.382812 74.441406 -43.925781 78.890625 -37.15625 C 83.347656 -30.382812 86.976562 -25.46875 89.78125 -22.40625 C 92.132812 -19.875 93.988281 -18.300781 95.34375 -17.6875 C 96.695312 -17.082031 97.679688 -16.910156 98.296875 -17.171875 C 98.910156 -17.429688 99.21875 -17.5625 99.21875 -17.5625 C 99.21875 -33.90625 98.296875 -48.78125 96.453125 -62.1875 C 94.617188 -75.601562 91.867188 -87.945312 88.203125 -99.21875 C 84.535156 -110.488281 79.90625 -121.101562 74.3125 -131.0625 L 101.578125 -131.0625 L 101.578125 0 C 100.878906 0.351562 99.960938 0.660156 98.828125 0.921875 C 97.691406 1.179688 96.640625 1.3125 95.671875 1.3125 C 91.648438 1.3125 87.566406 -0.210938 83.421875 -3.265625 C 79.273438 -6.328125 75.082031 -10.523438 70.84375 -15.859375 C 66.601562 -21.191406 62.40625 -27.285156 58.25 -34.140625 C 54.101562 -41.003906 50.019531 -48.28125 46 -55.96875 C 39.707031 -67.9375 34.640625 -77.828125 30.796875 -85.640625 C 26.953125 -93.460938 24.070312 -99.210938 22.15625 -102.890625 C 20.3125 -106.378906 18.710938 -108.972656 17.359375 -110.671875 C 16.003906 -112.378906 14.910156 -113.492188 14.078125 -114.015625 C 13.253906 -114.546875 12.625 -114.765625 12.1875 -114.671875 C 11.75 -114.585938 11.53125 -114.546875 11.53125 -114.546875 C 11.53125 -97.859375 12.445312 -82.742188 14.28125 -69.203125 C 16.113281 -55.660156 18.882812 -43.226562 22.59375 -31.90625 C 26.3125 -20.59375 30.925781 -9.957031 36.4375 0 Z M 9.171875 0 "/></g></g></g><g clip-path="url(#a905729598)"><g clip-path="url(#5df3b1260d)"><path fill="#edecec" d="M 287.8125 755.425781 L 522.167969 755.425781 L 522.167969 789.945312 L 287.8125 789.945312 Z M 287.8125 755.425781 " fill-opacity="1" fill-rule="nonzero"/></g></g><g clip-path="url(#060496c720)"><g clip-path="url(#8801bfa789)"><path stroke-linecap="butt" transform="matrix(0.75, 0, 0, 0.75, 287.837156, 755.424582)" fill="none" stroke-linejoin="miter" d="M 23.008793 0.00159901 L 289.425473 0.00159901 C 295.524432 0.00159901 301.378599 2.423474 305.691099 6.741183 C 310.008807 11.053683 312.430682 16.90785 312.430682 23.006808 C 312.430682 29.110975 310.008807 34.959934 305.691099 39.277643 C 301.378599 43.590143 295.524432 46.017226 289.425473 46.017226 L 23.008793 46.017226 C 16.904626 46.017226 11.055667 43.590143 6.737959 39.277643 C 2.425458 34.959934 -0.00162496 29.110975 -0.00162496 23.006808 C -0.00162496 16.90785 2.425458 11.053683 6.737959 6.741183 C 11.055667 2.423474 16.904626 0.00159901 23.008793 0.00159901 Z M 23.008793 0.00159901 " stroke="#646262" stroke-width="4" stroke-opacity="1" stroke-miterlimit="4"/></g></g><g fill="#42342d" fill-opacity="1"><g transform="translate(353.364302, 777.931613)"><g><path d="M 3.703125 0 L 1.203125 0 L 1.203125 -17.234375 L 9.9375 -17.234375 C 10.570312 -17.234375 11.09375 -17.082031 11.5 -16.78125 C 11.90625 -16.488281 12.210938 -16.113281 12.421875 -15.65625 C 12.628906 -15.207031 12.734375 -14.742188 12.734375 -14.265625 C 12.734375 -13.578125 12.59375 -12.988281 12.3125 -12.5 C 12.039062 -12.007812 11.6875 -11.59375 11.25 -11.25 C 10.820312 -10.914062 10.363281 -10.632812 9.875 -10.40625 C 9.394531 -10.1875 8.9375 -9.992188 8.5 -9.828125 C 8.070312 -9.660156 7.71875 -9.503906 7.4375 -9.359375 C 7.164062 -9.222656 7.03125 -9.066406 7.03125 -8.890625 C 7.03125 -8.722656 7.125 -8.4375 7.3125 -8.03125 C 7.5 -7.632812 7.753906 -7.164062 8.078125 -6.625 C 8.410156 -6.09375 8.78125 -5.53125 9.1875 -4.9375 C 9.59375 -4.34375 10.007812 -3.757812 10.4375 -3.1875 C 10.863281 -2.613281 11.273438 -2.09375 11.671875 -1.625 C 12.066406 -1.164062 12.425781 -0.796875 12.75 -0.515625 C 13.070312 -0.242188 13.320312 -0.109375 13.5 -0.109375 L 13.5 0 L 10.65625 0 C 10.320312 0 10.0625 -0.0234375 9.875 -0.078125 C 9.695312 -0.140625 9.53125 -0.257812 9.375 -0.4375 C 9.21875 -0.625 8.988281 -0.914062 8.6875 -1.3125 C 8.394531 -1.6875 8.082031 -2.113281 7.75 -2.59375 C 7.414062 -3.070312 7.085938 -3.5625 6.765625 -4.0625 C 6.453125 -4.570312 6.160156 -5.0625 5.890625 -5.53125 C 5.628906 -6 5.421875 -6.425781 5.265625 -6.8125 C 5.109375 -7.195312 5.03125 -7.5 5.03125 -7.71875 C 5.03125 -8 5.15625 -8.25 5.40625 -8.46875 C 5.664062 -8.6875 5.988281 -8.898438 6.375 -9.109375 C 6.769531 -9.328125 7.191406 -9.570312 7.640625 -9.84375 C 8.085938 -10.113281 8.503906 -10.4375 8.890625 -10.8125 C 9.285156 -11.1875 9.609375 -11.644531 9.859375 -12.1875 C 10.109375 -12.726562 10.234375 -13.367188 10.234375 -14.109375 C 10.234375 -14.648438 10.140625 -15.132812 9.953125 -15.5625 C 9.765625 -16 9.457031 -16.34375 9.03125 -16.59375 C 8.613281 -16.84375 8.066406 -16.96875 7.390625 -16.96875 L 3.703125 -16.96875 Z M 3.703125 0 "/></g></g></g><g fill="#42342d" fill-opacity="1"><g transform="translate(368.334899, 777.931613)"><g><path d="M 0.6875 -5.796875 C 0.6875 -6.523438 0.867188 -7.128906 1.234375 -7.609375 C 1.609375 -8.097656 2.109375 -8.460938 2.734375 -8.703125 C 3.359375 -8.941406 4.0625 -9.0625 4.84375 -9.0625 C 5.414062 -9.0625 5.929688 -9 6.390625 -8.875 C 6.859375 -8.757812 7.296875 -8.617188 7.703125 -8.453125 C 8.109375 -8.296875 8.5 -8.15625 8.875 -8.03125 C 9.25 -7.914062 9.640625 -7.859375 10.046875 -7.859375 C 10.242188 -7.859375 10.421875 -7.898438 10.578125 -7.984375 C 10.734375 -8.078125 10.8125 -8.21875 10.8125 -8.40625 C 10.8125 -8.664062 10.648438 -8.894531 10.328125 -9.09375 C 10.003906 -9.289062 9.59375 -9.46875 9.09375 -9.625 C 8.601562 -9.78125 8.082031 -9.921875 7.53125 -10.046875 C 6.976562 -10.171875 6.472656 -10.289062 6.015625 -10.40625 C 5.398438 -10.5625 4.800781 -10.710938 4.21875 -10.859375 C 3.644531 -11.015625 3.125 -11.21875 2.65625 -11.46875 C 2.1875 -11.71875 1.8125 -12.046875 1.53125 -12.453125 C 1.25 -12.859375 1.109375 -13.378906 1.109375 -14.015625 C 1.109375 -14.222656 1.15625 -14.472656 1.25 -14.765625 C 1.34375 -15.054688 1.515625 -15.351562 1.765625 -15.65625 C 2.015625 -15.957031 2.359375 -16.238281 2.796875 -16.5 C 3.242188 -16.769531 3.8125 -16.988281 4.5 -17.15625 C 5.195312 -17.320312 6.039062 -17.40625 7.03125 -17.40625 C 7.476562 -17.40625 7.976562 -17.382812 8.53125 -17.34375 C 9.082031 -17.300781 9.640625 -17.234375 10.203125 -17.140625 C 10.765625 -17.054688 11.273438 -16.941406 11.734375 -16.796875 C 12.203125 -16.648438 12.570312 -16.46875 12.84375 -16.25 L 12.140625 -13.671875 C 11.804688 -13.910156 11.347656 -14.125 10.765625 -14.3125 C 10.179688 -14.507812 9.53125 -14.671875 8.8125 -14.796875 C 8.09375 -14.921875 7.367188 -14.984375 6.640625 -14.984375 C 5.378906 -14.984375 4.460938 -14.832031 3.890625 -14.53125 C 3.328125 -14.226562 3.046875 -13.773438 3.046875 -13.171875 C 3.046875 -12.691406 3.207031 -12.300781 3.53125 -12 C 3.863281 -11.695312 4.296875 -11.441406 4.828125 -11.234375 C 5.367188 -11.023438 5.957031 -10.84375 6.59375 -10.6875 C 7.238281 -10.539062 7.878906 -10.390625 8.515625 -10.234375 C 9.160156 -10.078125 9.75 -9.890625 10.28125 -9.671875 C 10.8125 -9.460938 11.238281 -9.195312 11.5625 -8.875 C 11.894531 -8.550781 12.0625 -8.144531 12.0625 -7.65625 C 12.0625 -7.226562 11.953125 -6.851562 11.734375 -6.53125 C 11.523438 -6.21875 11.242188 -5.972656 10.890625 -5.796875 C 10.546875 -5.617188 10.171875 -5.523438 9.765625 -5.515625 C 9.140625 -5.492188 8.546875 -5.5625 7.984375 -5.71875 C 7.429688 -5.875 6.898438 -6.054688 6.390625 -6.265625 C 5.878906 -6.472656 5.363281 -6.660156 4.84375 -6.828125 C 4.320312 -6.992188 3.78125 -7.078125 3.21875 -7.078125 C 2.445312 -7.078125 1.882812 -6.953125 1.53125 -6.703125 C 1.175781 -6.453125 1 -6.101562 1 -5.65625 C 1 -5.019531 1.210938 -4.484375 1.640625 -4.046875 C 2.066406 -3.617188 2.632812 -3.28125 3.34375 -3.03125 C 4.0625 -2.78125 4.875 -2.597656 5.78125 -2.484375 C 6.695312 -2.378906 7.632812 -2.328125 8.59375 -2.328125 C 9.320312 -2.328125 10.035156 -2.382812 10.734375 -2.5 C 11.429688 -2.625 12.078125 -2.929688 12.671875 -3.421875 L 11.640625 -0.4375 C 11.171875 -0.21875 10.703125 -0.0625 10.234375 0.03125 C 9.773438 0.125 9.253906 0.171875 8.671875 0.171875 C 7.640625 0.171875 6.640625 0.0664062 5.671875 -0.140625 C 4.710938 -0.359375 3.859375 -0.695312 3.109375 -1.15625 C 2.367188 -1.625 1.78125 -2.238281 1.34375 -3 C 0.90625 -3.757812 0.6875 -4.691406 0.6875 -5.796875 Z M 0.6875 -5.796875 "/></g></g></g><g fill="#42342d" fill-opacity="1"><g transform="translate(383.029876, 777.931613)"><g><path d="M 0.859375 -8.265625 L 8.265625 -8.265625 L 8.265625 -7.75 L 0.859375 -7.75 Z M 0.859375 -8.265625 "/></g></g></g><g fill="#42342d" fill-opacity="1"><g transform="translate(393.64215, 777.931613)"><g><path d="M 1.203125 0 L 1.203125 -17.234375 L 12.21875 -17.234375 L 12.21875 -14.40625 C 11.832031 -14.820312 11.332031 -15.222656 10.71875 -15.609375 C 10.101562 -16.003906 9.332031 -16.328125 8.40625 -16.578125 C 7.476562 -16.835938 6.351562 -16.96875 5.03125 -16.96875 L 3.703125 -16.96875 L 3.703125 -8.859375 L 5.84375 -8.859375 C 6.863281 -8.859375 7.726562 -8.988281 8.4375 -9.25 C 9.144531 -9.507812 9.617188 -9.90625 9.859375 -10.4375 L 9.859375 -7.015625 C 9.617188 -7.554688 9.144531 -7.953125 8.4375 -8.203125 C 7.726562 -8.460938 6.863281 -8.59375 5.84375 -8.59375 L 3.703125 -8.59375 L 3.703125 0 Z M 1.203125 0 "/></g></g></g><g fill="#42342d" fill-opacity="1"><g transform="translate(407.682514, 777.931613)"><g><path d="M 7.5 0.171875 C 6.132812 0.171875 4.9375 -0.191406 3.90625 -0.921875 C 2.882812 -1.660156 2.09375 -2.6875 1.53125 -4 C 0.96875 -5.320312 0.6875 -6.859375 0.6875 -8.609375 C 0.6875 -10.367188 0.96875 -11.90625 1.53125 -13.21875 C 2.09375 -14.539062 2.882812 -15.566406 3.90625 -16.296875 C 4.9375 -17.035156 6.132812 -17.40625 7.5 -17.40625 C 8.519531 -17.40625 9.445312 -17.195312 10.28125 -16.78125 C 11.113281 -16.363281 11.832031 -15.765625 12.4375 -14.984375 C 13.039062 -14.210938 13.5 -13.285156 13.8125 -12.203125 C 14.132812 -11.128906 14.296875 -9.929688 14.296875 -8.609375 C 14.296875 -7.296875 14.132812 -6.097656 13.8125 -5.015625 C 13.5 -3.941406 13.039062 -3.015625 12.4375 -2.234375 C 11.832031 -1.460938 11.113281 -0.867188 10.28125 -0.453125 C 9.445312 -0.0351562 8.519531 0.171875 7.5 0.171875 Z M 3.375 -8.640625 C 3.375 -6.921875 3.539062 -5.421875 3.875 -4.140625 C 4.21875 -2.859375 4.695312 -1.863281 5.3125 -1.15625 C 5.9375 -0.445312 6.660156 -0.09375 7.484375 -0.09375 C 8.304688 -0.09375 9.023438 -0.445312 9.640625 -1.15625 C 10.265625 -1.863281 10.75 -2.859375 11.09375 -4.140625 C 11.4375 -5.421875 11.609375 -6.921875 11.609375 -8.640625 C 11.609375 -10.347656 11.4375 -11.835938 11.09375 -13.109375 C 10.75 -14.390625 10.265625 -15.382812 9.640625 -16.09375 C 9.023438 -16.8125 8.304688 -17.171875 7.484375 -17.171875 C 6.660156 -17.171875 5.9375 -16.8125 5.3125 -16.09375 C 4.695312 -15.382812 4.21875 -14.390625 3.875 -13.109375 C 3.539062 -11.835938 3.375 -10.347656 3.375 -8.640625 Z M 3.375 -8.640625 "/></g></g></g><g fill="#42342d" fill-opacity="1"><g transform="translate(424.151832, 777.931613)"><g><path d="M 3.703125 0 L 1.203125 0 L 1.203125 -17.234375 L 9.9375 -17.234375 C 10.570312 -17.234375 11.09375 -17.082031 11.5 -16.78125 C 11.90625 -16.488281 12.210938 -16.113281 12.421875 -15.65625 C 12.628906 -15.207031 12.734375 -14.742188 12.734375 -14.265625 C 12.734375 -13.578125 12.59375 -12.988281 12.3125 -12.5 C 12.039062 -12.007812 11.6875 -11.59375 11.25 -11.25 C 10.820312 -10.914062 10.363281 -10.632812 9.875 -10.40625 C 9.394531 -10.1875 8.9375 -9.992188 8.5 -9.828125 C 8.070312 -9.660156 7.71875 -9.503906 7.4375 -9.359375 C 7.164062 -9.222656 7.03125 -9.066406 7.03125 -8.890625 C 7.03125 -8.722656 7.125 -8.4375 7.3125 -8.03125 C 7.5 -7.632812 7.753906 -7.164062 8.078125 -6.625 C 8.410156 -6.09375 8.78125 -5.53125 9.1875 -4.9375 C 9.59375 -4.34375 10.007812 -3.757812 10.4375 -3.1875 C 10.863281 -2.613281 11.273438 -2.09375 11.671875 -1.625 C 12.066406 -1.164062 12.425781 -0.796875 12.75 -0.515625 C 13.070312 -0.242188 13.320312 -0.109375 13.5 -0.109375 L 13.5 0 L 10.65625 0 C 10.320312 0 10.0625 -0.0234375 9.875 -0.078125 C 9.695312 -0.140625 9.53125 -0.257812 9.375 -0.4375 C 9.21875 -0.625 8.988281 -0.914062 8.6875 -1.3125 C 8.394531 -1.6875 8.082031 -2.113281 7.75 -2.59375 C 7.414062 -3.070312 7.085938 -3.5625 6.765625 -4.0625 C 6.453125 -4.570312 6.160156 -5.0625 5.890625 -5.53125 C 5.628906 -6 5.421875 -6.425781 5.265625 -6.8125 C 5.109375 -7.195312 5.03125 -7.5 5.03125 -7.71875 C 5.03125 -8 5.15625 -8.25 5.40625 -8.46875 C 5.664062 -8.6875 5.988281 -8.898438 6.375 -9.109375 C 6.769531 -9.328125 7.191406 -9.570312 7.640625 -9.84375 C 8.085938 -10.113281 8.503906 -10.4375 8.890625 -10.8125 C 9.285156 -11.1875 9.609375 -11.644531 9.859375 -12.1875 C 10.109375 -12.726562 10.234375 -13.367188 10.234375 -14.109375 C 10.234375 -14.648438 10.140625 -15.132812 9.953125 -15.5625 C 9.765625 -16 9.457031 -16.34375 9.03125 -16.59375 C 8.613281 -16.84375 8.066406 -16.96875 7.390625 -16.96875 L 3.703125 -16.96875 Z M 3.703125 0 "/></g></g></g><g fill="#42342d" fill-opacity="1"><g transform="translate(439.122431, 777.931613)"><g><path d="M 5.71875 0 L 0.34375 0 L 3.03125 -14.34375 C 3.082031 -14.601562 3.132812 -14.867188 3.1875 -15.140625 C 3.25 -15.410156 3.28125 -15.664062 3.28125 -15.90625 C 3.28125 -16.15625 3.222656 -16.378906 3.109375 -16.578125 C 2.992188 -16.773438 2.785156 -16.925781 2.484375 -17.03125 C 2.359375 -17.050781 2.21875 -17.070312 2.0625 -17.09375 C 1.914062 -17.113281 1.753906 -17.128906 1.578125 -17.140625 L 1.578125 -17.234375 L 5.3125 -17.234375 C 5.707031 -17.234375 6.039062 -17.085938 6.3125 -16.796875 C 6.582031 -16.503906 6.757812 -16.085938 6.84375 -15.546875 C 6.976562 -14.546875 7.101562 -13.632812 7.21875 -12.8125 C 7.332031 -12 7.441406 -11.21875 7.546875 -10.46875 C 7.648438 -9.726562 7.753906 -8.972656 7.859375 -8.203125 C 7.972656 -7.429688 8.097656 -6.597656 8.234375 -5.703125 C 8.304688 -5.253906 8.398438 -4.78125 8.515625 -4.28125 C 8.640625 -3.789062 8.789062 -3.328125 8.96875 -2.890625 C 9.144531 -2.460938 9.34375 -2.113281 9.5625 -1.84375 C 9.78125 -1.582031 10.019531 -1.453125 10.28125 -1.453125 C 10.632812 -1.453125 10.875 -1.570312 11 -1.8125 C 11.125 -2.0625 11.179688 -2.398438 11.171875 -2.828125 C 11.160156 -3.265625 11.109375 -3.765625 11.015625 -4.328125 C 10.921875 -4.890625 10.820312 -5.488281 10.71875 -6.125 C 10.644531 -6.519531 10.550781 -7 10.4375 -7.5625 C 10.332031 -8.125 10.21875 -8.726562 10.09375 -9.375 C 9.976562 -10.03125 9.875 -10.691406 9.78125 -11.359375 C 9.695312 -12.023438 9.640625 -12.664062 9.609375 -13.28125 C 9.566406 -14.582031 9.820312 -15.59375 10.375 -16.3125 C 10.925781 -17.039062 11.695312 -17.40625 12.6875 -17.40625 C 13.257812 -17.40625 13.707031 -17.269531 14.03125 -17 C 14.363281 -16.738281 14.609375 -16.390625 14.765625 -15.953125 C 14.929688 -15.515625 15.050781 -15.03125 15.125 -14.5 C 15.207031 -13.976562 15.289062 -13.445312 15.375 -12.90625 C 15.5625 -11.664062 15.722656 -10.523438 15.859375 -9.484375 C 16.003906 -8.453125 16.140625 -7.445312 16.265625 -6.46875 C 16.398438 -5.5 16.535156 -4.492188 16.671875 -3.453125 C 16.816406 -2.410156 16.972656 -1.257812 17.140625 0 L 14.5625 0 C 14.382812 -1.257812 14.222656 -2.410156 14.078125 -3.453125 C 13.941406 -4.503906 13.800781 -5.519531 13.65625 -6.5 C 13.519531 -7.476562 13.382812 -8.476562 13.25 -9.5 C 13.113281 -10.53125 12.957031 -11.660156 12.78125 -12.890625 C 12.738281 -13.265625 12.691406 -13.648438 12.640625 -14.046875 C 12.597656 -14.453125 12.535156 -14.828125 12.453125 -15.171875 C 12.378906 -15.515625 12.257812 -15.785156 12.09375 -15.984375 C 11.9375 -16.191406 11.707031 -16.296875 11.40625 -16.296875 C 11.082031 -16.296875 10.820312 -16.203125 10.625 -16.015625 C 10.4375 -15.828125 10.289062 -15.578125 10.1875 -15.265625 C 10.082031 -14.953125 10.007812 -14.625 9.96875 -14.28125 C 9.9375 -13.9375 9.921875 -13.613281 9.921875 -13.3125 C 9.921875 -12.78125 9.972656 -12.140625 10.078125 -11.390625 C 10.191406 -10.648438 10.328125 -9.859375 10.484375 -9.015625 C 10.648438 -8.171875 10.816406 -7.328125 10.984375 -6.484375 C 11.148438 -5.648438 11.285156 -4.867188 11.390625 -4.140625 C 11.503906 -3.421875 11.5625 -2.8125 11.5625 -2.3125 C 11.5625 -2.113281 11.539062 -1.894531 11.5 -1.65625 C 11.457031 -1.425781 11.367188 -1.203125 11.234375 -0.984375 C 11.109375 -0.765625 10.914062 -0.582031 10.65625 -0.4375 C 10.394531 -0.300781 10.039062 -0.234375 9.59375 -0.234375 C 8.96875 -0.234375 8.425781 -0.40625 7.96875 -0.75 C 7.519531 -1.09375 7.140625 -1.546875 6.828125 -2.109375 C 6.515625 -2.671875 6.257812 -3.285156 6.0625 -3.953125 C 5.875 -4.628906 5.71875 -5.300781 5.59375 -5.96875 C 5.476562 -6.632812 5.390625 -7.242188 5.328125 -7.796875 C 5.265625 -8.359375 5.207031 -8.796875 5.15625 -9.109375 C 5.0625 -9.753906 4.976562 -10.320312 4.90625 -10.8125 C 4.84375 -11.3125 4.785156 -11.796875 4.734375 -12.265625 C 4.679688 -12.742188 4.617188 -13.265625 4.546875 -13.828125 C 4.453125 -14.515625 4.351562 -15.078125 4.25 -15.515625 C 4.15625 -15.953125 3.953125 -16.296875 3.640625 -16.546875 C 3.566406 -16.066406 3.503906 -15.664062 3.453125 -15.34375 C 3.410156 -15.03125 3.375 -14.753906 3.34375 -14.515625 C 3.3125 -14.273438 3.273438 -14.03125 3.234375 -13.78125 C 3.203125 -13.539062 3.160156 -13.253906 3.109375 -12.921875 C 3.066406 -12.597656 3.015625 -12.191406 2.953125 -11.703125 C 2.878906 -11.179688 2.804688 -10.570312 2.734375 -9.875 C 2.671875 -9.175781 2.632812 -8.429688 2.625 -7.640625 C 2.613281 -6.847656 2.648438 -6.050781 2.734375 -5.25 C 2.816406 -4.457031 2.972656 -3.710938 3.203125 -3.015625 C 3.429688 -2.328125 3.75 -1.722656 4.15625 -1.203125 C 4.570312 -0.691406 5.09375 -0.320312 5.71875 -0.09375 Z M 5.71875 0 "/></g></g></g></svg>