<svg xmlns="http://www.w3.org/2000/svg" xmlns:xlink="http://www.w3.org/1999/xlink" width="500" zoomAndPan="magnify" viewBox="0 0 375 374.999991" height="500" preserveAspectRatio="xMidYMid meet" version="1.0"><rect x="-37.5" width="450" fill="#ffffff" y="-37.499999" height="449.999989" fill-opacity="1"/><rect x="-37.5" width="450" fill="#f5f0ec" y="-37.499999" height="449.999989" fill-opacity="1"/><rect x="-37.5" width="450" fill="#f5f0ec" y="-37.499999" height="449.999989" fill-opacity="1"/><path fill="#fec400" d="M 93.183594 170.433594 C 127.917969 169.78125 128.371094 119.035156 163.921875 116.761719 C 199.46875 114.492188 234.65625 187.5 281.816406 187.5 C 328.464844 187.5 340.492188 95.21875 375 93.230469 L 375 46.039062 C 338.769531 46.59375 336.992188 73.519531 300.9375 74.164062 C 264.515625 74.816406 234.65625 46.027344 187.5 46.027344 C 140.34375 46.027344 135.074219 93.183594 93.183594 93.183594 C 51.632812 93.183594 46.105469 46.796875 0 46.042969 L 0 93.214844 C 46.222656 94.453125 58.730469 171.078125 93.183594 170.433594 Z M 93.183594 170.433594 " fill-opacity="1" fill-rule="nonzero"/><path fill="#fcc3ca" d="M 281.816406 187.5 C 234.660156 187.5 199.46875 114.492188 163.921875 116.761719 C 128.375 119.035156 127.917969 169.78125 93.183594 170.433594 C 58.730469 171.078125 46.222656 94.453125 0 93.214844 L 0 234.667969 C 49.289062 235.097656 54.839844 263.445312 93.183594 263.445312 C 131.820312 263.445312 155.886719 187.5 202.070312 187.5 C 248.25 187.5 272.773438 258.234375 305.394531 258.234375 C 337.734375 258.234375 331.753906 235.066406 375 234.667969 L 375 93.230469 C 340.492188 95.21875 328.464844 187.5 281.816406 187.5 Z M 281.816406 187.5 " fill-opacity="1" fill-rule="nonzero"/><path fill="#fd6220" d="M 202.070312 187.5 C 155.886719 187.5 131.820312 263.445312 93.183594 263.445312 C 54.839844 263.445312 49.289062 235.097656 0 234.667969 L 0 328.980469 C 46.203125 329.222656 57.441406 344.105469 93.183594 344.105469 C 129.21875 344.105469 125.773438 281.816406 163.921875 281.816406 C 202.070312 281.816406 193.746094 328.972656 234.660156 328.972656 C 275.574219 328.972656 279.476562 301.824219 310.046875 301.824219 C 340.25 301.824219 343.933594 328.304688 375 328.945312 L 375 234.667969 C 331.757812 235.066406 337.734375 258.238281 305.394531 258.238281 C 272.773438 258.238281 248.253906 187.5 202.070312 187.5 Z M 202.070312 187.5 " fill-opacity="1" fill-rule="nonzero"/></svg>