<svg xmlns="http://www.w3.org/2000/svg" xmlns:xlink="http://www.w3.org/1999/xlink" width="500" zoomAndPan="magnify" viewBox="0 0 375 374.999991" height="500" preserveAspectRatio="xMidYMid meet" version="1.0"><defs><g/><clipPath id="ff2009aa68"><path d="M 0 2 L 375 2 L 375 347 L 0 347 Z M 0 2 " clip-rule="nonzero"/></clipPath><clipPath id="ed51ed7a5d"><path d="M 350.648438 -42.277344 L 461.285156 260.652344 L 72.410156 402.675781 L -38.226562 99.75 Z M 350.648438 -42.277344 " clip-rule="nonzero"/></clipPath><clipPath id="2e3ad29264"><path d="M 350.648438 -42.277344 L 461.285156 260.652344 L 72.410156 402.675781 L -38.226562 99.75 Z M 350.648438 -42.277344 " clip-rule="nonzero"/></clipPath><clipPath id="1680246170"><path d="M 277.945312 251.34375 L 288.953125 251.34375 L 288.953125 262.351562 L 277.945312 262.351562 Z M 277.945312 251.34375 " clip-rule="nonzero"/></clipPath><clipPath id="bcc2c0856a"><path d="M 283.449219 251.34375 C 280.410156 251.34375 277.945312 253.808594 277.945312 256.847656 C 277.945312 259.886719 280.410156 262.351562 283.449219 262.351562 C 286.488281 262.351562 288.953125 259.886719 288.953125 256.847656 C 288.953125 253.808594 286.488281 251.34375 283.449219 251.34375 Z M 283.449219 251.34375 " clip-rule="nonzero"/></clipPath></defs><g clip-path="url(#ff2009aa68)"><g clip-path="url(#ed51ed7a5d)"><g clip-path="url(#2e3ad29264)"><path fill="#f2543b" d="M 297.8125 272.660156 C 305.265625 256.296875 306.1875 238.0625 305.445312 220.351562 C 305.4375 219.996094 305.425781 219.640625 305.414062 219.28125 C 304.734375 199.847656 315.132812 181.949219 332 172.273438 C 347.496094 163.386719 360.140625 149.6875 368.238281 133.527344 C 395.226562 79.824219 348.761719 21.964844 297.386719 6.4375 C 267.730469 -2.152344 231.25 1.503906 206.667969 21.082031 C 188.894531 36.886719 179.664062 59.253906 165.449219 77.847656 C 135 113.296875 81.257812 102.574219 43.707031 126.308594 C 13.066406 142.058594 -7.667969 177.488281 3.101562 211.796875 C 4.070312 215.011719 5.132812 218.199219 6.285156 221.355469 C 33.570312 296.0625 112.136719 352.632812 192.605469 345.613281 C 237.800781 342.523438 282.96875 317.414062 297.8125 272.664062 Z M 297.8125 272.660156 " fill-opacity="1" fill-rule="nonzero"/></g></g></g><g fill="#e4cab8" fill-opacity="1"><g transform="translate(80.096411, 185.749111)"><g><path d="M 14.984375 0 L 4.875 0 L 4.875 -69.671875 L 40.203125 -69.671875 C 42.753906 -69.671875 44.851562 -69.066406 46.5 -67.859375 C 48.15625 -66.648438 49.398438 -65.128906 50.234375 -63.296875 C 51.066406 -61.460938 51.484375 -59.59375 51.484375 -57.6875 C 51.484375 -54.90625 50.925781 -52.523438 49.8125 -50.546875 C 48.695312 -48.566406 47.269531 -46.890625 45.53125 -45.515625 C 43.789062 -44.148438 41.929688 -43.015625 39.953125 -42.109375 C 37.984375 -41.210938 36.125 -40.425781 34.375 -39.75 C 32.632812 -39.070312 31.207031 -38.441406 30.09375 -37.859375 C 28.976562 -37.285156 28.421875 -36.648438 28.421875 -35.953125 C 28.421875 -35.253906 28.800781 -34.101562 29.5625 -32.5 C 30.332031 -30.894531 31.378906 -29 32.703125 -26.8125 C 34.035156 -24.632812 35.515625 -22.347656 37.140625 -19.953125 C 38.765625 -17.566406 40.445312 -15.210938 42.1875 -12.890625 C 43.925781 -10.566406 45.597656 -8.460938 47.203125 -6.578125 C 48.804688 -4.703125 50.257812 -3.207031 51.5625 -2.09375 C 52.863281 -0.976562 53.859375 -0.421875 54.546875 -0.421875 L 54.546875 0 L 43.0625 0 C 41.707031 0 40.671875 -0.113281 39.953125 -0.34375 C 39.234375 -0.582031 38.546875 -1.070312 37.890625 -1.8125 C 37.242188 -2.550781 36.316406 -3.710938 35.109375 -5.296875 C 33.953125 -6.828125 32.695312 -8.554688 31.34375 -10.484375 C 30 -12.410156 28.675781 -14.394531 27.375 -16.4375 C 26.082031 -18.488281 24.898438 -20.460938 23.828125 -22.359375 C 22.753906 -24.265625 21.90625 -25.992188 21.28125 -27.546875 C 20.65625 -29.109375 20.34375 -30.332031 20.34375 -31.21875 C 20.34375 -32.332031 20.851562 -33.328125 21.875 -34.203125 C 22.894531 -35.085938 24.191406 -35.972656 25.765625 -36.859375 C 27.347656 -37.742188 29.046875 -38.726562 30.859375 -39.8125 C 32.671875 -40.90625 34.363281 -42.207031 35.9375 -43.71875 C 37.519531 -45.226562 38.820312 -47.070312 39.84375 -49.25 C 40.875 -51.4375 41.390625 -54.039062 41.390625 -57.0625 C 41.390625 -59.238281 41.003906 -61.195312 40.234375 -62.9375 C 39.460938 -64.6875 38.226562 -66.070312 36.53125 -67.09375 C 34.84375 -68.113281 32.628906 -68.625 29.890625 -68.625 L 14.984375 -68.625 Z M 14.984375 0 "/></g></g></g><g fill="#e4cab8" fill-opacity="1"><g transform="translate(134.637255, 185.749111)"><g><path d="M 2.78125 -23.40625 C 2.78125 -26.382812 3.523438 -28.847656 5.015625 -30.796875 C 6.503906 -32.742188 8.515625 -34.203125 11.046875 -35.171875 C 13.578125 -36.148438 16.421875 -36.640625 19.578125 -36.640625 C 21.898438 -36.640625 24 -36.394531 25.875 -35.90625 C 27.757812 -35.425781 29.515625 -34.859375 31.140625 -34.203125 C 32.765625 -33.554688 34.34375 -32.988281 35.875 -32.5 C 37.414062 -32.007812 39 -31.765625 40.625 -31.765625 C 41.40625 -31.765625 42.109375 -31.9375 42.734375 -32.28125 C 43.367188 -32.632812 43.6875 -33.207031 43.6875 -34 C 43.6875 -35.019531 43.035156 -35.9375 41.734375 -36.75 C 40.429688 -37.5625 38.78125 -38.28125 36.78125 -38.90625 C 34.789062 -39.539062 32.679688 -40.113281 30.453125 -40.625 C 28.222656 -41.132812 26.175781 -41.617188 24.3125 -42.078125 C 21.851562 -42.679688 19.453125 -43.296875 17.109375 -43.921875 C 14.765625 -44.554688 12.640625 -45.367188 10.734375 -46.359375 C 8.828125 -47.359375 7.300781 -48.679688 6.15625 -50.328125 C 5.019531 -51.984375 4.453125 -54.085938 4.453125 -56.640625 C 4.453125 -57.472656 4.648438 -58.484375 5.046875 -59.671875 C 5.441406 -60.859375 6.140625 -62.066406 7.140625 -63.296875 C 8.140625 -64.523438 9.53125 -65.671875 11.3125 -66.734375 C 13.101562 -67.804688 15.40625 -68.679688 18.21875 -69.359375 C 21.03125 -70.035156 24.429688 -70.375 28.421875 -70.375 C 30.234375 -70.375 32.253906 -70.289062 34.484375 -70.125 C 36.710938 -69.957031 38.960938 -69.6875 41.234375 -69.3125 C 43.515625 -68.945312 45.59375 -68.472656 47.46875 -67.890625 C 49.351562 -67.316406 50.832031 -66.585938 51.90625 -65.703125 L 49.046875 -55.25 C 47.703125 -56.226562 45.851562 -57.109375 43.5 -57.890625 C 41.15625 -58.679688 38.53125 -59.320312 35.625 -59.8125 C 32.726562 -60.300781 29.796875 -60.546875 26.828125 -60.546875 C 21.765625 -60.546875 18.082031 -59.941406 15.78125 -58.734375 C 13.476562 -57.523438 12.328125 -55.691406 12.328125 -53.234375 C 12.328125 -51.328125 12.988281 -49.757812 14.3125 -48.53125 C 15.632812 -47.300781 17.375 -46.265625 19.53125 -45.421875 C 21.695312 -44.585938 24.082031 -43.859375 26.6875 -43.234375 C 29.289062 -42.609375 31.878906 -41.976562 34.453125 -41.34375 C 37.023438 -40.71875 39.390625 -39.972656 41.546875 -39.109375 C 43.710938 -38.253906 45.457031 -37.175781 46.78125 -35.875 C 48.101562 -34.582031 48.765625 -32.9375 48.765625 -30.9375 C 48.765625 -29.21875 48.332031 -27.71875 47.46875 -26.4375 C 46.613281 -25.164062 45.476562 -24.164062 44.0625 -23.4375 C 42.644531 -22.71875 41.125 -22.335938 39.5 -22.296875 C 36.945312 -22.203125 34.539062 -22.46875 32.28125 -23.09375 C 30.03125 -23.71875 27.875 -24.457031 25.8125 -25.3125 C 23.75 -26.175781 21.671875 -26.945312 19.578125 -27.625 C 17.484375 -28.300781 15.300781 -28.640625 13.03125 -28.640625 C 9.914062 -28.640625 7.640625 -28.125 6.203125 -27.09375 C 4.765625 -26.070312 4.046875 -24.660156 4.046875 -22.859375 C 4.046875 -20.296875 4.90625 -18.144531 6.625 -16.40625 C 8.34375 -14.664062 10.648438 -13.285156 13.546875 -12.265625 C 16.453125 -11.242188 19.738281 -10.507812 23.40625 -10.0625 C 27.070312 -9.625 30.859375 -9.40625 34.765625 -9.40625 C 37.691406 -9.40625 40.570312 -9.648438 43.40625 -10.140625 C 46.238281 -10.628906 48.835938 -11.867188 51.203125 -13.859375 L 47.03125 -1.734375 C 45.164062 -0.859375 43.289062 -0.234375 41.40625 0.140625 C 39.53125 0.515625 37.410156 0.703125 35.046875 0.703125 C 30.867188 0.703125 26.835938 0.273438 22.953125 -0.578125 C 19.078125 -1.441406 15.628906 -2.816406 12.609375 -4.703125 C 9.585938 -6.585938 7.191406 -9.0625 5.421875 -12.125 C 3.660156 -15.1875 2.78125 -18.945312 2.78125 -23.40625 Z M 2.78125 -23.40625 "/></g></g></g><g fill="#e4cab8" fill-opacity="1"><g transform="translate(188.063594, 185.749111)"><g><path d="M 3.484375 -33.4375 L 33.4375 -33.4375 L 33.4375 -31.359375 L 3.484375 -31.359375 Z M 3.484375 -33.4375 "/></g></g></g><g fill="#e4cab8" fill-opacity="1"><g transform="translate(80.096411, 262.249106)"><g><path d="M 4.03125 0 L 4.03125 -57.671875 L 40.890625 -57.671875 L 40.890625 -48.21875 C 39.578125 -49.601562 37.890625 -50.945312 35.828125 -52.25 C 33.773438 -53.5625 31.203125 -54.648438 28.109375 -55.515625 C 25.015625 -56.378906 21.257812 -56.8125 16.84375 -56.8125 L 12.40625 -56.8125 L 12.40625 -29.640625 L 19.546875 -29.640625 C 22.972656 -29.640625 25.867188 -30.070312 28.234375 -30.9375 C 30.597656 -31.800781 32.179688 -33.140625 32.984375 -34.953125 L 32.984375 -23.46875 C 32.179688 -25.28125 30.597656 -26.617188 28.234375 -27.484375 C 25.867188 -28.347656 22.972656 -28.78125 19.546875 -28.78125 L 12.40625 -28.78125 L 12.40625 0 Z M 4.03125 0 "/></g></g></g><g fill="#e4cab8" fill-opacity="1"><g transform="translate(122.1278, 262.249106)"><g><path d="M 25.09375 0.578125 C 20.507812 0.578125 16.503906 -0.648438 13.078125 -3.109375 C 9.660156 -5.578125 7.007812 -9.007812 5.125 -13.40625 C 3.25 -17.8125 2.3125 -22.953125 2.3125 -28.828125 C 2.3125 -34.710938 3.25 -39.851562 5.125 -44.25 C 7.007812 -48.65625 9.660156 -52.085938 13.078125 -54.546875 C 16.503906 -57.015625 20.507812 -58.25 25.09375 -58.25 C 28.507812 -58.25 31.609375 -57.546875 34.390625 -56.140625 C 37.179688 -54.734375 39.585938 -52.734375 41.609375 -50.140625 C 43.628906 -47.546875 45.175781 -44.453125 46.25 -40.859375 C 47.332031 -37.265625 47.875 -33.253906 47.875 -28.828125 C 47.875 -24.410156 47.332031 -20.40625 46.25 -16.8125 C 45.175781 -13.21875 43.628906 -10.125 41.609375 -7.53125 C 39.585938 -4.9375 37.179688 -2.9375 34.390625 -1.53125 C 31.609375 -0.125 28.507812 0.578125 25.09375 0.578125 Z M 11.296875 -28.890625 C 11.296875 -23.160156 11.863281 -18.148438 13 -13.859375 C 14.132812 -9.578125 15.738281 -6.242188 17.8125 -3.859375 C 19.894531 -1.472656 22.300781 -0.28125 25.03125 -0.28125 C 27.800781 -0.28125 30.222656 -1.472656 32.296875 -3.859375 C 34.367188 -6.242188 35.984375 -9.578125 37.140625 -13.859375 C 38.296875 -18.148438 38.875 -23.160156 38.875 -28.890625 C 38.875 -34.617188 38.296875 -39.617188 37.140625 -43.890625 C 35.984375 -48.160156 34.367188 -51.484375 32.296875 -53.859375 C 30.222656 -56.242188 27.800781 -57.4375 25.03125 -57.4375 C 22.300781 -57.4375 19.894531 -56.242188 17.8125 -53.859375 C 15.738281 -51.484375 14.132812 -48.160156 13 -43.890625 C 11.863281 -39.617188 11.296875 -34.617188 11.296875 -28.890625 Z M 11.296875 -28.890625 "/></g></g></g><g fill="#e4cab8" fill-opacity="1"><g transform="translate(172.288716, 262.249106)"><g><path d="M 12.40625 0 L 4.03125 0 L 4.03125 -57.671875 L 33.28125 -57.671875 C 35.394531 -57.671875 37.132812 -57.171875 38.5 -56.171875 C 39.863281 -55.171875 40.890625 -53.910156 41.578125 -52.390625 C 42.273438 -50.867188 42.625 -49.320312 42.625 -47.75 C 42.625 -45.445312 42.160156 -43.476562 41.234375 -41.84375 C 40.304688 -40.207031 39.125 -38.820312 37.6875 -37.6875 C 36.25 -36.550781 34.710938 -35.609375 33.078125 -34.859375 C 31.441406 -34.109375 29.898438 -33.453125 28.453125 -32.890625 C 27.015625 -32.335938 25.832031 -31.820312 24.90625 -31.34375 C 23.988281 -30.863281 23.53125 -30.335938 23.53125 -29.765625 C 23.53125 -29.179688 23.847656 -28.226562 24.484375 -26.90625 C 25.117188 -25.582031 25.984375 -24.015625 27.078125 -22.203125 C 28.171875 -20.398438 29.390625 -18.503906 30.734375 -16.515625 C 32.078125 -14.535156 33.46875 -12.582031 34.90625 -10.65625 C 36.351562 -8.738281 37.738281 -7 39.0625 -5.4375 C 40.394531 -3.882812 41.597656 -2.644531 42.671875 -1.71875 C 43.753906 -0.800781 44.582031 -0.34375 45.15625 -0.34375 L 45.15625 0 L 35.640625 0 C 34.523438 0 33.671875 -0.09375 33.078125 -0.28125 C 32.484375 -0.476562 31.914062 -0.882812 31.375 -1.5 C 30.832031 -2.113281 30.0625 -3.078125 29.0625 -4.390625 C 28.101562 -5.648438 27.066406 -7.078125 25.953125 -8.671875 C 24.835938 -10.273438 23.738281 -11.921875 22.65625 -13.609375 C 21.582031 -15.296875 20.601562 -16.925781 19.71875 -18.5 C 18.832031 -20.082031 18.128906 -21.515625 17.609375 -22.796875 C 17.097656 -24.085938 16.84375 -25.101562 16.84375 -25.84375 C 16.84375 -26.757812 17.265625 -27.582031 18.109375 -28.3125 C 18.953125 -29.039062 20.023438 -29.769531 21.328125 -30.5 C 22.640625 -31.238281 24.046875 -32.054688 25.546875 -32.953125 C 27.046875 -33.859375 28.445312 -34.9375 29.75 -36.1875 C 31.0625 -37.4375 32.140625 -38.960938 32.984375 -40.765625 C 33.828125 -42.578125 34.25 -44.734375 34.25 -47.234375 C 34.25 -49.035156 33.929688 -50.65625 33.296875 -52.09375 C 32.671875 -53.539062 31.65625 -54.6875 30.25 -55.53125 C 28.84375 -56.382812 27.003906 -56.8125 24.734375 -56.8125 L 12.40625 -56.8125 Z M 12.40625 0 "/></g></g></g><g fill="#e4cab8" fill-opacity="1"><g transform="translate(217.433538, 262.249106)"><g><path d="M 19.140625 0 L 1.15625 0 L 10.15625 -47.984375 C 10.300781 -48.867188 10.46875 -49.757812 10.65625 -50.65625 C 10.851562 -51.5625 10.953125 -52.425781 10.953125 -53.25 C 10.953125 -54.082031 10.757812 -54.820312 10.375 -55.46875 C 9.988281 -56.125 9.300781 -56.628906 8.3125 -56.984375 C 7.882812 -57.054688 7.421875 -57.128906 6.921875 -57.203125 C 6.421875 -57.285156 5.882812 -57.347656 5.3125 -57.390625 L 5.3125 -57.671875 L 17.765625 -57.671875 C 19.109375 -57.671875 20.226562 -57.179688 21.125 -56.203125 C 22.03125 -55.222656 22.617188 -53.828125 22.890625 -52.015625 C 23.359375 -48.671875 23.78125 -45.632812 24.15625 -42.90625 C 24.539062 -40.175781 24.90625 -37.5625 25.25 -35.0625 C 25.601562 -32.5625 25.960938 -30.023438 26.328125 -27.453125 C 26.691406 -24.878906 27.101562 -22.09375 27.5625 -19.09375 C 27.789062 -17.59375 28.109375 -16.015625 28.515625 -14.359375 C 28.921875 -12.703125 29.421875 -11.15625 30.015625 -9.71875 C 30.609375 -8.28125 31.269531 -7.109375 32 -6.203125 C 32.738281 -5.296875 33.550781 -4.84375 34.4375 -4.84375 C 35.582031 -4.84375 36.363281 -5.253906 36.78125 -6.078125 C 37.207031 -6.910156 37.398438 -8.046875 37.359375 -9.484375 C 37.328125 -10.929688 37.15625 -12.59375 36.84375 -14.46875 C 36.539062 -16.351562 36.21875 -18.351562 35.875 -20.46875 C 35.644531 -21.8125 35.347656 -23.425781 34.984375 -25.3125 C 34.617188 -27.195312 34.234375 -29.222656 33.828125 -31.390625 C 33.421875 -33.566406 33.0625 -35.769531 32.75 -38 C 32.445312 -40.226562 32.257812 -42.382812 32.1875 -44.46875 C 32.03125 -48.8125 32.875 -52.191406 34.71875 -54.609375 C 36.5625 -57.035156 39.140625 -58.25 42.453125 -58.25 C 44.367188 -58.25 45.875 -57.804688 46.96875 -56.921875 C 48.070312 -56.035156 48.890625 -54.863281 49.421875 -53.40625 C 49.960938 -51.945312 50.367188 -50.332031 50.640625 -48.5625 C 50.910156 -46.789062 51.175781 -45.003906 51.4375 -43.203125 C 52.050781 -39.046875 52.597656 -35.238281 53.078125 -31.78125 C 53.566406 -28.320312 54.03125 -24.957031 54.46875 -21.6875 C 54.914062 -18.414062 55.367188 -15.039062 55.828125 -11.5625 C 56.285156 -8.082031 56.804688 -4.226562 57.390625 0 L 48.734375 0 C 48.160156 -4.226562 47.628906 -8.09375 47.140625 -11.59375 C 46.660156 -15.09375 46.191406 -18.472656 45.734375 -21.734375 C 45.273438 -25.003906 44.8125 -28.359375 44.34375 -31.796875 C 43.882812 -35.242188 43.367188 -39.023438 42.796875 -43.140625 C 42.640625 -44.410156 42.484375 -45.707031 42.328125 -47.03125 C 42.171875 -48.351562 41.957031 -49.59375 41.6875 -50.75 C 41.425781 -51.90625 41.023438 -52.828125 40.484375 -53.515625 C 39.941406 -54.210938 39.171875 -54.5625 38.171875 -54.5625 C 37.097656 -54.5625 36.234375 -54.242188 35.578125 -53.609375 C 34.929688 -52.972656 34.429688 -52.132812 34.078125 -51.09375 C 33.734375 -50.0625 33.503906 -48.96875 33.390625 -47.8125 C 33.273438 -46.65625 33.21875 -45.554688 33.21875 -44.515625 C 33.21875 -42.753906 33.398438 -40.632812 33.765625 -38.15625 C 34.128906 -35.675781 34.578125 -33.019531 35.109375 -30.1875 C 35.648438 -27.363281 36.203125 -24.546875 36.765625 -21.734375 C 37.328125 -18.929688 37.789062 -16.316406 38.15625 -13.890625 C 38.519531 -11.472656 38.703125 -9.421875 38.703125 -7.734375 C 38.703125 -7.078125 38.632812 -6.351562 38.5 -5.5625 C 38.363281 -4.78125 38.070312 -4.019531 37.625 -3.28125 C 37.1875 -2.550781 36.535156 -1.957031 35.671875 -1.5 C 34.804688 -1.039062 33.625 -0.8125 32.125 -0.8125 C 30.007812 -0.8125 28.191406 -1.375 26.671875 -2.5 C 25.148438 -3.632812 23.867188 -5.144531 22.828125 -7.03125 C 21.796875 -8.914062 20.953125 -10.984375 20.296875 -13.234375 C 19.640625 -15.484375 19.117188 -17.722656 18.734375 -19.953125 C 18.359375 -22.179688 18.0625 -24.226562 17.84375 -26.09375 C 17.632812 -27.957031 17.4375 -29.429688 17.25 -30.515625 C 16.9375 -32.660156 16.664062 -34.5625 16.4375 -36.21875 C 16.207031 -37.875 16.003906 -39.488281 15.828125 -41.0625 C 15.660156 -42.632812 15.457031 -44.363281 15.21875 -46.25 C 14.914062 -48.5625 14.585938 -50.445312 14.234375 -51.90625 C 13.890625 -53.363281 13.203125 -54.515625 12.171875 -55.359375 C 11.941406 -53.742188 11.75 -52.40625 11.59375 -51.34375 C 11.4375 -50.289062 11.300781 -49.359375 11.1875 -48.546875 C 11.070312 -47.742188 10.957031 -46.9375 10.84375 -46.125 C 10.726562 -45.320312 10.59375 -44.375 10.4375 -43.28125 C 10.28125 -42.1875 10.085938 -40.8125 9.859375 -39.15625 C 9.628906 -37.425781 9.398438 -35.390625 9.171875 -33.046875 C 8.941406 -30.703125 8.804688 -28.203125 8.765625 -25.546875 C 8.722656 -22.890625 8.847656 -20.234375 9.140625 -17.578125 C 9.429688 -14.929688 9.957031 -12.441406 10.71875 -10.109375 C 11.488281 -7.785156 12.554688 -5.757812 13.921875 -4.03125 C 15.285156 -2.300781 17.023438 -1.050781 19.140625 -0.28125 Z M 19.140625 0 "/></g></g></g><g clip-path="url(#1680246170)"><g clip-path="url(#bcc2c0856a)"><path fill="#e4cab8" d="M 277.945312 251.34375 L 288.953125 251.34375 L 288.953125 262.351562 L 277.945312 262.351562 Z M 277.945312 251.34375 " fill-opacity="1" fill-rule="nonzero"/></g></g><g fill="#e4cab8" fill-opacity="1"><g transform="translate(80.096411, 276.572413)"><g><path d="M 3.390625 -8.03125 C 4.265625 -8.03125 5.019531 -7.863281 5.65625 -7.53125 C 6.300781 -7.207031 6.789062 -6.742188 7.125 -6.140625 C 7.46875 -5.535156 7.640625 -4.820312 7.640625 -4 C 7.640625 -3.175781 7.46875 -2.460938 7.125 -1.859375 C 6.789062 -1.253906 6.300781 -0.789062 5.65625 -0.46875 C 5.019531 -0.15625 4.265625 0 3.390625 0 L 0.890625 0 L 0.890625 -8.03125 Z M 3.390625 -0.859375 C 4.421875 -0.859375 5.207031 -1.132812 5.75 -1.6875 C 6.300781 -2.238281 6.578125 -3.007812 6.578125 -4 C 6.578125 -5 6.300781 -5.773438 5.75 -6.328125 C 5.195312 -6.890625 4.410156 -7.171875 3.390625 -7.171875 L 1.9375 -7.171875 L 1.9375 -0.859375 Z M 3.390625 -0.859375 "/></g></g></g><g fill="#e4cab8" fill-opacity="1"><g transform="translate(87.802919, 276.572413)"><g><path d="M 1.9375 -7.171875 L 1.9375 -4.484375 L 4.859375 -4.484375 L 4.859375 -3.625 L 1.9375 -3.625 L 1.9375 -0.859375 L 5.203125 -0.859375 L 5.203125 0 L 0.890625 0 L 0.890625 -8.03125 L 5.203125 -8.03125 L 5.203125 -7.171875 Z M 1.9375 -7.171875 "/></g></g></g><g fill="#e4cab8" fill-opacity="1"><g transform="translate(93.274635, 276.572413)"><g><path d="M 3.4375 0.078125 C 2.90625 0.078125 2.425781 -0.015625 2 -0.203125 C 1.582031 -0.390625 1.253906 -0.648438 1.015625 -0.984375 C 0.785156 -1.316406 0.664062 -1.703125 0.65625 -2.140625 L 1.765625 -2.140625 C 1.804688 -1.765625 1.960938 -1.445312 2.234375 -1.1875 C 2.515625 -0.9375 2.914062 -0.8125 3.4375 -0.8125 C 3.9375 -0.8125 4.328125 -0.929688 4.609375 -1.171875 C 4.898438 -1.421875 5.046875 -1.742188 5.046875 -2.140625 C 5.046875 -2.453125 4.957031 -2.703125 4.78125 -2.890625 C 4.613281 -3.078125 4.40625 -3.222656 4.15625 -3.328125 C 3.90625 -3.429688 3.5625 -3.539062 3.125 -3.65625 C 2.601562 -3.789062 2.179688 -3.925781 1.859375 -4.0625 C 1.535156 -4.195312 1.257812 -4.410156 1.03125 -4.703125 C 0.8125 -5.003906 0.703125 -5.40625 0.703125 -5.90625 C 0.703125 -6.34375 0.8125 -6.726562 1.03125 -7.0625 C 1.257812 -7.40625 1.570312 -7.664062 1.96875 -7.84375 C 2.375 -8.03125 2.835938 -8.125 3.359375 -8.125 C 4.109375 -8.125 4.722656 -7.9375 5.203125 -7.5625 C 5.691406 -7.1875 5.960938 -6.6875 6.015625 -6.0625 L 4.875 -6.0625 C 4.832031 -6.375 4.671875 -6.644531 4.390625 -6.875 C 4.109375 -7.113281 3.734375 -7.234375 3.265625 -7.234375 C 2.828125 -7.234375 2.46875 -7.117188 2.1875 -6.890625 C 1.90625 -6.660156 1.765625 -6.34375 1.765625 -5.9375 C 1.765625 -5.644531 1.847656 -5.40625 2.015625 -5.21875 C 2.179688 -5.039062 2.382812 -4.898438 2.625 -4.796875 C 2.875 -4.703125 3.21875 -4.597656 3.65625 -4.484375 C 4.175781 -4.335938 4.597656 -4.191406 4.921875 -4.046875 C 5.242188 -3.898438 5.519531 -3.679688 5.75 -3.390625 C 5.988281 -3.097656 6.109375 -2.695312 6.109375 -2.1875 C 6.109375 -1.789062 6.003906 -1.421875 5.796875 -1.078125 C 5.585938 -0.734375 5.28125 -0.453125 4.875 -0.234375 C 4.46875 -0.0234375 3.988281 0.078125 3.4375 0.078125 Z M 3.4375 0.078125 "/></g></g></g><g fill="#e4cab8" fill-opacity="1"><g transform="translate(99.598799, 276.572413)"><g><path d="M 1.9375 -8.03125 L 1.9375 0 L 0.890625 0 L 0.890625 -8.03125 Z M 1.9375 -8.03125 "/></g></g></g><g fill="#e4cab8" fill-opacity="1"><g transform="translate(101.994791, 276.572413)"><g><path d="M 6.96875 -5.703125 C 6.75 -6.171875 6.425781 -6.53125 6 -6.78125 C 5.570312 -7.039062 5.082031 -7.171875 4.53125 -7.171875 C 3.96875 -7.171875 3.460938 -7.039062 3.015625 -6.78125 C 2.566406 -6.53125 2.210938 -6.164062 1.953125 -5.6875 C 1.691406 -5.207031 1.5625 -4.648438 1.5625 -4.015625 C 1.5625 -3.390625 1.691406 -2.835938 1.953125 -2.359375 C 2.210938 -1.878906 2.566406 -1.507812 3.015625 -1.25 C 3.460938 -1 3.96875 -0.875 4.53125 -0.875 C 5.3125 -0.875 5.953125 -1.109375 6.453125 -1.578125 C 6.960938 -2.046875 7.257812 -2.679688 7.34375 -3.484375 L 4.140625 -3.484375 L 4.140625 -4.328125 L 8.46875 -4.328125 L 8.46875 -3.53125 C 8.40625 -2.863281 8.195312 -2.253906 7.84375 -1.703125 C 7.488281 -1.160156 7.019531 -0.726562 6.4375 -0.40625 C 5.863281 -0.09375 5.226562 0.0625 4.53125 0.0625 C 3.78125 0.0625 3.097656 -0.109375 2.484375 -0.453125 C 1.867188 -0.804688 1.382812 -1.289062 1.03125 -1.90625 C 0.675781 -2.53125 0.5 -3.234375 0.5 -4.015625 C 0.5 -4.796875 0.675781 -5.5 1.03125 -6.125 C 1.382812 -6.757812 1.867188 -7.25 2.484375 -7.59375 C 3.097656 -7.945312 3.78125 -8.125 4.53125 -8.125 C 5.375 -8.125 6.125 -7.910156 6.78125 -7.484375 C 7.4375 -7.066406 7.914062 -6.472656 8.21875 -5.703125 Z M 6.96875 -5.703125 "/></g></g></g><g fill="#e4cab8" fill-opacity="1"><g transform="translate(110.519186, 276.572413)"><g><path d="M 7.203125 0 L 6.15625 0 L 1.9375 -6.390625 L 1.9375 0 L 0.890625 0 L 0.890625 -8.03125 L 1.9375 -8.03125 L 6.15625 -1.65625 L 6.15625 -8.03125 L 7.203125 -8.03125 Z M 7.203125 0 "/></g></g></g><g fill="#e4cab8" fill-opacity="1"><g transform="translate(118.182346, 276.572413)"><g/></g></g><g fill="#e4cab8" fill-opacity="1"><g transform="translate(80.096411, 287.072412)"><g><path d="M 3.4375 0.078125 C 2.90625 0.078125 2.425781 -0.015625 2 -0.203125 C 1.582031 -0.390625 1.253906 -0.648438 1.015625 -0.984375 C 0.785156 -1.316406 0.664062 -1.703125 0.65625 -2.140625 L 1.765625 -2.140625 C 1.804688 -1.765625 1.960938 -1.445312 2.234375 -1.1875 C 2.515625 -0.9375 2.914062 -0.8125 3.4375 -0.8125 C 3.9375 -0.8125 4.328125 -0.929688 4.609375 -1.171875 C 4.898438 -1.421875 5.046875 -1.742188 5.046875 -2.140625 C 5.046875 -2.453125 4.957031 -2.703125 4.78125 -2.890625 C 4.613281 -3.078125 4.40625 -3.222656 4.15625 -3.328125 C 3.90625 -3.429688 3.5625 -3.539062 3.125 -3.65625 C 2.601562 -3.789062 2.179688 -3.925781 1.859375 -4.0625 C 1.535156 -4.195312 1.257812 -4.410156 1.03125 -4.703125 C 0.8125 -5.003906 0.703125 -5.40625 0.703125 -5.90625 C 0.703125 -6.34375 0.8125 -6.726562 1.03125 -7.0625 C 1.257812 -7.40625 1.570312 -7.664062 1.96875 -7.84375 C 2.375 -8.03125 2.835938 -8.125 3.359375 -8.125 C 4.109375 -8.125 4.722656 -7.9375 5.203125 -7.5625 C 5.691406 -7.1875 5.960938 -6.6875 6.015625 -6.0625 L 4.875 -6.0625 C 4.832031 -6.375 4.671875 -6.644531 4.390625 -6.875 C 4.109375 -7.113281 3.734375 -7.234375 3.265625 -7.234375 C 2.828125 -7.234375 2.46875 -7.117188 2.1875 -6.890625 C 1.90625 -6.660156 1.765625 -6.34375 1.765625 -5.9375 C 1.765625 -5.644531 1.847656 -5.40625 2.015625 -5.21875 C 2.179688 -5.039062 2.382812 -4.898438 2.625 -4.796875 C 2.875 -4.703125 3.21875 -4.597656 3.65625 -4.484375 C 4.175781 -4.335938 4.597656 -4.191406 4.921875 -4.046875 C 5.242188 -3.898438 5.519531 -3.679688 5.75 -3.390625 C 5.988281 -3.097656 6.109375 -2.695312 6.109375 -2.1875 C 6.109375 -1.789062 6.003906 -1.421875 5.796875 -1.078125 C 5.585938 -0.734375 5.28125 -0.453125 4.875 -0.234375 C 4.46875 -0.0234375 3.988281 0.078125 3.4375 0.078125 Z M 3.4375 0.078125 "/></g></g></g><g fill="#e4cab8" fill-opacity="1"><g transform="translate(86.420575, 287.072412)"><g><path d="M 5.828125 -8.03125 L 5.828125 -7.171875 L 3.640625 -7.171875 L 3.640625 0 L 2.59375 0 L 2.59375 -7.171875 L 0.390625 -7.171875 L 0.390625 -8.03125 Z M 5.828125 -8.03125 "/></g></g></g><g fill="#e4cab8" fill-opacity="1"><g transform="translate(92.214832, 287.072412)"><g><path d="M 1.90625 -8.03125 L 1.90625 -2.953125 C 1.90625 -2.234375 2.078125 -1.703125 2.421875 -1.359375 C 2.773438 -1.015625 3.265625 -0.84375 3.890625 -0.84375 C 4.503906 -0.84375 4.984375 -1.015625 5.328125 -1.359375 C 5.679688 -1.703125 5.859375 -2.234375 5.859375 -2.953125 L 5.859375 -8.03125 L 6.90625 -8.03125 L 6.90625 -2.953125 C 6.90625 -2.285156 6.769531 -1.722656 6.5 -1.265625 C 6.238281 -0.816406 5.878906 -0.476562 5.421875 -0.25 C 4.960938 -0.03125 4.445312 0.078125 3.875 0.078125 C 3.3125 0.078125 2.800781 -0.03125 2.34375 -0.25 C 1.882812 -0.476562 1.519531 -0.816406 1.25 -1.265625 C 0.988281 -1.722656 0.859375 -2.285156 0.859375 -2.953125 L 0.859375 -8.03125 Z M 1.90625 -8.03125 "/></g></g></g><g fill="#e4cab8" fill-opacity="1"><g transform="translate(99.552714, 287.072412)"><g><path d="M 3.390625 -8.03125 C 4.265625 -8.03125 5.019531 -7.863281 5.65625 -7.53125 C 6.300781 -7.207031 6.789062 -6.742188 7.125 -6.140625 C 7.46875 -5.535156 7.640625 -4.820312 7.640625 -4 C 7.640625 -3.175781 7.46875 -2.460938 7.125 -1.859375 C 6.789062 -1.253906 6.300781 -0.789062 5.65625 -0.46875 C 5.019531 -0.15625 4.265625 0 3.390625 0 L 0.890625 0 L 0.890625 -8.03125 Z M 3.390625 -0.859375 C 4.421875 -0.859375 5.207031 -1.132812 5.75 -1.6875 C 6.300781 -2.238281 6.578125 -3.007812 6.578125 -4 C 6.578125 -5 6.300781 -5.773438 5.75 -6.328125 C 5.195312 -6.890625 4.410156 -7.171875 3.390625 -7.171875 L 1.9375 -7.171875 L 1.9375 -0.859375 Z M 3.390625 -0.859375 "/></g></g></g><g fill="#e4cab8" fill-opacity="1"><g transform="translate(107.259222, 287.072412)"><g><path d="M 1.9375 -8.03125 L 1.9375 0 L 0.890625 0 L 0.890625 -8.03125 Z M 1.9375 -8.03125 "/></g></g></g><g fill="#e4cab8" fill-opacity="1"><g transform="translate(109.655214, 287.072412)"><g><path d="M 4.53125 0.078125 C 3.78125 0.078125 3.097656 -0.09375 2.484375 -0.4375 C 1.867188 -0.789062 1.382812 -1.28125 1.03125 -1.90625 C 0.675781 -2.53125 0.5 -3.234375 0.5 -4.015625 C 0.5 -4.796875 0.675781 -5.5 1.03125 -6.125 C 1.382812 -6.757812 1.867188 -7.25 2.484375 -7.59375 C 3.097656 -7.945312 3.78125 -8.125 4.53125 -8.125 C 5.28125 -8.125 5.960938 -7.945312 6.578125 -7.59375 C 7.191406 -7.25 7.675781 -6.765625 8.03125 -6.140625 C 8.382812 -5.515625 8.5625 -4.804688 8.5625 -4.015625 C 8.5625 -3.222656 8.382812 -2.515625 8.03125 -1.890625 C 7.675781 -1.273438 7.191406 -0.789062 6.578125 -0.4375 C 5.960938 -0.09375 5.28125 0.078125 4.53125 0.078125 Z M 4.53125 -0.828125 C 5.082031 -0.828125 5.582031 -0.957031 6.03125 -1.21875 C 6.488281 -1.476562 6.84375 -1.847656 7.09375 -2.328125 C 7.351562 -2.816406 7.484375 -3.378906 7.484375 -4.015625 C 7.484375 -4.660156 7.351562 -5.222656 7.09375 -5.703125 C 6.84375 -6.179688 6.492188 -6.550781 6.046875 -6.8125 C 5.597656 -7.070312 5.09375 -7.203125 4.53125 -7.203125 C 3.957031 -7.203125 3.445312 -7.070312 3 -6.8125 C 2.5625 -6.550781 2.210938 -6.179688 1.953125 -5.703125 C 1.691406 -5.222656 1.5625 -4.660156 1.5625 -4.015625 C 1.5625 -3.378906 1.691406 -2.816406 1.953125 -2.328125 C 2.210938 -1.847656 2.566406 -1.476562 3.015625 -1.21875 C 3.460938 -0.957031 3.96875 -0.828125 4.53125 -0.828125 Z M 4.53125 -0.828125 "/></g></g></g><g fill="#e4cab8" fill-opacity="1"><g transform="translate(252.187489, 276.572413)"><g><path d="M 1.9375 -7.171875 L 1.9375 -4.484375 L 4.859375 -4.484375 L 4.859375 -3.625 L 1.9375 -3.625 L 1.9375 -0.859375 L 5.203125 -0.859375 L 5.203125 0 L 0.890625 0 L 0.890625 -8.03125 L 5.203125 -8.03125 L 5.203125 -7.171875 Z M 1.9375 -7.171875 "/></g></g></g><g fill="#e4cab8" fill-opacity="1"><g transform="translate(257.659206, 276.572413)"><g><path d="M 3.4375 0.078125 C 2.90625 0.078125 2.425781 -0.015625 2 -0.203125 C 1.582031 -0.390625 1.253906 -0.648438 1.015625 -0.984375 C 0.785156 -1.316406 0.664062 -1.703125 0.65625 -2.140625 L 1.765625 -2.140625 C 1.804688 -1.765625 1.960938 -1.445312 2.234375 -1.1875 C 2.515625 -0.9375 2.914062 -0.8125 3.4375 -0.8125 C 3.9375 -0.8125 4.328125 -0.929688 4.609375 -1.171875 C 4.898438 -1.421875 5.046875 -1.742188 5.046875 -2.140625 C 5.046875 -2.453125 4.957031 -2.703125 4.78125 -2.890625 C 4.613281 -3.078125 4.40625 -3.222656 4.15625 -3.328125 C 3.90625 -3.429688 3.5625 -3.539062 3.125 -3.65625 C 2.601562 -3.789062 2.179688 -3.925781 1.859375 -4.0625 C 1.535156 -4.195312 1.257812 -4.410156 1.03125 -4.703125 C 0.8125 -5.003906 0.703125 -5.40625 0.703125 -5.90625 C 0.703125 -6.34375 0.8125 -6.726562 1.03125 -7.0625 C 1.257812 -7.40625 1.570312 -7.664062 1.96875 -7.84375 C 2.375 -8.03125 2.835938 -8.125 3.359375 -8.125 C 4.109375 -8.125 4.722656 -7.9375 5.203125 -7.5625 C 5.691406 -7.1875 5.960938 -6.6875 6.015625 -6.0625 L 4.875 -6.0625 C 4.832031 -6.375 4.671875 -6.644531 4.390625 -6.875 C 4.109375 -7.113281 3.734375 -7.234375 3.265625 -7.234375 C 2.828125 -7.234375 2.46875 -7.117188 2.1875 -6.890625 C 1.90625 -6.660156 1.765625 -6.34375 1.765625 -5.9375 C 1.765625 -5.644531 1.847656 -5.40625 2.015625 -5.21875 C 2.179688 -5.039062 2.382812 -4.898438 2.625 -4.796875 C 2.875 -4.703125 3.21875 -4.597656 3.65625 -4.484375 C 4.175781 -4.335938 4.597656 -4.191406 4.921875 -4.046875 C 5.242188 -3.898438 5.519531 -3.679688 5.75 -3.390625 C 5.988281 -3.097656 6.109375 -2.695312 6.109375 -2.1875 C 6.109375 -1.789062 6.003906 -1.421875 5.796875 -1.078125 C 5.585938 -0.734375 5.28125 -0.453125 4.875 -0.234375 C 4.46875 -0.0234375 3.988281 0.078125 3.4375 0.078125 Z M 3.4375 0.078125 "/></g></g></g><g fill="#e4cab8" fill-opacity="1"><g transform="translate(263.983369, 276.572413)"><g><path d="M 5.828125 -8.03125 L 5.828125 -7.171875 L 3.640625 -7.171875 L 3.640625 0 L 2.59375 0 L 2.59375 -7.171875 L 0.390625 -7.171875 L 0.390625 -8.03125 Z M 5.828125 -8.03125 "/></g></g></g><g fill="#e4cab8" fill-opacity="1"><g transform="translate(269.777627, 276.572413)"><g><path d="M 3.390625 -8.03125 C 4.265625 -8.03125 5.019531 -7.863281 5.65625 -7.53125 C 6.300781 -7.207031 6.789062 -6.742188 7.125 -6.140625 C 7.46875 -5.535156 7.640625 -4.820312 7.640625 -4 C 7.640625 -3.175781 7.46875 -2.460938 7.125 -1.859375 C 6.789062 -1.253906 6.300781 -0.789062 5.65625 -0.46875 C 5.019531 -0.15625 4.265625 0 3.390625 0 L 0.890625 0 L 0.890625 -8.03125 Z M 3.390625 -0.859375 C 4.421875 -0.859375 5.207031 -1.132812 5.75 -1.6875 C 6.300781 -2.238281 6.578125 -3.007812 6.578125 -4 C 6.578125 -5 6.300781 -5.773438 5.75 -6.328125 C 5.195312 -6.890625 4.410156 -7.171875 3.390625 -7.171875 L 1.9375 -7.171875 L 1.9375 -0.859375 Z M 3.390625 -0.859375 "/></g></g></g><g fill="#e4cab8" fill-opacity="1"><g transform="translate(251.964832, 287.072412)"><g><path d="M 0.59375 -0.84375 C 1.5625 -1.625 2.320312 -2.265625 2.875 -2.765625 C 3.425781 -3.273438 3.890625 -3.800781 4.265625 -4.34375 C 4.648438 -4.894531 4.84375 -5.4375 4.84375 -5.96875 C 4.84375 -6.46875 4.722656 -6.859375 4.484375 -7.140625 C 4.242188 -7.429688 3.851562 -7.578125 3.3125 -7.578125 C 2.789062 -7.578125 2.382812 -7.410156 2.09375 -7.078125 C 1.8125 -6.753906 1.660156 -6.320312 1.640625 -5.78125 L 0.625 -5.78125 C 0.65625 -6.644531 0.914062 -7.304688 1.40625 -7.765625 C 1.894531 -8.234375 2.53125 -8.46875 3.3125 -8.46875 C 4.09375 -8.46875 4.71875 -8.25 5.1875 -7.8125 C 5.65625 -7.375 5.890625 -6.773438 5.890625 -6.015625 C 5.890625 -5.378906 5.695312 -4.757812 5.3125 -4.15625 C 4.9375 -3.550781 4.503906 -3.019531 4.015625 -2.5625 C 3.535156 -2.101562 2.921875 -1.570312 2.171875 -0.96875 L 6.125 -0.96875 L 6.125 -0.09375 L 0.59375 -0.09375 Z M 0.59375 -0.84375 "/></g></g></g><g fill="#e4cab8" fill-opacity="1"><g transform="translate(258.150752, 287.072412)"><g><path d="M 0.71875 -4.25 C 0.71875 -5.570312 0.929688 -6.601562 1.359375 -7.34375 C 1.785156 -8.082031 2.535156 -8.453125 3.609375 -8.453125 C 4.679688 -8.453125 5.429688 -8.082031 5.859375 -7.34375 C 6.285156 -6.601562 6.5 -5.570312 6.5 -4.25 C 6.5 -2.90625 6.285156 -1.859375 5.859375 -1.109375 C 5.429688 -0.367188 4.679688 0 3.609375 0 C 2.535156 0 1.785156 -0.367188 1.359375 -1.109375 C 0.929688 -1.859375 0.71875 -2.90625 0.71875 -4.25 Z M 5.46875 -4.25 C 5.46875 -4.914062 5.421875 -5.476562 5.328125 -5.9375 C 5.242188 -6.40625 5.066406 -6.78125 4.796875 -7.0625 C 4.523438 -7.351562 4.128906 -7.5 3.609375 -7.5 C 3.085938 -7.5 2.691406 -7.351562 2.421875 -7.0625 C 2.148438 -6.78125 1.96875 -6.40625 1.875 -5.9375 C 1.789062 -5.476562 1.75 -4.914062 1.75 -4.25 C 1.75 -3.5625 1.789062 -2.984375 1.875 -2.515625 C 1.96875 -2.046875 2.148438 -1.664062 2.421875 -1.375 C 2.691406 -1.09375 3.085938 -0.953125 3.609375 -0.953125 C 4.128906 -0.953125 4.523438 -1.09375 4.796875 -1.375 C 5.066406 -1.664062 5.242188 -2.046875 5.328125 -2.515625 C 5.421875 -2.984375 5.46875 -3.5625 5.46875 -4.25 Z M 5.46875 -4.25 "/></g></g></g><g fill="#e4cab8" fill-opacity="1"><g transform="translate(264.947214, 287.072412)"><g><path d="M 0.59375 -0.84375 C 1.5625 -1.625 2.320312 -2.265625 2.875 -2.765625 C 3.425781 -3.273438 3.890625 -3.800781 4.265625 -4.34375 C 4.648438 -4.894531 4.84375 -5.4375 4.84375 -5.96875 C 4.84375 -6.46875 4.722656 -6.859375 4.484375 -7.140625 C 4.242188 -7.429688 3.851562 -7.578125 3.3125 -7.578125 C 2.789062 -7.578125 2.382812 -7.410156 2.09375 -7.078125 C 1.8125 -6.753906 1.660156 -6.320312 1.640625 -5.78125 L 0.625 -5.78125 C 0.65625 -6.644531 0.914062 -7.304688 1.40625 -7.765625 C 1.894531 -8.234375 2.53125 -8.46875 3.3125 -8.46875 C 4.09375 -8.46875 4.71875 -8.25 5.1875 -7.8125 C 5.65625 -7.375 5.890625 -6.773438 5.890625 -6.015625 C 5.890625 -5.378906 5.695312 -4.757812 5.3125 -4.15625 C 4.9375 -3.550781 4.503906 -3.019531 4.015625 -2.5625 C 3.535156 -2.101562 2.921875 -1.570312 2.171875 -0.96875 L 6.125 -0.96875 L 6.125 -0.09375 L 0.59375 -0.09375 Z M 0.59375 -0.84375 "/></g></g></g><g fill="#e4cab8" fill-opacity="1"><g transform="translate(271.133133, 287.072412)"><g><path d="M 0.6875 -6.234375 C 0.738281 -6.941406 1.007812 -7.492188 1.5 -7.890625 C 2 -8.285156 2.640625 -8.484375 3.421875 -8.484375 C 3.941406 -8.484375 4.390625 -8.390625 4.765625 -8.203125 C 5.148438 -8.015625 5.441406 -7.757812 5.640625 -7.4375 C 5.835938 -7.113281 5.9375 -6.75 5.9375 -6.34375 C 5.9375 -5.863281 5.796875 -5.453125 5.515625 -5.109375 C 5.242188 -4.765625 4.890625 -4.539062 4.453125 -4.4375 L 4.453125 -4.390625 C 4.953125 -4.265625 5.347656 -4.019531 5.640625 -3.65625 C 5.929688 -3.300781 6.078125 -2.832031 6.078125 -2.25 C 6.078125 -1.8125 5.976562 -1.414062 5.78125 -1.0625 C 5.582031 -0.71875 5.28125 -0.441406 4.875 -0.234375 C 4.476562 -0.0351562 4 0.0625 3.4375 0.0625 C 2.625 0.0625 1.957031 -0.148438 1.4375 -0.578125 C 0.914062 -1.003906 0.625 -1.609375 0.5625 -2.390625 L 1.578125 -2.390625 C 1.628906 -1.929688 1.816406 -1.554688 2.140625 -1.265625 C 2.460938 -0.972656 2.894531 -0.828125 3.4375 -0.828125 C 3.96875 -0.828125 4.375 -0.96875 4.65625 -1.25 C 4.9375 -1.53125 5.078125 -1.894531 5.078125 -2.34375 C 5.078125 -2.914062 4.882812 -3.328125 4.5 -3.578125 C 4.113281 -3.835938 3.535156 -3.96875 2.765625 -3.96875 L 2.5 -3.96875 L 2.5 -4.84375 L 2.78125 -4.84375 C 3.476562 -4.84375 4.007812 -4.957031 4.375 -5.1875 C 4.738281 -5.414062 4.921875 -5.765625 4.921875 -6.234375 C 4.921875 -6.648438 4.785156 -6.976562 4.515625 -7.21875 C 4.253906 -7.46875 3.878906 -7.59375 3.390625 -7.59375 C 2.910156 -7.59375 2.523438 -7.46875 2.234375 -7.21875 C 1.941406 -6.976562 1.769531 -6.648438 1.71875 -6.234375 Z M 0.6875 -6.234375 "/></g></g></g></svg>