<svg xmlns="http://www.w3.org/2000/svg" xmlns:xlink="http://www.w3.org/1999/xlink" width="500" zoomAndPan="magnify" viewBox="0 0 375 374.999991" height="500" preserveAspectRatio="xMidYMid meet" version="1.0"><defs><g/></defs><g fill="#e4cab8" fill-opacity="1"><g transform="translate(87.545946, 182.100874)"><g><path d="M 14.546875 0 L 14.546875 -66.65625 L 29.03125 -66.65625 C 37.015625 -66.65625 40.203125 -61.78125 40.203125 -55.421875 C 40.203125 -37.6875 19.765625 -36.875 19.765625 -30.3125 C 19.765625 -25.984375 28.421875 -12.59375 34.109375 -5.140625 C 37.625 -0.546875 37.828125 0 41.828125 0 L 52.984375 0 L 52.984375 -0.40625 C 48.109375 -0.40625 27.609375 -30.25 27.609375 -34.921875 C 27.609375 -39.046875 50.015625 -39.71875 50.015625 -56.03125 C 50.015625 -61.578125 46.421875 -67.671875 39.046875 -67.671875 L 4.734375 -67.671875 L 4.734375 0 Z M 14.546875 0 "/></g></g></g><g fill="#e4cab8" fill-opacity="1"><g transform="translate(140.526926, 182.100874)"><g><path d="M 2.703125 -22.734375 C 2.703125 -5.484375 17.734375 0.671875 34.03125 0.671875 C 38.640625 0.671875 42.09375 0 45.671875 -1.6875 L 49.734375 -13.46875 C 45.140625 -9.609375 39.453125 -9.140625 33.765625 -9.140625 C 18.609375 -9.140625 3.921875 -12.25 3.921875 -22.203125 C 3.921875 -25.71875 6.5625 -27.8125 12.65625 -27.8125 C 21.515625 -27.8125 28.359375 -21.3125 38.375 -21.65625 C 43.109375 -21.796875 47.375 -24.96875 47.375 -30.046875 C 47.375 -43.515625 11.984375 -38.84375 11.984375 -51.703125 C 11.984375 -56.4375 16.171875 -58.8125 26.046875 -58.8125 C 34.71875 -58.8125 43.71875 -56.5 47.640625 -53.65625 L 50.421875 -63.8125 C 46.21875 -67.203125 34.578125 -68.34375 27.609375 -68.34375 C 8.125 -68.34375 4.328125 -59.140625 4.328125 -55.015625 C 4.328125 -45 14.078125 -43.171875 23.625 -40.875 C 30.859375 -39.109375 42.4375 -37.015625 42.4375 -33.03125 C 42.4375 -31.46875 41.015625 -30.859375 39.453125 -30.859375 C 33.15625 -30.859375 28.015625 -35.59375 19.015625 -35.59375 C 9.8125 -35.59375 2.703125 -31.328125 2.703125 -22.734375 Z M 2.703125 -22.734375 "/></g></g></g><g fill="#e4cab8" fill-opacity="1"><g transform="translate(192.425273, 182.100874)"><g><path d="M 3.390625 -32.484375 L 3.390625 -30.453125 L 32.484375 -30.453125 L 32.484375 -32.484375 Z M 3.390625 -32.484375 "/></g></g></g><g fill="#e4cab8" fill-opacity="1"><g transform="translate(87.545946, 256.350869)"><g><path d="M 3.890625 0 L 11.96875 0 L 11.96875 -27.78125 L 18.875 -27.78125 C 25.4375 -27.78125 30.28125 -26.171875 31.84375 -22.65625 L 31.84375 -33.734375 C 30.28125 -30.234375 25.4375 -28.609375 18.875 -28.609375 L 11.96875 -28.609375 L 11.96875 -54.84375 L 16.25 -54.84375 C 29.0625 -54.84375 35.625 -50.5 39.46875 -46.546875 L 39.46875 -55.671875 L 3.890625 -55.671875 Z M 3.890625 0 "/></g></g></g><g fill="#e4cab8" fill-opacity="1"><g transform="translate(128.125045, 256.350869)"><g><path d="M 24.21875 0.5625 C 37.40625 0.5625 46.203125 -10.796875 46.203125 -27.84375 C 46.203125 -44.875 37.40625 -56.234375 24.21875 -56.234375 C 10.96875 -56.234375 2.234375 -44.875 2.234375 -27.84375 C 2.234375 -10.796875 10.96875 0.5625 24.21875 0.5625 Z M 10.90625 -27.890625 C 10.90625 -44.421875 16.203125 -55.453125 24.15625 -55.453125 C 32.171875 -55.453125 37.515625 -44.421875 37.515625 -27.890625 C 37.515625 -11.296875 32.171875 -0.28125 24.15625 -0.28125 C 16.203125 -0.28125 10.90625 -11.296875 10.90625 -27.890625 Z M 10.90625 -27.890625 "/></g></g></g><g fill="#e4cab8" fill-opacity="1"><g transform="translate(176.552777, 256.350869)"><g><path d="M 11.96875 0 L 11.96875 -54.84375 L 23.890625 -54.84375 C 30.453125 -54.84375 33.0625 -50.828125 33.0625 -45.59375 C 33.0625 -31.015625 16.25 -30.34375 16.25 -24.9375 C 16.25 -21.375 23.375 -10.359375 28.0625 -4.234375 C 30.953125 -0.453125 31.125 0 34.40625 0 L 43.59375 0 L 43.59375 -0.328125 C 39.578125 -0.328125 22.71875 -24.890625 22.71875 -28.734375 C 22.71875 -32.125 41.140625 -32.671875 41.140625 -46.09375 C 41.140625 -50.65625 38.1875 -55.671875 32.125 -55.671875 L 3.890625 -55.671875 L 3.890625 0 Z M 11.96875 0 "/></g></g></g><g fill="#e4cab8" fill-opacity="1"><g transform="translate(220.137734, 256.350869)"><g><path d="M 18.484375 0 L 18.484375 -0.28125 C 6.125 -4.78125 8.125 -27.84375 9.515625 -37.796875 C 10.640625 -45.765625 10.640625 -45.703125 11.75 -53.4375 C 13.75 -51.828125 14.078125 -49.109375 14.703125 -44.65625 C 15.3125 -39.1875 15.75 -35.6875 16.640625 -29.453125 C 17.703125 -23.21875 18.703125 -0.78125 31.015625 -0.78125 C 36.75 -0.78125 37.359375 -4.953125 37.359375 -7.453125 C 37.359375 -15.53125 32.0625 -34.453125 32.0625 -42.984375 C 32.0625 -46.984375 32.734375 -52.671875 36.859375 -52.671875 C 40.703125 -52.671875 40.640625 -46.546875 41.3125 -41.640625 C 43.484375 -25.78125 44.8125 -16.25 47.046875 0 L 55.390625 0 C 53.171875 -16.25 52 -25.71875 49.65625 -41.703125 C 48.65625 -48.609375 48.375 -56.234375 40.96875 -56.234375 C 34.578125 -56.234375 30.734375 -51.328125 31.0625 -42.921875 C 31.40625 -34.96875 33.796875 -25 34.625 -19.765625 C 35.90625 -11.578125 37.6875 -4.671875 33.234375 -4.671875 C 29.84375 -4.671875 27.5 -12.6875 26.609375 -18.421875 C 24.828125 -30.0625 23.9375 -37.296875 22.109375 -50.21875 C 21.59375 -53.71875 19.765625 -55.671875 17.140625 -55.671875 L 5.125 -55.671875 L 5.125 -55.390625 C 6.234375 -55.28125 7.1875 -55.171875 8.015625 -55 C 11.90625 -53.609375 10.359375 -49.65625 9.796875 -46.3125 L 1.109375 0 Z M 18.484375 0 "/></g></g></g></svg>